<?xml version="1.0" standalone="no"?><!DOCTYPE svg PUBLIC "-//W3C//DTD SVG 1.1//EN" "http://www.w3.org/Graphics/SVG/1.1/DTD/svg11.dtd" ><svg xmlns="http://www.w3.org/2000/svg"><metadata></metadata><defs><font id="fonteditor" horiz-adv-x="984"><font-face font-family="?Ì]ô]ôfn`àOS R" font-weight="400" font-stretch="normal" units-per-em="1000" panose-1="0 2 6 0 4 1 1 1 1 1" ascent="1050" descent="-322" x-height="1" bbox="-76 -204 982 841" underline-thickness="50" underline-position="-75" unicode-range="U+0021-ffe5" /><missing-glyph horiz-adv-x="575" d="M80 742 L495 742 L495 0 L80 0 L80 742 ZM426 66 L426 677 L150 677 L150 66 L426 66 Z" /><glyph glyph-name="exclam" unicode="!" d="M130 694 L228 694 L213 202 L145 202 L130 694 ZM178 -6 Q161 -6 149 -4 Q137 -2 129.5 5 Q122 12 118.5 24 Q115 36 115 57 Q115 77 118.5 89.5 Q122 102 129.5 108.5 Q137 115 149 117.5 Q161 120 178 120 Q212 120 227 108.5 Q242 97 242 57 Q242 16 227 5 Q212 -6 178 -6 Z" /><glyph glyph-name="quotedbl" unicode="&quot;" d="M77 760 L177 760 L154 464 L100 464 L77 760 ZM228 760 L328 760 L306 464 L251 464 L228 760 Z" /><glyph glyph-name="numbersign" unicode="#" d="M482 441 L444 262 L582 262 L582 192 L429 192 L389 0 L308 0 L348 192 L187 192 L147 0 L66 0 L106 192 L18 192 L18 262 L121 262 L159 441 L18 441 L18 511 L174 511 L212 694 L293 694 L255 511 L416 511 L454 694 L535 694 L497 511 L582 511 L582 441 L482 441 ZM401 441 L240 441 L202 262 L363 262 L401 441 Z" /><glyph glyph-name="dollar" unicode="$" d="M499 200 Q499 108 453.5 63 Q408 18 310 10 L310 -138 L247 -138 L247 9 Q188 11 137.5 17.5 Q87 24 63 33 L63 111 Q92 100 141 92.5 Q190 85 247 83 L247 334 Q198 347 165 360.5 Q132 374 111.5 394 Q91 414 82.5 443.5 Q74 473 74 517 Q74 598 116 643 Q158 688 247 694 L247 787 L310 787 L310 694 Q332 693 355.5 690.5 Q379 688 399.5 685 Q420 682 437 678.5 Q454 675 465 671 L465 597 Q440 606 397 613 Q354 620 310 622 L310 395 Q358 383 394 367.5 Q430 352 453 329.5 Q476 307 487.5 275.5 Q499 244 499 200 ZM153 517 Q153 496 156 480.5 Q159 465 169 452.5 Q179 440 197.5 430 Q216 420 247 411 L247 622 Q197 619 175 597.5 Q153 576 153 517 ZM310 85 Q367 90 393.5 114 Q420 138 420 193 Q420 221 415 240 Q410 259 398 273 Q386 287 364.5 297 Q343 307 310 317 L310 85 Z" /><glyph glyph-name="percent" unicode="%" d="M210 323 Q177 323 151 332 Q125 341 106.5 362.5 Q88 384 78 420.5 Q68 457 68 513 Q68 568 78 605 Q88 642 106.5 664 Q125 686 151 695 Q177 704 210 704 Q243 704 269 695 Q295 686 313.5 664 Q332 642 342 605 Q352 568 352 513 Q352 457 342 420.5 Q332 384 313.5 362.5 Q295 341 269 332 Q243 323 210 323 ZM570 694 L637 694 L248 0 L182 0 L570 694 ZM210 375 Q231 375 245.5 381.5 Q260 388 269 403.5 Q278 419 282 445.5 Q286 472 286 513 Q286 553 282 579.5 Q278 606 269 621.5 Q260 637 245.5 643 Q231 649 210 649 Q189 649 175 643 Q161 637 152 621.5 Q143 606 139 579.5 Q135 553 135 513 Q135 472 139 445.5 Q143 419 152 403.5 Q161 388 175 381.5 Q189 375 210 375 ZM611 -10 Q578 -10 552 -1 Q526 8 507 29.5 Q488 51 478 87.5 Q468 124 468 180 Q468 235 478 272 Q488 309 507 331 Q526 353 552 362 Q578 371 611 371 Q644 371 670 362 Q696 353 714.5 331 Q733 309 743 272 Q753 235 753 180 Q753 124 743 87.5 Q733 51 714.5 29.5 Q696 8 670 -1 Q644 -10 611 -10 ZM611 42 Q632 42 646.5 48.5 Q661 55 670 70.5 Q679 86 682.5 112.5 Q686 139 686 180 Q686 220 682.5 246.5 Q679 273 670 288.5 Q661 304 646.5 310 Q632 316 611 316 Q590 316 576 310 Q562 304 553 288.5 Q544 273 540 246.5 Q536 220 536 180 Q536 139 540 112.5 Q544 86 553 70.5 Q562 55 576 48.5 Q590 42 611 42 Z" /><glyph glyph-name="ampersand" unicode="&amp;" d="M514 129 Q538 103 565.5 89.5 Q593 76 640 76 L640 0 Q604 0 577.5 2.5 Q551 5 529.5 12.5 Q508 20 489.5 33.5 Q471 47 452 68 Q402 26 353.5 8 Q305 -10 253 -10 Q205 -10 165.5 3.5 Q126 17 98 42 Q70 67 54.5 102 Q39 137 39 179 Q39 240 73.5 292 Q108 344 194 391 Q178 413 167.5 432.5 Q157 452 151 469.5 Q145 487 143 504 Q141 521 141 540 Q141 577 154 607 Q167 637 190 658.5 Q213 680 244 692 Q275 704 312 704 Q350 704 379.5 692 Q409 680 429 660 Q449 640 459.5 613 Q470 586 470 555 Q470 493 431.5 451 Q393 409 315 371 L461 192 Q489 234 503.5 277 Q518 320 521 360 L608 360 Q599 296 578.5 239 Q558 182 514 129 ZM310 630 Q276 630 253.5 606 Q231 582 231 544 Q231 516 239.5 489 Q248 462 271 428 Q328 455 355 482 Q382 509 382 551 Q382 586 363 608 Q344 630 310 630 ZM130 189 Q130 132 167 99.5 Q204 67 264 67 Q303 67 336 80.5 Q369 94 405 126 L239 333 Q179 298 154.5 263 Q130 228 130 189 Z" /><glyph glyph-name="quotesingle" unicode="&#39;" d="M77 760 L177 760 L154 464 L100 464 L77 760 Z" /><glyph glyph-name="parenleft" unicode="(" d="M223 -200 Q145 -88 105 29.5 Q65 147 65 274 Q65 408 106.5 527 Q148 646 226 760 L308 760 Q226 632 188.5 516.5 Q151 401 151 281 Q151 157 188.5 39.5 Q226 -78 305 -200 L223 -200 Z" /><glyph glyph-name="parenright" unicode=")" d="M50 -200 Q132 -72 169.5 43.5 Q207 159 207 279 Q207 403 169.5 520.5 Q132 638 54 760 L136 760 Q214 648 254 530.5 Q294 413 294 286 Q294 152 252.5 33 Q211 -86 133 -200 L50 -200 Z" /><glyph glyph-name="asterisk" unicode="*" d="M75 458 L164 563 L30 594 L57 676 L183 623 L172 760 L258 760 L247 623 L373 676 L400 594 L266 563 L356 458 L287 408 L215 526 L144 408 L75 458 Z" /><glyph glyph-name="plus" unicode="+" d="M517 258 L318 258 L318 59 L233 59 L233 258 L35 258 L35 343 L233 343 L233 541 L318 541 L318 343 L517 343 L517 258 Z" /><glyph glyph-name="comma" unicode="," d="M38 -136 Q58 -105 75.5 -70.5 Q93 -36 105.5 -1.5 Q118 33 125 66 Q132 99 132 127 L215 127 Q215 95 205 58.5 Q195 22 180 -13 Q165 -48 146 -80 Q127 -112 109 -136 L38 -136 Z" /><glyph glyph-name="period" unicode="." d="M151 -6 Q116 -6 101.5 5 Q87 16 87 58 Q87 98 101.5 109 Q116 120 151 120 Q185 120 200 109 Q215 98 215 58 Q215 16 200 5 Q185 -6 151 -6 Z" /><glyph glyph-name="slash" unicode="/" d="M346 724 L423 724 L154 -30 L77 -30 L346 724 Z" /><glyph glyph-name="zero" unicode="0" d="M287 -10 Q235 -10 192 5.5 Q149 21 118 61 Q87 101 70 170.5 Q53 240 53 347 Q53 454 70 523 Q87 592 118 632.5 Q149 673 192 688.5 Q235 704 287 704 Q339 704 382.5 688.5 Q426 673 457 632.5 Q488 592 505 523 Q522 454 522 347 Q522 240 505 170.5 Q488 101 457 61 Q426 21 382.5 5.5 Q339 -10 287 -10 ZM287 65 Q324 65 351 77.5 Q378 90 396 122 Q414 154 422.5 208.5 Q431 263 431 347 Q431 430 422.5 484.5 Q414 539 396 571 Q378 603 351 615.5 Q324 628 287 628 Q251 628 224 615.5 Q197 603 179.5 571 Q162 539 153.5 484.5 Q145 430 145 347 Q145 263 153.5 208.5 Q162 154 179.5 122 Q197 90 224 77.5 Q251 65 287 65 Z" /><glyph glyph-name="one" unicode="1" d="M273 612 L101 579 L101 652 L304 694 L363 694 L363 0 L273 0 L273 612 Z" /><glyph glyph-name="two" unicode="2" d="M57 95 Q168 182 235 243 Q302 304 339 350 Q376 396 388 432.5 Q400 469 400 506 Q400 543 386.5 567 Q373 591 352 605 Q331 619 304.5 624 Q278 629 253 629 Q220 629 183 625.5 Q146 622 105 611 L105 688 Q140 696 179.5 700 Q219 704 263 704 Q314 704 355 693 Q396 682 425.5 658 Q455 634 470.5 596 Q486 558 486 505 Q486 458 472 416.5 Q458 375 425 330.5 Q392 286 336 234.5 Q280 183 196 116 L156 85 L156 76 L514 76 L514 0 L57 0 L57 95 Z" /><glyph glyph-name="three" unicode="3" d="M226 -10 Q184 -10 144.5 -7 Q105 -4 70 3 L70 82 Q110 72 147.5 68.5 Q185 65 225 65 Q264 65 297.5 71 Q331 77 355 92 Q379 107 393 131.5 Q407 156 407 192 Q407 266 357 295 Q307 324 208 324 L153 324 L153 393 L207 393 Q298 393 345 426.5 Q392 460 392 517 Q392 578 355.5 604 Q319 630 244 630 Q214 630 175 625 Q136 620 103 610 L103 684 Q129 692 168.5 698 Q208 704 248 704 Q360 704 417.5 661 Q475 618 475 522 Q475 454 442 417.5 Q409 381 352 364 L352 358 Q426 345 459.5 302.5 Q493 260 493 191 Q493 95 428.5 42.5 Q364 -10 226 -10 Z" /><glyph glyph-name="four" unicode="4" d="M529 171 L447 171 L447 0 L363 0 L363 171 L35 171 L35 268 L339 694 L447 694 L447 247 L529 247 L529 171 ZM363 247 L363 602 L357 602 L111 253 L111 247 L363 247 Z" /><glyph glyph-name="five" unicode="5" d="M229 -10 Q187 -10 153.5 -7 Q120 -4 86 3 L86 82 Q125 72 156.5 68.5 Q188 65 228 65 Q271 65 306.5 72.5 Q342 80 367 97.5 Q392 115 406 143.5 Q420 172 420 215 Q420 293 374.5 328.5 Q329 364 221 364 Q193 364 157 359.5 Q121 355 88 349 L135 694 L459 694 L459 616 L203 616 L174 426 Q193 429 212 430.5 Q231 432 255 432 Q376 432 441 382 Q506 332 506 221 Q506 159 486.5 115.5 Q467 72 431 44 Q395 16 343.5 3 Q292 -10 229 -10 Z" /><glyph glyph-name="six" unicode="6" d="M287 -10 Q239 -10 197.5 3.5 Q156 17 124.5 49 Q93 81 75 134.5 Q57 188 57 269 Q57 366 78.5 446 Q100 526 145 583.5 Q190 641 260.5 672.5 Q331 704 429 704 L428 628 Q364 628 314 610 Q264 592 229 560.5 Q194 529 174 486.5 Q154 444 150 395 L153 395 Q173 415 212 433.5 Q251 452 302 452 Q399 452 456 397 Q513 342 513 228 Q513 177 499.5 133.5 Q486 90 458.5 58 Q431 26 388 8 Q345 -10 287 -10 ZM286 65 Q357 65 394 105.5 Q431 146 431 228 Q431 306 394 344.5 Q357 383 298 383 Q217 383 180 344.5 Q143 306 143 244 Q143 65 286 65 Z" /><glyph glyph-name="seven" unicode="7" d="M435 616 L54 616 L54 694 L512 694 L512 606 L227 0 L135 0 L435 616 Z" /><glyph glyph-name="eight" unicode="8" d="M287 -10 Q175 -10 112.5 37 Q50 84 50 184 Q50 224 61 253.5 Q72 283 89.5 303.5 Q107 324 129 336.5 Q151 349 173 357 L173 361 Q129 381 101 417.5 Q73 454 73 519 Q73 560 85.5 594 Q98 628 124 652.5 Q150 677 190.5 690.5 Q231 704 287 704 Q343 704 383.5 690.5 Q424 677 450 652.5 Q476 628 488.5 594 Q501 560 501 519 Q501 456 476.5 418.5 Q452 381 401 361 L401 357 Q426 349 448.5 336.5 Q471 324 488 303 Q505 282 514.5 252.5 Q524 223 524 183 Q524 83 462 36.5 Q400 -10 287 -10 ZM287 390 Q324 390 349.5 399.5 Q375 409 390.5 426 Q406 443 413 465 Q420 487 420 513 Q420 570 387 601 Q354 632 287 632 Q154 632 154 513 Q154 487 160 465 Q166 443 181.5 426 Q197 409 222.5 399.5 Q248 390 287 390 ZM287 63 Q369 63 405 96.5 Q441 130 441 187 Q441 258 403 291 Q365 324 287 324 Q209 324 171.5 291 Q134 258 134 187 Q134 130 169.5 96.5 Q205 63 287 63 Z" /><glyph glyph-name="nine" unicode="9" d="M144 63 Q210 63 259.5 81 Q309 99 343.5 131 Q378 163 397.5 206 Q417 249 422 299 L418 299 Q399 278 360 260 Q321 242 270 242 Q222 242 182.5 255 Q143 268 115.5 294.5 Q88 321 72.5 362.5 Q57 404 57 461 Q57 512 70.5 556.5 Q84 601 112 633.5 Q140 666 183 685 Q226 704 284 704 Q332 704 373.5 690 Q415 676 446 643 Q477 610 495 556 Q513 502 513 422 Q513 325 492 245 Q471 165 426 108 Q381 51 311 19.5 Q241 -12 143 -12 L144 63 ZM273 310 Q354 310 391.5 347.5 Q429 385 429 448 Q429 536 392 583 Q355 630 284 630 Q213 630 177 586.5 Q141 543 141 461 Q141 383 178 346.5 Q215 310 273 310 Z" /><glyph glyph-name="colon" unicode=":" d="M189 420 Q154 420 139.5 431 Q125 442 125 483 Q125 524 139.5 535 Q154 546 189 546 Q223 546 238 535 Q253 524 253 483 Q253 442 238 431 Q223 420 189 420 ZM189 -6 Q154 -6 139.5 5 Q125 16 125 58 Q125 98 139.5 109 Q154 120 189 120 Q223 120 238 109 Q253 98 253 58 Q253 16 238 5 Q223 -6 189 -6 Z" /><glyph glyph-name="semicolon" unicode=";" d="M189 420 Q154 420 139.5 431 Q125 442 125 483 Q125 524 139.5 535 Q154 546 189 546 Q223 546 238 535 Q253 524 253 483 Q253 442 238 431 Q223 420 189 420 ZM66 -136 Q86 -105 103 -70.5 Q120 -36 133 -1.5 Q146 33 153 66 Q160 99 160 127 L242 127 Q242 95 232 58.5 Q222 22 207 -13 Q192 -48 173 -80 Q154 -112 136 -136 L66 -136 Z" /><glyph glyph-name="less" unicode="&lt;" d="M517 470 L99 300 L517 130 L517 45 L35 241 L35 359 L517 555 L517 470 Z" /><glyph glyph-name="equal" unicode="=" d="M35 461 L517 461 L517 376 L35 376 L35 461 ZM35 225 L517 225 L517 140 L35 140 L35 225 Z" /><glyph glyph-name="greater" unicode="&gt;" d="M517 359 L517 241 L35 45 L35 130 L453 300 L35 470 L35 555 L517 359 Z" /><glyph glyph-name="question" unicode="?" d="M152 243 Q152 262 156 279 Q160 296 170 313 Q180 330 197.5 348.5 Q215 367 242 389 Q265 407 279.5 421 Q294 435 302 449.5 Q310 464 313 480 Q316 496 316 518 Q316 549 309.5 569.5 Q303 590 288 601.5 Q273 613 248 617.5 Q223 622 186 622 Q151 622 111 616.5 Q71 611 42 600 L42 680 Q66 688 104.5 695 Q143 702 195 702 Q249 702 289 694 Q329 686 356 666 Q383 646 396 612 Q409 578 409 527 Q409 486 402 458.5 Q395 431 382 410.5 Q369 390 350.5 374 Q332 358 308 341 Q286 325 271 311.5 Q256 298 247 285.5 Q238 273 234.5 259.5 Q231 246 231 229 L231 199 L152 199 L152 243 ZM192 -6 Q175 -6 163 -4 Q151 -2 143.5 5 Q136 12 132.5 24 Q129 36 129 57 Q129 77 132.5 89.5 Q136 102 143.5 108.5 Q151 115 163 117.5 Q175 120 192 120 Q226 120 241 108.5 Q256 97 256 57 Q256 16 241 5 Q226 -6 192 -6 Z" /><glyph glyph-name="at" unicode="@" d="M454 -110 Q356 -110 281.5 -84 Q207 -58 157 -9 Q107 40 81.5 109 Q56 178 56 265 Q56 364 90 445 Q124 526 182.5 583 Q241 640 318.5 671.5 Q396 703 484 703 Q649 703 739.5 619.5 Q830 536 830 381 Q830 318 816.5 265 Q803 212 778.5 174 Q754 136 719.5 114.5 Q685 93 643 93 Q574 93 541 154 Q511 121 476 106 Q441 91 393 91 Q324 91 287.5 131 Q251 171 251 240 Q251 303 268.5 351.5 Q286 400 315 433 Q344 466 381.5 483 Q419 500 459 500 Q497 500 523.5 486 Q550 472 565 446 L574 495 L647 495 L606 287 Q597 242 597 222 Q597 194 611.5 176.5 Q626 159 649 159 Q672 159 691 174.5 Q710 190 724 218.5 Q738 247 745.5 287 Q753 327 753 376 Q753 506 681.5 570 Q610 634 483 634 Q410 634 346.5 608 Q283 582 235.5 534 Q188 486 161 418 Q134 350 134 266 Q134 114 214.5 37 Q295 -40 462 -40 Q573 -40 681 -7 L681 -74 Q567 -110 454 -110 ZM406 159 Q460 159 492 196.5 Q524 234 535 298 Q537 310 538.5 321.5 Q540 333 540 341 Q540 362 537 379.5 Q534 397 525 409.5 Q516 422 500 428.5 Q484 435 458 435 Q426 435 402 417.5 Q378 400 361.5 372 Q345 344 337 309 Q329 274 329 239 Q329 224 332.5 209.5 Q336 195 344.5 184 Q353 173 368 166 Q383 159 406 159 Z" /><glyph glyph-name="A" unicode="a" d="M486 207 L179 207 L103 0 L11 0 L274 694 L394 694 L656 0 L561 0 L486 207 ZM457 287 L340 610 L328 610 L209 287 L457 287 Z" /><glyph glyph-name="B" unicode="b" d="M92 694 L292 694 Q360 694 405 683 Q450 672 476.5 649 Q503 626 514 591.5 Q525 557 525 510 Q525 456 502 418 Q479 380 424 363 L424 359 Q459 352 483 337.5 Q507 323 521.5 302 Q536 281 542 255 Q548 229 548 198 Q548 151 537 114 Q526 77 499 51.5 Q472 26 426.5 13 Q381 0 312 0 L92 0 L92 694 ZM250 390 Q300 390 335.5 395 Q371 400 393.5 413 Q416 426 426.5 448.5 Q437 471 437 505 Q437 543 426.5 565.5 Q416 588 393.5 599.5 Q371 611 335.5 614.5 Q300 618 250 618 L182 618 L182 390 L250 390 ZM275 77 Q328 77 363.5 82 Q399 87 420 100.5 Q441 114 449.5 138 Q458 162 458 199 Q458 231 449 253.5 Q440 276 419 290.5 Q398 305 363 312 Q328 319 275 319 L182 319 L182 77 L275 77 Z" /><glyph glyph-name="C" unicode="c" d="M388 -10 Q316 -10 258 5 Q200 20 158.5 59.5 Q117 99 94.5 168.5 Q72 238 72 347 Q72 447 95 515.5 Q118 584 160 626 Q202 668 262.5 686 Q323 704 398 704 Q446 704 481.5 699 Q517 694 548 684 L548 601 Q518 612 482 618.5 Q446 625 400 625 Q341 625 297 611 Q253 597 224 564.5 Q195 532 180.5 479.5 Q166 427 166 349 Q166 266 179.5 212.5 Q193 159 220.5 127.5 Q248 96 290.5 83.5 Q333 71 391 71 Q440 71 478 77.5 Q516 84 556 98 L556 20 Q527 7 484 -1.5 Q441 -10 388 -10 Z" /><glyph glyph-name="D" unicode="d" d="M292 694 Q367 694 428.5 680.5 Q490 667 534 629 Q578 591 602.5 523 Q627 455 627 347 Q627 246 602.5 179.5 Q578 113 534 73 Q490 33 428.5 16.5 Q367 0 292 0 L92 0 L92 694 L292 694 ZM290 79 Q344 79 389 91.5 Q434 104 466.5 134.5 Q499 165 516.5 217 Q534 269 534 347 Q534 430 515.5 482.5 Q497 535 464.5 564.5 Q432 594 387.5 605 Q343 616 290 616 L182 616 L182 79 L290 79 Z" /><glyph glyph-name="E" unicode="e" d="M503 81 L503 0 L92 0 L92 694 L478 694 L478 614 L182 614 L182 399 L458 399 L458 323 L182 323 L182 81 L503 81 Z" /><glyph glyph-name="F" unicode="f" d="M182 614 L182 389 L458 389 L458 309 L182 309 L182 0 L92 0 L92 694 L478 694 L478 614 L182 614 Z" /><glyph glyph-name="G" unicode="g" d="M397 -10 Q321 -10 261 5 Q201 20 159 59.5 Q117 99 94.5 168.5 Q72 238 72 347 Q72 447 95 515.5 Q118 584 161 626 Q204 668 266.5 686 Q329 704 407 704 Q431 704 456.5 702 Q482 700 506 696.5 Q530 693 551.5 688 Q573 683 588 677 L588 597 Q553 611 508.5 618 Q464 625 411 625 Q353 625 307.5 613 Q262 601 230.5 570 Q199 539 182.5 485 Q166 431 166 347 Q166 258 181.5 203.5 Q197 149 228 119 Q259 89 303.5 78.5 Q348 68 407 68 Q431 68 463.5 71 Q496 74 520 81 L520 296 L381 296 L381 372 L606 372 L606 19 Q568 7 515.5 -1.5 Q463 -10 397 -10 Z" /><glyph glyph-name="H" unicode="h" d="M616 694 L616 0 L525 0 L525 336 L182 336 L182 0 L92 0 L92 694 L182 694 L182 411 L525 411 L525 694 L616 694 Z" /><glyph glyph-name="I" unicode="i" d="M92 694 L182 694 L182 0 L92 0 L92 694 Z" /><glyph glyph-name="J" unicode="j" d="M-6 -181 Q-21 -181 -41.5 -179.5 Q-62 -178 -76 -175 L-76 -95 Q-64 -97 -49 -99.5 Q-34 -102 -9 -102 Q46 -102 69.5 -67 Q93 -32 93 25 L93 694 L183 694 L183 16 Q183 -75 137 -128 Q91 -181 -6 -181 Z" /><glyph glyph-name="K" unicode="k" d="M595 0 L479 0 L231 326 L182 326 L182 0 L92 0 L92 694 L182 694 L182 405 L231 405 L474 694 L586 694 L302 371 L595 0 Z" /><glyph glyph-name="L" unicode="l" d="M483 81 L483 0 L92 0 L92 694 L182 694 L182 81 L483 81 Z" /><glyph glyph-name="M" unicode="m" d="M92 694 L236 694 L413 247 L419 247 L596 694 L738 694 L738 0 L648 0 L648 603 L642 603 L464 157 L366 157 L186 603 L180 603 L180 0 L92 0 L92 694 Z" /><glyph glyph-name="N" unicode="n" d="M92 694 L233 694 L549 118 L555 118 L555 694 L645 694 L645 0 L526 0 L186 611 L180 611 L180 0 L92 0 L92 694 Z" /><glyph glyph-name="O" unicode="o" d="M371 -10 Q297 -10 241.5 6.5 Q186 23 148 63.5 Q110 104 91 173 Q72 242 72 347 Q72 452 91 520.5 Q110 589 148 630 Q186 671 241.5 687.5 Q297 704 371 704 Q445 704 501 687.5 Q557 671 594.5 630 Q632 589 651 520.5 Q670 452 670 347 Q670 242 651 173 Q632 104 594.5 63.5 Q557 23 501 6.5 Q445 -10 371 -10 ZM371 67 Q435 67 475 83 Q515 99 537.5 133 Q560 167 568.5 220 Q577 273 577 347 Q577 419 568.5 472 Q560 525 537.5 559.5 Q515 594 475 611 Q435 628 371 628 Q308 628 268 611 Q228 594 205.5 559.5 Q183 525 174.5 472 Q166 419 166 347 Q166 273 174.5 220 Q183 167 205.5 133 Q228 99 268 83 Q308 67 371 67 Z" /><glyph glyph-name="P" unicode="p" d="M92 694 L285 694 Q358 694 407 681 Q456 668 485.5 641 Q515 614 527 572 Q539 530 539 472 Q539 411 524.5 368 Q510 325 479.5 298 Q449 271 400.5 258.5 Q352 246 285 246 L182 246 L182 0 L92 0 L92 694 ZM277 321 Q325 321 358 328 Q391 335 410.5 352.5 Q430 370 438.5 399 Q447 428 447 472 Q447 512 438.5 539.5 Q430 567 410.5 584 Q391 601 358 608.5 Q325 616 277 616 L182 616 L182 321 L277 321 Z" /><glyph glyph-name="Q" unicode="q" d="M670 347 Q670 260 657 198 Q644 136 618 95 Q592 54 554 30.5 Q516 7 465 -2 L580 -145 L473 -145 L376 -10 L371 -10 Q297 -10 241.5 6.5 Q186 23 148 63.5 Q110 104 91 173 Q72 242 72 347 Q72 452 91 520.5 Q110 589 148 630 Q186 671 241.5 687.5 Q297 704 371 704 Q445 704 501 687.5 Q557 671 594.5 630 Q632 589 651 520.5 Q670 452 670 347 ZM371 67 Q435 67 475 83 Q515 99 537.5 133 Q560 167 568.5 220 Q577 273 577 347 Q577 419 568.5 472 Q560 525 537.5 559.5 Q515 594 475 611 Q435 628 371 628 Q308 628 268 611 Q228 594 205.5 559.5 Q183 525 174.5 472 Q166 419 166 347 Q166 273 174.5 220 Q183 167 205.5 133 Q228 99 268 83 Q308 67 371 67 Z" /><glyph glyph-name="R" unicode="r" d="M493 0 L302 280 Q294 279 285.5 279 Q277 279 268 279 L182 279 L182 0 L92 0 L92 694 L268 694 Q341 694 391.5 683.5 Q442 673 473.5 649 Q505 625 519 585.5 Q533 546 533 489 Q533 399 498 352.5 Q463 306 391 290 L599 0 L493 0 ZM260 354 Q308 354 342.5 358.5 Q377 363 399 377 Q421 391 431.5 418 Q442 445 442 489 Q442 528 431.5 553 Q421 578 399 592 Q377 606 342.5 611 Q308 616 260 616 L182 616 L182 354 L260 354 Z" /><glyph glyph-name="S" unicode="s" d="M263 -10 Q231 -10 199.5 -7.5 Q168 -5 140.5 -1 Q113 3 91.5 7.5 Q70 12 57 17 L57 100 Q72 94 95 88.5 Q118 83 145 78.5 Q172 74 202 71.5 Q232 69 263 69 Q341 69 381 95 Q421 121 421 186 Q421 218 414.5 239.5 Q408 261 390 276 Q372 291 341 302 Q310 313 261 325 Q208 338 171 352 Q134 366 111 387.5 Q88 409 77.5 440 Q67 471 67 517 Q67 612 123.5 658.5 Q180 705 298 705 Q323 705 348.5 703 Q374 701 397.5 697.5 Q421 694 440.5 689.5 Q460 685 472 680 L472 598 Q442 609 394 617.5 Q346 626 299 626 Q263 626 236 621.5 Q209 617 191 605 Q173 593 164.5 572 Q156 551 156 517 Q156 493 160.5 475.5 Q165 458 180 445 Q195 432 223 421.5 Q251 411 298 400 Q356 386 396.5 370.5 Q437 355 462 331 Q487 307 498 272.5 Q509 238 509 187 Q509 85 446.5 37.5 Q384 -10 263 -10 Z" /><glyph glyph-name="T" unicode="t" d="M511 614 L309 614 L309 0 L219 0 L219 614 L16 614 L16 694 L511 694 L511 614 Z" /><glyph glyph-name="U" unicode="u" d="M350 -10 Q219 -10 154 43.5 Q89 97 89 224 L89 694 L178 694 L178 244 Q178 194 187 160.5 Q196 127 216.5 107 Q237 87 270 78 Q303 69 351 69 Q401 69 434.5 78 Q468 87 488 107 Q508 127 516 160.5 Q524 194 524 244 L524 694 L613 694 L613 224 Q613 101 547 45.5 Q481 -10 350 -10 Z" /><glyph glyph-name="V" unicode="v" d="M16 694 L112 694 L307 95 L313 95 L511 694 L602 694 L363 0 L251 0 L16 694 Z" /><glyph glyph-name="W" unicode="w" d="M26 694 L120 694 L250 105 L256 105 L397 613 L505 613 L646 105 L652 105 L781 694 L872 694 L707 0 L593 0 L452 514 L446 514 L302 0 L188 0 L26 694 Z" /><glyph glyph-name="X" unicode="x" d="M251 353 L42 694 L147 694 L312 409 L318 409 L494 694 L592 694 L375 359 L600 0 L495 0 L317 298 L311 298 L124 0 L23 0 L251 353 Z" /><glyph glyph-name="Y" unicode="y" d="M251 298 L6 694 L110 694 L297 380 L303 380 L489 694 L588 694 L341 299 L341 0 L251 0 L251 298 Z" /><glyph glyph-name="Z" unicode="z" d="M58 92 L457 608 L456 614 L78 614 L78 694 L560 694 L560 608 L155 87 L155 81 L583 81 L583 0 L58 0 L58 92 Z" /><glyph glyph-name="backslash" unicode="\" d="M23 760 L104 760 L486 -100 L405 -100 L23 760 Z" /><glyph glyph-name="asciicircum" unicode="^" d="M405 315 L276 631 L147 315 L62 315 L218 694 L336 694 L490 315 L405 315 Z" /><glyph glyph-name="underscore" unicode="_" d="M0 -134 L500 -134 L500 -204 L0 -204 L0 -134 Z" /><glyph glyph-name="grave" unicode="`" d="M56 753 L167 753 L251 615 L181 615 L56 753 Z" /><glyph glyph-name="a" unicode="a" d="M305 550 Q369 550 410.5 537.5 Q452 525 476.5 503 Q501 481 510.5 450 Q520 419 520 383 L520 0 L447 0 L434 82 Q422 60 402 43 Q382 26 356.5 14 Q331 2 301 -4 Q271 -10 241 -10 Q144 -10 99.5 32 Q55 74 55 151 Q55 199 70.5 232 Q86 265 114 285 Q142 305 181.5 314 Q221 323 269 323 L434 323 L434 368 Q434 392 428.5 412.5 Q423 433 408.5 447.5 Q394 462 368 470 Q342 478 301 478 Q274 478 242.5 475 Q211 472 182 466 L182 542 Q212 546 244 548 Q276 550 305 550 ZM249 62 Q317 62 365 89.5 Q413 117 434 165 L434 254 L275 254 Q242 254 217 250 Q192 246 176 234.5 Q160 223 152 203 Q144 183 144 152 Q144 107 168 84.5 Q192 62 249 62 Z" /><glyph glyph-name="b" unicode="b" d="M352 550 Q420 550 463.5 529.5 Q507 509 531.5 472 Q556 435 565.5 383.5 Q575 332 575 270 Q575 214 565.5 163.5 Q556 113 531.5 74.5 Q507 36 463.5 13 Q420 -10 352 -10 Q273 -10 233.5 18 Q194 46 177 94 L166 0 L91 0 L91 760 L177 760 L177 443 Q194 491 234 520.5 Q274 550 352 550 ZM341 63 Q389 63 417.5 80.5 Q446 98 461 127 Q476 156 480.5 193.5 Q485 231 485 270 Q485 312 480 350 Q475 388 460 416.5 Q445 445 416.5 461.5 Q388 478 341 478 Q292 478 260 463.5 Q228 449 208.5 422 Q189 395 181 356.5 Q173 318 173 270 Q173 223 181 185 Q189 147 208.5 120 Q228 93 260 78 Q292 63 341 63 Z" /><glyph glyph-name="c" unicode="c" d="M309 -10 Q249 -10 202.5 3.5 Q156 17 124 49.5 Q92 82 75.5 135.5 Q59 189 59 270 Q59 351 75.5 404.5 Q92 458 124 490.5 Q156 523 202.5 536.5 Q249 550 309 550 Q354 550 390.5 544 Q427 538 450 530 L450 451 Q420 462 386 468.5 Q352 475 310 475 Q265 475 235 465 Q205 455 186 431.5 Q167 408 159 368.5 Q151 329 151 269 Q151 210 159 171 Q167 132 186 108.5 Q205 85 235.5 75.5 Q266 66 311 66 Q349 66 386 71.5 Q423 77 452 89 L452 10 Q441 6 424.5 2.5 Q408 -1 388.5 -4 Q369 -7 348.5 -8.5 Q328 -10 309 -10 Z" /><glyph glyph-name="d" unicode="d" d="M545 760 L545 0 L472 0 L459 89 Q443 46 400 18 Q357 -10 283 -10 Q216 -10 172.5 10.5 Q129 31 104 68 Q79 105 69.5 156.5 Q60 208 60 270 Q60 325 69.5 376 Q79 427 104 465.5 Q129 504 172.5 527 Q216 550 283 550 Q323 550 352 542.5 Q381 535 402 521.5 Q423 508 437 489 Q451 470 459 446 L459 760 L545 760 ZM296 63 Q345 63 377 77 Q409 91 428 118 Q447 145 454.5 183.5 Q462 222 462 270 Q462 316 454.5 354.5 Q447 393 428 420.5 Q409 448 377 463 Q345 478 296 478 Q247 478 218.5 460.5 Q190 443 175 413.5 Q160 384 156 346.5 Q152 309 152 270 Q152 228 156.5 190 Q161 152 176 124 Q191 96 219.5 79.5 Q248 63 296 63 Z" /><glyph glyph-name="e" unicode="e" d="M520 324 Q520 313 518.5 296.5 Q517 280 515 261 L149 238 Q149 194 158 161.5 Q167 129 187 108 Q207 87 240 76.5 Q273 66 322 66 Q367 66 413.5 76 Q460 86 491 101 L491 22 Q479 16 460 10 Q441 4 417 -0.5 Q393 -5 365.5 -7.5 Q338 -10 309 -10 Q249 -10 202.5 3.5 Q156 17 124 49.5 Q92 82 75.5 135.5 Q59 189 59 270 Q59 351 75.5 404.5 Q92 458 123.5 490.5 Q155 523 200.5 536.5 Q246 550 304 550 Q373 550 415.5 529.5 Q458 509 481 476.5 Q504 444 512 403.5 Q520 363 520 324 ZM435 323 Q435 354 431 382.5 Q427 411 413.5 432.5 Q400 454 374 466.5 Q348 479 304 479 Q257 479 227.5 467 Q198 455 181 432 Q164 409 157 376 Q150 343 149 302 L435 323 Z" /><glyph glyph-name="f" unicode="f" d="M290 695 Q262 695 244 688 Q226 681 215 663.5 Q204 646 199 616 Q194 586 194 540 L321 540 L321 469 L194 469 L194 0 L108 0 L108 469 L18 469 L18 540 L108 540 L108 545 Q108 615 121 658 Q134 701 158 724.5 Q182 748 215.5 756 Q249 764 290 764 Q305 764 320.5 762.5 Q336 761 350 759 L350 690 Q325 695 290 695 Z" /><glyph glyph-name="g" unicode="g" d="M545 540 L545 38 Q545 -74 481.5 -137 Q418 -200 281 -200 Q246 -200 211 -196 Q176 -192 150 -187 L150 -114 Q211 -126 282 -126 Q372 -126 415.5 -86 Q459 -46 459 47 L459 101 Q442 53 402 26.5 Q362 0 284 0 Q216 0 173 20 Q130 40 104.5 76 Q79 112 69.5 162.5 Q60 213 60 275 Q60 331 69.5 381 Q79 431 104.5 468.5 Q130 506 173 528 Q216 550 284 550 Q325 550 354.5 541.5 Q384 533 404.5 518.5 Q425 504 438 483.5 Q451 463 459 439 L459 540 L545 540 ZM296 72 Q345 72 377 85.5 Q409 99 428 125 Q447 151 454.5 189 Q462 227 462 275 Q462 321 454.5 359 Q447 397 428 423 Q409 449 377 463.5 Q345 478 296 478 Q247 478 218.5 461 Q190 444 175 416 Q160 388 156 351 Q152 314 152 275 Q152 233 156.5 196 Q161 159 176 131.5 Q191 104 219.5 88 Q248 72 296 72 Z" /><glyph glyph-name="h" unicode="h" d="M350 550 Q403 550 438 537 Q473 524 493.5 500.5 Q514 477 522.5 445 Q531 413 531 374 L531 0 L445 0 L445 342 Q445 373 441 397.5 Q437 422 425.5 438.5 Q414 455 393.5 464 Q373 473 341 473 Q315 473 290.5 469.5 Q266 466 244.5 454.5 Q223 443 205.5 422 Q188 401 177 365 L177 0 L91 0 L91 760 L177 760 L177 463 Q189 489 208.5 506 Q228 523 251 532.5 Q274 542 299.5 546 Q325 550 350 550 Z" /><glyph glyph-name="i" unicode="i" d="M135 639 Q106 639 94.5 648 Q83 657 83 690 Q83 724 94.5 732.5 Q106 741 135 741 Q162 741 174 732.5 Q186 724 186 690 Q186 657 174 648 Q162 639 135 639 ZM91 540 L177 540 L177 0 L91 0 L91 540 Z" /><glyph glyph-name="j" unicode="j" d="M135 639 Q106 639 94.5 648 Q83 657 83 690 Q83 724 94.5 732.5 Q106 741 135 741 Q162 741 174 732.5 Q186 724 186 690 Q186 657 174 648 Q162 639 135 639 ZM-7 -200 Q-23 -200 -38.5 -198.5 Q-54 -197 -70 -195 L-70 -124 Q-56 -126 -38 -127.5 Q-20 -129 -1 -129 Q28 -129 46 -122 Q64 -115 74 -98 Q84 -81 87.5 -53 Q91 -25 91 16 L91 540 L177 540 L177 7 Q177 -58 165.5 -98.5 Q154 -139 131 -161.5 Q108 -184 73.5 -192 Q39 -200 -7 -200 Z" /><glyph glyph-name="k" unicode="k" d="M514 0 L403 0 L206 252 L177 252 L177 0 L91 0 L91 760 L177 760 L177 319 L208 319 L395 540 L502 540 L275 289 L514 0 Z" /><glyph glyph-name="l" unicode="l" d="M211 -6 Q151 -6 121 21 Q91 48 91 109 L91 760 L177 760 L177 131 Q177 90 189 78 Q201 66 227 66 Q236 66 246.5 67 Q257 68 268 71 L268 0 Q256 -3 242.5 -4.5 Q229 -6 211 -6 Z" /><glyph glyph-name="m" unicode="m" d="M658 550 Q705 550 738.5 537 Q772 524 793.5 500.5 Q815 477 825 444.5 Q835 412 835 373 L835 0 L749 0 L749 342 Q749 405 727.5 439 Q706 473 645 473 Q621 473 599.5 469 Q578 465 560 454.5 Q542 444 528 425.5 Q514 407 505 378 L505 0 L419 0 L419 342 Q419 404 399 438.5 Q379 473 320 473 Q295 473 273 469.5 Q251 466 233 455.5 Q215 445 201 425.5 Q187 406 177 375 L177 0 L91 0 L91 540 L177 540 L177 469 Q202 517 243 533.5 Q284 550 333 550 Q397 550 435 526.5 Q473 503 490 462 Q502 488 520.5 505 Q539 522 561.5 532 Q584 542 608.5 546 Q633 550 658 550 Z" /><glyph glyph-name="n" unicode="n" d="M350 550 Q403 550 438 537 Q473 524 493.5 500.5 Q514 477 522.5 445 Q531 413 531 374 L531 0 L444 0 L444 342 Q444 373 440 397.5 Q436 422 424.5 438.5 Q413 455 393 464 Q373 473 341 473 Q315 473 290.5 469.5 Q266 466 244.5 454.5 Q223 443 205.5 422 Q188 401 177 365 L177 0 L91 0 L91 540 L177 540 L177 463 Q189 489 208.5 506 Q228 523 251 532.5 Q274 542 299.5 546 Q325 550 350 550 Z" /><glyph glyph-name="o" unicode="o" d="M309 -10 Q249 -10 202.5 3.5 Q156 17 124 49.5 Q92 82 75.5 135.5 Q59 189 59 270 Q59 351 75.5 404.5 Q92 458 124 490.5 Q156 523 202.5 536.5 Q249 550 309 550 Q369 550 415.5 536.5 Q462 523 493.5 490.5 Q525 458 541.5 404.5 Q558 351 558 270 Q558 189 541.5 135.5 Q525 82 493.5 49.5 Q462 17 415.5 3.5 Q369 -10 309 -10 ZM309 63 Q355 63 385.5 73 Q416 83 434 107 Q452 131 459.5 171 Q467 211 467 270 Q467 329 459 369 Q451 409 432.5 433 Q414 457 383.5 467.5 Q353 478 309 478 Q264 478 233.5 467.5 Q203 457 184.5 433 Q166 409 158.5 369 Q151 329 151 270 Q151 211 159 171 Q167 131 186 107 Q205 83 235 73 Q265 63 309 63 Z" /><glyph glyph-name="p" unicode="p" d="M352 550 Q420 550 463.5 529.5 Q507 509 531.5 472 Q556 435 565.5 383.5 Q575 332 575 270 Q575 214 565.5 163.5 Q556 113 531.5 74.5 Q507 36 463.5 13 Q420 -10 352 -10 Q273 -10 233.5 18 Q194 46 177 94 L177 -200 L91 -200 L91 540 L177 540 L177 443 Q194 491 234 520.5 Q274 550 352 550 ZM341 63 Q389 63 417.5 80.5 Q446 98 461 127 Q476 156 480.5 193.5 Q485 231 485 270 Q485 313 480 350.5 Q475 388 460 416.5 Q445 445 416.5 461.5 Q388 478 341 478 Q292 478 260 463.5 Q228 449 208.5 422 Q189 395 181 356.5 Q173 318 173 270 Q173 223 181 185 Q189 147 208.5 120 Q228 93 260 78 Q292 63 341 63 Z" /><glyph glyph-name="q" unicode="q" d="M546 540 L546 -200 L460 -200 L460 102 Q452 77 438.5 56.5 Q425 36 404 21 Q383 6 353 -2 Q323 -10 283 -10 Q216 -10 172.5 10.5 Q129 31 104 68 Q79 105 69.5 156.5 Q60 208 60 270 Q60 325 69.5 376 Q79 427 104 465.5 Q129 504 172.5 527 Q216 550 283 550 Q323 550 353 542.5 Q383 535 404 521 Q425 507 438.5 487 Q452 467 460 443 L460 540 L546 540 ZM296 63 Q345 63 377 77 Q409 91 428 118 Q447 145 454.5 183.5 Q462 222 462 270 Q462 316 454.5 354.5 Q447 393 428 420.5 Q409 448 377 463 Q345 478 296 478 Q247 478 218.5 460.5 Q190 443 175 413.5 Q160 384 156 346.5 Q152 309 152 270 Q152 228 156.5 190 Q161 152 176 124 Q191 96 219.5 79.5 Q248 63 296 63 Z" /><glyph glyph-name="r" unicode="r" d="M359 550 L356 472 L344 472 Q318 472 293 467 Q268 462 246 448.5 Q224 435 206 412 Q188 389 177 353 L177 0 L91 0 L91 540 L177 540 L177 442 Q190 476 209 497 Q228 518 251 530 Q274 542 299.5 546 Q325 550 349 550 L359 550 Z" /><glyph glyph-name="s" unicode="s" d="M216 -6 Q196 -6 173.5 -4.5 Q151 -3 129 -1 Q107 1 88.5 4.5 Q70 8 59 11 L59 85 Q73 81 92.5 77 Q112 73 133 70 Q154 67 175.5 65.5 Q197 64 215 64 Q277 64 308.5 81.5 Q340 99 340 147 Q340 171 335.5 186.5 Q331 202 318 212.5 Q305 223 281.5 231 Q258 239 219 248 Q174 258 145 271 Q116 284 99 302 Q82 320 75 345 Q68 370 68 404 Q68 470 116.5 510 Q165 550 262 550 Q301 550 339.5 545 Q378 540 398 532 L392 459 Q369 468 335 474 Q301 480 263 480 Q206 480 177.5 464 Q149 448 149 402 Q149 381 153.5 368 Q158 355 169 345.5 Q180 336 200 329.5 Q220 323 252 316 Q298 305 330.5 292.5 Q363 280 383 261.5 Q403 243 412 216 Q421 189 421 150 Q421 69 368.5 31.5 Q316 -6 216 -6 Z" /><glyph glyph-name="t" unicode="t" d="M259 66 Q277 66 290.5 67.5 Q304 69 318 72 L318 -1 Q302 -3 288 -4.5 Q274 -6 257 -6 Q212 -6 181.5 0.5 Q151 7 131.5 26 Q112 45 103.5 78.5 Q95 112 95 165 L95 468 L15 468 L15 540 L95 540 L95 668 L181 668 L181 540 L315 540 L315 468 L181 468 L181 170 Q181 138 184 118 Q187 98 195.5 86.5 Q204 75 219 70.5 Q234 66 259 66 Z" /><glyph glyph-name="u" unicode="u" d="M522 540 L522 0 L449 0 L438 78 Q426 51 407 34 Q388 17 365.5 7.5 Q343 -2 318 -6 Q293 -10 268 -10 Q215 -10 180 3 Q145 16 124.5 39 Q104 62 95.5 94.5 Q87 127 87 166 L87 540 L173 540 L173 198 Q173 167 177 142.5 Q181 118 192.5 101 Q204 84 224.5 75 Q245 66 277 66 Q302 66 326 69.5 Q350 73 370.5 84.5 Q391 96 407.5 117 Q424 138 436 173 L436 540 L522 540 Z" /><glyph glyph-name="v" unicode="v" d="M10 540 L97 540 L261 86 L267 86 L425 540 L516 540 L314 0 L212 0 L10 540 Z" /><glyph glyph-name="w" unicode="w" d="M22 540 L108 540 L222 87 L228 87 L362 540 L464 540 L602 87 L608 87 L722 540 L807 540 L657 0 L550 0 L416 443 L410 443 L275 0 L168 0 L22 540 Z" /><glyph glyph-name="x" unicode="x" d="M200 275 L25 540 L121 540 L257 327 L263 327 L397 540 L492 540 L318 277 L502 0 L404 0 L262 223 L256 223 L110 0 L14 0 L200 275 Z" /><glyph glyph-name="y" unicode="y" d="M67 -126 Q137 -126 171.5 -95 Q206 -64 226 1 L10 540 L103 540 L268 92 L274 92 L430 540 L517 540 L323 18 Q304 -33 284 -73 Q264 -113 235.5 -141.5 Q207 -170 167 -185 Q127 -200 67 -200 L67 -126 Z" /><glyph glyph-name="z" unicode="z" d="M44 70 L348 463 L348 469 L68 469 L68 540 L453 540 L453 475 L147 80 L147 74 L470 74 L470 0 L44 0 L44 70 Z" /><glyph glyph-name="braceleft" unicode="{" d="M265 -200 Q113 -200 113 -47 L113 179 Q113 214 99.5 227 Q86 240 49 240 L49 320 Q86 320 99.5 333 Q113 346 113 381 L113 607 Q113 760 265 760 L265 680 Q227 680 213.5 665.5 Q200 651 200 607 L200 381 Q200 342 187.5 318 Q175 294 150 280 Q175 266 187.5 242 Q200 218 200 179 L200 -47 Q200 -91 213.5 -105.5 Q227 -120 265 -120 L265 -200 Z" /><glyph glyph-name="bar" unicode="|" d="M50 760 L133 760 L133 -200 L50 -200 L50 760 Z" /><glyph glyph-name="braceright" unicode="}" d="M34 -120 Q72 -120 85.5 -105.5 Q99 -91 99 -47 L99 179 Q99 218 111.5 242 Q124 266 149 280 Q124 294 111.5 318 Q99 342 99 381 L99 607 Q99 651 85.5 665.5 Q72 680 34 680 L34 760 Q186 760 186 607 L186 381 Q186 346 200 333 Q214 320 250 320 L250 240 Q214 240 200 227 Q186 214 186 179 L186 -47 Q186 -200 34 -200 L34 -120 Z" /><glyph glyph-name="asciitilde" unicode="~" d="M387 216 Q340 216 307.5 233.5 Q275 251 253 267 Q230 284 211.5 294.5 Q193 305 166 305 Q140 305 125 285 Q110 265 106 221 L28 227 Q34 301 70 342.5 Q106 384 166 384 Q213 384 244.5 366.5 Q276 349 299 333 Q311 324 320.5 317 Q330 310 340 305 Q350 300 361.5 297.5 Q373 295 387 295 Q412 295 427 315 Q442 335 446 379 L524 373 Q518 299 482.5 257.5 Q447 216 387 216 Z" /><glyph glyph-name="periodcentered" unicode="·" d="M151 267 Q116 267 101.5 278 Q87 289 87 330 Q87 371 101.5 382 Q116 393 151 393 Q185 393 200 382 Q215 371 215 330 Q215 289 200 278 Q185 267 151 267 Z" /><glyph glyph-name="ellipsis" unicode="&#x2026;" d="M151 -6 Q116 -6 101.5 5 Q87 16 87 58 Q87 98 101.5 109 Q116 120 151 120 Q185 120 200 109 Q215 98 215 58 Q215 16 200 5 Q185 -6 151 -6 ZM453 -6 Q418 -6 403.5 5 Q389 16 389 58 Q389 98 403.5 109 Q418 120 453 120 Q487 120 501.5 109 Q516 98 516 58 Q516 16 501.5 5 Q487 -6 453 -6 ZM755 -6 Q720 -6 705.5 5 Q691 16 691 58 Q691 98 705.5 109 Q720 120 755 120 Q789 120 803.5 109 Q818 98 818 58 Q818 16 803.5 5 Q789 -6 755 -6 Z" /><glyph glyph-name="uniFF1A" unicode="&#xff1a;" d="M259 420 Q224 420 209.5 431 Q195 442 195 483 Q195 524 209.5 535 Q224 546 259 546 Q293 546 308 535 Q323 524 323 483 Q323 442 308 431 Q293 420 259 420 ZM259 -6 Q224 -6 209.5 5 Q195 16 195 58 Q195 98 209.5 109 Q224 120 259 120 Q293 120 308 109 Q323 98 323 58 Q323 16 308 5 Q293 -6 259 -6 Z" /><glyph glyph-name="uniFF0C" unicode="&#xff0c;" d="M136 -136 Q156 -105 173.5 -70.5 Q191 -36 203.5 -1.5 Q216 33 223 66 Q230 99 230 127 L313 127 Q313 95 303 58.5 Q293 22 278 -13 Q263 -48 244 -80 Q225 -112 207 -136 L136 -136 Z" /><glyph glyph-name="uniFF01" unicode="&#xff01;" d="M308 694 L293 202 L225 202 L210 694 L308 694 ZM258 -6 Q241 -6 229 -4 Q217 -2 209.5 5 Q202 12 198.5 24 Q195 36 195 57 Q195 77 198.5 89.5 Q202 102 209.5 108.5 Q217 115 229 117.5 Q241 120 258 120 Q292 120 307 108.5 Q322 97 322 57 Q322 16 307 5 Q292 -6 258 -6 Z" /><glyph glyph-name="uniFF1F" unicode="&#xff1f;" d="M218 243 Q218 262 222 279 Q226 296 236 313 Q246 330 263.5 348.5 Q281 367 308 389 Q331 407 345.5 421 Q360 435 368 449.5 Q376 464 379 480 Q382 496 382 518 Q382 549 375.5 569.5 Q369 590 354 601.5 Q339 613 314 617.5 Q289 622 252 622 Q217 622 177 616.5 Q137 611 108 600 L108 680 Q132 688 170.5 695 Q209 702 261 702 Q315 702 355 694 Q395 686 422 666 Q449 646 462 612 Q475 578 475 527 Q475 486 468 458.5 Q461 431 448 410.5 Q435 390 416.5 374 Q398 358 374 341 Q352 325 337 311.5 Q322 298 313 285.5 Q304 273 300.5 259.5 Q297 246 297 229 L297 199 L218 199 L218 243 ZM258 -6 Q241 -6 229 -4 Q217 -2 209.5 5 Q202 12 198.5 24 Q195 36 195 57 Q195 77 198.5 89.5 Q202 102 209.5 108.5 Q217 115 229 117.5 Q241 120 258 120 Q292 120 307 108.5 Q322 97 322 57 Q322 16 307 5 Q292 -6 258 -6 Z" /><glyph glyph-name="uniFF1B" unicode="&#xff1b;" d="M259 420 Q224 420 209.5 431 Q195 442 195 483 Q195 524 209.5 535 Q224 546 259 546 Q293 546 308 535 Q323 524 323 483 Q323 442 308 431 Q293 420 259 420 ZM136 -136 Q156 -105 173 -70.5 Q190 -36 203 -1.5 Q216 33 223 66 Q230 99 230 127 L312 127 Q312 95 302 58.5 Q292 22 277 -13 Q262 -48 243 -80 Q224 -112 206 -136 L136 -136 Z" /><glyph glyph-name="uni3010" unicode="&#x3010;" d="M605 770 L809 770 Q788 737 768.5 689 Q749 641 733 583.5 Q717 526 707.5 462 Q698 398 698 332 Q698 259 707.5 190.5 Q717 122 733 64 Q749 6 768.5 -39 Q788 -84 809 -110 L605 -110 L605 770 Z" /><glyph glyph-name="uni3011" unicode="&#x3011;" d="M175 -110 Q196 -84 215.5 -39 Q235 6 251 64 Q267 122 276.5 190.5 Q286 259 286 332 Q286 398 276.5 462 Q267 526 251 583.5 Q235 641 215.5 689 Q196 737 175 770 L379 770 L379 -110 L175 -110 Z" /><glyph glyph-name="uni300A" unicode="&#x300a;" d="M352 331 L527 770 L614 770 L439 331 L614 -110 L527 -110 L352 331 ZM552 331 L727 770 L814 770 L639 331 L814 -110 L727 -110 L552 331 Z" /><glyph glyph-name="uni300B" unicode="&#x300b;" d="M170 -110 L345 331 L170 770 L257 770 L432 331 L257 -110 L170 -110 ZM370 -110 L545 331 L370 770 L457 770 L632 331 L457 -110 L370 -110 Z" /><glyph glyph-name="uniFF08" unicode="&#xff08;" d="M719 -110 Q641 -7 606 101 Q571 209 571 324 Q571 446 607.5 555.5 Q644 665 722 770 L804 770 Q763 712 735 656.5 Q707 601 689.5 547 Q672 493 664.5 439.5 Q657 386 657 331 Q657 217 689.5 109.5 Q722 2 801 -110 L719 -110 Z" /><glyph glyph-name="uniFF09" unicode="&#xff09;" d="M183 -110 Q262 2 294.5 109.5 Q327 217 327 331 Q327 386 319.5 439.5 Q312 493 294.5 547 Q277 601 249 656.5 Q221 712 180 770 L262 770 Q340 665 376.5 555.5 Q413 446 413 324 Q413 209 378 101 Q343 -7 265 -110 L183 -110 Z" /><glyph glyph-name="emdash" unicode="&#x2014;" d="M982 341 L982 273 L-2 273 L-2 341 L982 341 Z" /><glyph glyph-name="quoteleft" unicode="&#x2018;" d="M65 504 Q65 531 71.5 564 Q78 597 89 631.5 Q100 666 113.5 699 Q127 732 141 760 L205 760 Q183 701 166.5 632 Q150 563 150 504 L65 504 Z" /><glyph glyph-name="quoteright" unicode="&#x2019;" d="M65 504 Q76 533 86 566 Q96 599 103.5 632.5 Q111 666 115.5 698.5 Q120 731 120 760 L205 760 Q205 733 198.5 700 Q192 667 181 632.5 Q170 598 156.5 565 Q143 532 129 504 L65 504 Z" /><glyph glyph-name="uni3001" unicode="&#x3001;" d="M306 -96 Q292 -72 272.5 -45 Q253 -18 231 7 Q209 32 186.5 53.5 Q164 75 145 90 L200 127 Q223 112 247 91.5 Q271 71 294 47 Q317 23 338 -3 Q359 -29 376 -54 L306 -96 Z" /><glyph glyph-name="uni3002" unicode="&#x3002;" d="M253 -111 Q226 -111 202 -103 Q178 -95 159.5 -79.5 Q141 -64 130.5 -40.5 Q120 -17 120 15 Q120 46 130.5 70 Q141 94 159.5 109.5 Q178 125 202 133 Q226 141 253 141 Q280 141 304 133 Q328 125 346.5 109.5 Q365 94 375.5 70 Q386 46 386 15 Q386 -17 375 -40.5 Q364 -64 346 -79.5 Q328 -95 304 -103 Q280 -111 253 -111 ZM253 -58 Q285 -58 306.5 -39.5 Q328 -21 328 15 Q328 51 306.5 69.5 Q285 88 253 88 Q221 88 199.5 69.5 Q178 51 178 15 Q178 -21 199.5 -39.5 Q221 -58 253 -58 Z" /><glyph glyph-name="uniFFE5" unicode="&#xffe5;" d="M692 390 L692 326 L534 326 L534 247 L692 247 L692 184 L534 184 L534 0 L450 0 L450 184 L293 184 L293 247 L450 247 L450 326 L293 326 L293 390 L421 390 L223 694 L322 694 L491 411 L498 411 L666 694 L761 694 L563 390 L692 390 Z" /><glyph glyph-name="uni4E00" unicode="&#x4e00;" d="M934 345 L50 345 L50 430 L934 430 L934 345 Z" /><glyph glyph-name="uni4E01" unicode="&#x4e01;" d="M920 656 L551 656 L551 46 Q551 12 544.5 -9.5 Q538 -31 522 -44.5 Q506 -58 479 -64.5 Q452 -71 412 -74 L314 -81 L287 1 L394 7 Q419 8 433.5 11 Q448 14 455 21.5 Q462 29 464 42 Q466 55 466 78 L467 656 L66 656 L66 734 L920 734 L920 656 Z" /><glyph glyph-name="uni4E03" unicode="&#x4e03;" d="M795 65 Q802 95 804 127 Q806 159 807 189 L882 160 Q879 122 875.5 85.5 Q872 49 864 13 Q856 -23 822.5 -39 Q789 -55 717 -59 Q612 -65 508 -59 Q466 -57 437 -50 Q408 -43 389.5 -27 Q371 -11 363 16 Q355 43 355 85 L355 391 L60 343 L49 421 L355 471 L355 798 L435 795 L435 484 L928 565 L937 487 L435 405 L435 98 Q435 73 438 58 Q441 43 449.5 34.5 Q458 26 474 22 Q490 18 517 17 Q609 11 701 17 Q725 18 741 20.5 Q757 23 768 27.5 Q779 32 785.5 41 Q792 50 795 65 Z" /><glyph glyph-name="uni4E07" unicode="&#x4e07;" d="M406 665 Q404 624 402.5 580.5 Q401 537 399 503 Q399 498 398.5 494.5 Q398 491 398 486 L804 486 Q803 474 801.5 444.5 Q800 415 797.5 377.5 Q795 340 792.5 297.5 Q790 255 787.5 217.5 Q785 180 783 151 Q781 122 780 110 Q776 60 767.5 29.5 Q759 -1 740 -18.5 Q721 -36 688.5 -44 Q656 -52 603 -56 L521 -63 L493 14 L579 20 Q613 22 635.5 26.5 Q658 31 671.5 43 Q685 55 691.5 77 Q698 99 701 136 Q702 152 704.5 191 Q707 230 710 273.5 Q713 317 715.5 356 Q718 395 719 411 L390 411 Q380 329 359.5 261.5 Q339 194 305 134 Q271 74 221 18 Q171 -38 101 -97 L40 -39 Q115 24 166 80 Q217 136 249.5 197.5 Q282 259 298 332.5 Q314 406 320 504 Q321 518 322 537 Q323 556 324 578 Q325 600 326 622.5 Q327 645 328 665 L79 665 L79 739 L919 739 L919 665 L406 665 Z" /><glyph glyph-name="uni4E08" unicode="&#x4e08;" d="M900 -86 Q828 -64 766 -41.5 Q704 -19 651.5 5 Q599 29 554.5 55.5 Q510 82 472 112 Q409 55 315.5 5.5 Q222 -44 88 -97 L49 -20 Q178 26 266.5 70 Q355 114 412 165 Q350 226 302.5 306 Q255 386 211 493 L282 523 Q321 423 363.5 349.5 Q406 276 463 220 Q508 280 526.5 353 Q545 426 547 524 L547 549 L76 549 L76 624 L548 624 L548 807 L627 804 L627 744 Q627 718 627 686 Q627 654 628 624 L905 624 L905 549 L628 549 L628 527 Q628 411 605 324 Q582 237 525 167 Q598 113 697.5 72.5 Q797 32 937 -7 L900 -86 Z" /><glyph glyph-name="uni4E09" unicode="&#x4e09;" d="M858 713 L858 636 L126 636 L126 713 L858 713 ZM803 409 L803 334 L182 334 L182 409 L803 409 ZM927 50 L927 -26 L57 -26 L57 50 L927 50 Z" /><glyph glyph-name="uni4E0A" unicode="&#x4e0a;" d="M939 24 L939 -48 L49 -48 L49 24 L430 24 L430 803 L508 799 L508 522 L873 522 L873 449 L508 449 L508 24 L939 24 Z" /><glyph glyph-name="uni4E0B" unicode="&#x4e0b;" d="M926 732 L926 657 L508 657 L508 -95 L428 -95 L428 657 L58 657 L58 732 L926 732 ZM573 520 Q604 497 643.5 466 Q683 435 722 402 Q761 369 796 337 Q831 305 854 281 L806 211 Q779 241 742.5 276 Q706 311 667.5 345.5 Q629 380 592 411 Q555 442 525 463 L573 520 Z" /><glyph glyph-name="uni4E0D" unicode="&#x4e0d;" d="M594 661 Q542 565 480 479 L531 476 L531 -100 L454 -100 L454 444 Q384 353 297.5 270 Q211 187 103 109 L47 172 Q206 280 317 402 Q428 524 503 661 L99 661 L99 737 L889 737 L889 661 L594 661 ZM620 463 Q655 436 697 400.5 Q739 365 781.5 327 Q824 289 862.5 251.5 Q901 214 929 182 L873 114 Q844 149 805 189.5 Q766 230 725 270 Q684 310 643.5 345.5 Q603 381 570 407 L620 463 Z" /><glyph glyph-name="uni4E0E" unicode="&#x4e0e;" d="M301 591 L290 433 L838 433 Q837 425 835.5 397.5 Q834 370 832 333 Q830 296 827.5 254.5 Q825 213 823 176.5 Q821 140 819 113.5 Q817 87 817 81 Q813 33 804 2.5 Q795 -28 776 -45 Q757 -62 726.5 -69 Q696 -76 649 -79 L526 -86 L500 -10 L626 -4 Q659 -3 679.5 1 Q700 5 712 16 Q724 27 729.5 47 Q735 67 738 102 Q738 108 739.5 127 Q741 146 743 172 Q745 198 747 227 Q749 256 750.5 282.5 Q752 309 753.5 329 Q755 349 755 356 L206 356 L237 794 L316 791 L307 665 L890 665 L890 591 L301 591 ZM687 141 L45 141 L45 215 L687 215 L687 141 Z" /><glyph glyph-name="uni4E10" unicode="&#x4e10;" d="M520 675 L520 537 L866 537 L866 467 L520 467 L520 332 L841 332 Q840 321 837.5 285 Q835 249 831.5 206.5 Q828 164 825 125 Q822 86 820 70 Q816 32 805 6.5 Q794 -19 773.5 -35 Q753 -51 722 -59 Q691 -67 648 -70 L514 -79 L490 -7 L637 1 Q668 3 687 8 Q706 13 717.5 24 Q729 35 735 53 Q741 71 744 98 Q745 107 747.5 130 Q750 153 752.5 178.5 Q755 204 757 227.5 Q759 251 759 262 L138 262 L167 606 L243 603 L221 332 L445 332 L445 675 L62 675 L62 744 L917 744 L917 675 L520 675 Z" /><glyph glyph-name="uni4E11" unicode="&#x4e11;" d="M934 28 L934 -44 L49 -44 L49 28 L277 28 L313 334 L126 334 L126 408 L321 408 L351 666 L128 666 L128 741 L812 741 L775 28 L934 28 ZM398 408 L714 408 L728 666 L428 666 L398 408 ZM354 28 L693 28 L710 334 L390 334 L354 28 Z" /><glyph glyph-name="uni4E13" unicode="&#x4e13;" d="M381 421 Q370 391 357.5 362.5 Q345 334 332 307 L797 307 L797 231 Q747 171 700 124 Q653 77 608 36 Q657 17 702 -1 Q747 -19 788 -36 L762 -113 Q695 -83 621.5 -52.5 Q548 -22 474 7 Q400 36 329 62 Q258 88 197 109 L225 177 Q288 156 365.5 128 Q443 100 524 69 Q547 87 571.5 108.5 Q596 130 619.5 152 Q643 174 663 195.5 Q683 217 698 235 L239 235 L239 297 Q254 325 268 356 Q282 387 296 421 L56 421 L56 493 L323 493 Q334 523 344 554 Q354 585 363 617 L136 617 L136 689 L384 689 Q392 721 399.5 752.5 Q407 784 414 814 L494 800 Q482 746 467 689 L848 689 L848 617 L447 617 Q438 585 428.5 554.5 Q419 524 408 493 L928 493 L928 421 L381 421 Z" /><glyph glyph-name="uni4E14" unicode="&#x4e14;" d="M940 17 L940 -55 L44 -55 L44 17 L201 17 L201 757 L783 757 L783 17 L940 17 ZM277 683 L277 515 L706 515 L706 683 L277 683 ZM706 443 L277 443 L277 271 L706 271 L706 443 ZM277 17 L706 17 L706 198 L277 198 L277 17 Z" /><glyph glyph-name="uni4E16" unicode="&#x4e16;" d="M421 180 L421 496 L257 496 L257 27 L906 27 L906 -46 L180 -46 L180 496 L42 496 L42 570 L180 570 L180 778 L257 775 L257 570 L421 570 L421 802 L495 799 L495 570 L703 570 L703 803 L779 800 L779 570 L941 570 L941 496 L779 496 L779 180 L421 180 ZM495 496 L495 252 L703 252 L703 496 L495 496 Z" /><glyph glyph-name="uni4E18" unicode="&#x4e18;" d="M936 32 L936 -37 L49 -37 L49 32 L212 32 L212 709 Q275 712 346 718 Q417 724 493.5 733.5 Q570 743 649.5 756 Q729 769 809 787 L830 714 Q761 698 687.5 685.5 Q614 673 543 664 Q472 655 407.5 648.5 Q343 642 292 638 L292 443 L887 443 L887 373 L692 373 L692 32 L936 32 ZM292 32 L611 32 L611 373 L292 373 L292 32 Z" /><glyph glyph-name="uni4E19" unicode="&#x4e19;" d="M529 668 Q529 638 528.5 601 Q528 564 528 536 L846 536 L846 42 Q846 4 839 -20.5 Q832 -45 814.5 -60 Q797 -75 766.5 -82.5 Q736 -90 690 -93 L629 -97 L601 -18 L679 -14 Q709 -13 727 -8.5 Q745 -4 754.5 5 Q764 14 767.5 29.5 Q771 45 771 70 L771 464 L525 464 Q524 444 521.5 425 Q519 406 515 388 Q543 368 576.5 340.5 Q610 313 643.5 283.5 Q677 254 707 226 Q737 198 758 176 L710 105 Q692 127 665.5 154 Q639 181 609.5 209.5 Q580 238 549 265 Q518 292 491 314 Q465 256 413 203 Q361 150 276 91 L216 155 L216 -94 L141 -94 L141 536 L453 536 Q454 562 454 599.5 Q454 637 454 668 L57 668 L57 741 L926 741 L926 668 L529 668 ZM216 157 Q280 197 323 232 Q366 267 392.5 302.5 Q419 338 432 377 Q445 416 450 464 L216 464 L216 157 Z" /><glyph glyph-name="uni4E1A" unicode="&#x4e1a;" d="M933 24 L933 -46 L55 -46 L55 24 L349 24 L349 793 L427 790 L427 24 L562 24 L562 795 L643 792 L643 24 L933 24 ZM894 609 Q880 562 863 508.5 Q846 455 826.5 400 Q807 345 785.5 291.5 Q764 238 741 190 L667 219 Q690 263 712.5 315.5 Q735 368 755 423 Q775 478 791.5 531.5 Q808 585 820 632 L894 609 ZM239 193 Q225 242 207 297 Q189 352 168.5 406.5 Q148 461 126.5 510 Q105 559 86 596 L157 625 Q173 593 195.5 542.5 Q218 492 240.5 435.5 Q263 379 283 323.5 Q303 268 315 227 L239 193 Z" /><glyph glyph-name="uni4E1B" unicode="&#x4e1b;" d="M325 481 Q311 422 290.5 370 Q270 318 242.5 268.5 Q215 219 179.5 170 Q144 121 102 68 L43 117 Q103 186 145.5 246.5 Q188 307 215.5 372.5 Q243 438 258 515 Q273 592 278 694 Q278 698 278.5 712.5 Q279 727 279.5 744 Q280 761 280.5 776 Q281 791 281 796 L354 793 Q354 788 353.5 774 Q353 760 352.5 743.5 Q352 727 351 712.5 Q350 698 350 694 Q349 631 341 575 Q360 554 382 525 Q404 496 426 465 Q448 434 467 403.5 Q486 373 499 351 L443 295 Q434 314 420 337.5 Q406 361 390.5 385.5 Q375 410 358 434.5 Q341 459 325 481 ZM346 108 Q422 179 470 243.5 Q518 308 545 379 Q572 450 582 533.5 Q592 617 594 726 Q594 730 594.5 739 Q595 748 595.5 758.5 Q596 769 596 779 Q596 789 596 796 L671 793 Q671 786 670.5 775.5 Q670 765 669.5 755.5 Q669 746 668.5 738 Q668 730 668 727 Q668 719 668 710.5 Q668 702 667 694 Q670 601 688.5 522 Q707 443 741.5 374 Q776 305 825.5 243 Q875 181 940 122 L876 63 Q801 142 738.5 240 Q676 338 641 460 Q628 401 608 349 Q588 297 559 248.5 Q530 200 491.5 153.5 Q453 107 405 59 L346 108 ZM98 21 L881 21 L881 -50 L98 -50 L98 21 Z" /><glyph glyph-name="uni4E1C" unicode="&#x4e1c;" d="M549 302 L549 22 Q549 -11 544 -31 Q539 -51 527 -62 Q515 -73 494.5 -78.5 Q474 -84 443 -87 L370 -93 L344 -18 L418 -12 Q437 -11 448 -8 Q459 -5 465 1 Q471 7 472.5 18.5 Q474 30 474 49 L474 302 L156 302 L156 376 Q194 430 230.5 486 Q267 542 300 602 L76 602 L76 672 L337 672 Q355 707 371.5 742.5 Q388 778 402 814 L473 784 Q462 757 448.5 729 Q435 701 421 672 L902 672 L902 602 L384 602 Q348 534 311 473.5 Q274 413 242 371 L474 371 L474 542 L549 539 L549 371 L850 371 L850 302 L549 302 ZM691 247 Q714 228 747.5 198.5 Q781 169 816.5 135.5 Q852 102 885.5 68 Q919 34 942 7 L890 -51 Q864 -20 830.5 15.5 Q797 51 762.5 85.5 Q728 120 696 149.5 Q664 179 641 198 L691 247 ZM27 1 Q105 55 168 116.5 Q231 178 282 243 L340 194 Q284 125 222.5 63.5 Q161 2 82 -58 L27 1 Z" /><glyph glyph-name="uni4E1D" unicode="&#x4e1d;" d="M149 428 Q138 428 126.5 426.5 Q115 425 98 422 L81 491 Q101 496 108.5 501.5 Q116 507 123 515 Q139 533 162.5 567 Q186 601 210.5 642.5 Q235 684 258.5 726.5 Q282 769 298 803 L364 771 Q350 741 328 702.5 Q306 664 282 625 Q258 586 234.5 552 Q211 518 195 498 Q201 498 219 498.5 Q237 499 260.5 499.5 Q284 500 308 500.5 Q332 501 350 501 Q375 539 398 577 Q421 615 439 648 L499 616 Q484 587 463 552 Q442 517 418.5 480 Q395 443 371 406.5 Q347 370 324 338 Q301 306 281.5 280.5 Q262 255 249 240 Q260 240 290.5 242 Q321 244 354.5 246 Q388 248 416.5 250 Q445 252 453 253 L451 179 Q443 179 423.5 178 Q404 177 378.5 175.5 Q353 174 324 172.5 Q295 171 269 169.5 Q243 168 222 166.5 Q201 165 191 164 Q175 162 163.5 160.5 Q152 159 132 155 L116 227 Q139 232 148.5 236.5 Q158 241 168 250 Q177 258 191 275.5 Q205 293 223 317 Q241 341 262 370.5 Q283 400 305 432 Q285 432 261 431.5 Q237 431 214.5 430 Q192 429 174.5 428.5 Q157 428 149 428 ZM461 488 Q481 495 489 500.5 Q497 506 504 514 Q518 530 541 564.5 Q564 599 589.5 640 Q615 681 639 724.5 Q663 768 680 802 L744 770 Q729 740 706 700.5 Q683 661 659 622.5 Q635 584 612.5 550 Q590 516 574 497 Q580 497 599.5 497 Q619 497 643 497.5 Q667 498 692 498.5 Q717 499 736 500 Q762 538 784.5 574 Q807 610 824 641 L883 607 Q860 566 825.5 512 Q791 458 753.5 405.5 Q716 353 681 307.5 Q646 262 623 237 Q633 238 655.5 239.5 Q678 241 705 243 Q732 245 761.5 247 Q791 249 816 251 Q841 253 859 254.5 Q877 256 882 256 L880 183 Q871 182 847.5 181 Q824 180 792.5 178 Q761 176 726 173.5 Q691 171 659.5 169 Q628 167 602.5 165 Q577 163 566 162 Q549 161 535 160 Q521 159 502 155 L490 225 Q513 230 522.5 234.5 Q532 239 542 247 Q554 258 570 276.5 Q586 295 605.5 319.5 Q625 344 646 372.5 Q667 401 689 432 Q668 432 643 431.5 Q618 431 595 430 Q572 429 554.5 428.5 Q537 428 530 428 Q510 427 480 421 L461 488 ZM936 11 L936 -59 L47 -59 L47 11 L936 11 Z" /><glyph glyph-name="uni4E22" unicode="&#x4e22;" d="M470 230 Q447 201 421 172 Q395 143 369 115.5 Q343 88 317.5 64 Q292 40 270 21 Q293 21 346 23.5 Q399 26 462.5 28.5 Q526 31 589.5 34 Q653 37 696 39 Q664 74 633.5 104.5 Q603 135 580 155 L630 205 Q654 183 687.5 149.5 Q721 116 755.5 79.5 Q790 43 821.5 7 Q853 -29 873 -55 L821 -114 Q796 -77 758 -31 Q740 -32 704.5 -33.5 Q669 -35 624 -36.5 Q579 -38 527.5 -40.5 Q476 -43 425.5 -45.5 Q375 -48 329 -50.5 Q283 -53 249 -56 Q220 -58 198.5 -60.5 Q177 -63 142 -68 L120 12 Q149 17 162.5 23 Q176 29 190 40 Q208 55 232 76.5 Q256 98 281 123.5 Q306 149 331.5 176.5 Q357 204 378 230 L65 230 L65 304 L459 304 L459 446 L148 446 L148 514 L459 514 L459 646 Q369 639 286 634.5 Q203 630 138 628 L121 700 Q170 701 229.5 704.5 Q289 708 353 712 Q417 716 483.5 721.5 Q550 727 613 733 Q676 739 733.5 746 Q791 753 838 761 L854 690 Q789 679 704 669.5 Q619 660 528 652 L528 514 L837 514 L837 446 L528 446 L528 304 L920 304 L920 230 L470 230 Z" /><glyph glyph-name="uni4E24" unicode="&#x4e24;" d="M634 686 Q633 659 633 620.5 Q633 582 632 550 L849 550 L849 48 Q849 14 842.5 -8 Q836 -30 820.5 -44 Q805 -58 778 -64.5 Q751 -71 710 -73 L656 -77 L632 -4 L700 0 Q725 1 740.5 4.5 Q756 8 763.5 15.5 Q771 23 773.5 35 Q776 47 776 65 L776 481 L630 481 Q628 449 625 419 Q622 389 617 360 Q635 342 657 317.5 Q679 293 701.5 266.5 Q724 240 743.5 214.5 Q763 189 776 170 L724 115 Q714 133 699 154 Q684 175 667 197.5 Q650 220 632 242 Q614 264 597 283 Q576 214 540 150 Q504 86 450 21 L392 58 Q433 107 463.5 154 Q494 201 514.5 251.5 Q535 302 546 358.5 Q557 415 560 481 L397 481 Q396 428 388 383 Q401 369 416.5 351.5 Q432 334 447 316.5 Q462 299 474.5 282.5 Q487 266 496 254 L444 197 Q433 220 411.5 248.5 Q390 277 368 303 Q349 248 317.5 196.5 Q286 145 238 85 L183 125 L183 -73 L114 -73 L114 550 L330 550 Q330 564 330.5 581.5 Q331 599 331 617.5 Q331 636 331.5 653.5 Q332 671 332 686 L48 686 L48 756 L913 756 L913 686 L634 686 ZM562 550 Q562 565 562 582.5 Q562 600 562.5 618.5 Q563 637 563.5 654.5 Q564 672 564 686 L402 686 L399 550 L562 550 ZM183 135 Q220 180 245.5 217.5 Q271 255 287.5 293.5 Q304 332 313 376.5 Q322 421 327 481 L183 481 L183 135 Z" /><glyph glyph-name="uni4E25" unicode="&#x4e25;" d="M926 682 L646 682 L646 420 L921 420 L921 354 L224 354 L224 255 Q224 196 217 149.5 Q210 103 195 61.5 Q180 20 156 -21 Q132 -62 98 -109 L34 -74 Q67 -31 89.5 6.5 Q112 44 126 83 Q140 122 146.5 167.5 Q153 213 153 273 L153 420 L370 420 L370 682 L79 682 L79 749 L926 749 L926 682 ZM571 682 L446 682 L446 420 L571 420 L571 682 ZM264 433 Q252 453 233.5 477.5 Q215 502 194.5 526.5 Q174 551 154 572.5 Q134 594 119 608 L169 656 Q184 643 204.5 622 Q225 601 246 578 Q267 555 286 532 Q305 509 317 493 L264 433 ZM692 491 Q707 503 727.5 523.5 Q748 544 768.5 567.5 Q789 591 807.5 614 Q826 637 838 655 L893 608 Q881 590 862 566.5 Q843 543 822 519.5 Q801 496 780 475 Q759 454 743 441 L692 491 Z" /><glyph glyph-name="uni4E27" unicode="&#x4e27;" d="M282 327 L282 12 Q300 18 335.5 29 Q371 40 408.5 51.5 Q446 63 478.5 73 Q511 83 523 87 L529 10 Q520 8 500 2.5 Q480 -3 454 -10.5 Q428 -18 399.5 -26.5 Q371 -35 346 -43 Q321 -51 301.5 -57 Q282 -63 275 -65 Q260 -70 242.5 -77 Q225 -84 204 -95 L175 -26 Q197 -10 202 -2 Q207 6 207 21 L207 327 L59 327 L59 397 L455 397 L455 626 L92 626 L92 693 L455 693 L455 807 L530 803 L530 693 L891 693 L891 626 L530 626 L530 397 L928 397 L928 327 L463 327 Q512 234 581 170 Q647 204 700.5 238 Q754 272 802 308 L841 247 Q801 217 750.5 185.5 Q700 154 641 123 Q700 83 775 54.5 Q850 26 948 5 L918 -68 Q813 -42 731 -8 Q649 26 584.5 73.5 Q520 121 470.5 183 Q421 245 381 327 L282 327 ZM612 458 Q627 470 647.5 490.5 Q668 511 688.5 534 Q709 557 727.5 580 Q746 603 758 620 L813 572 Q801 554 782 531 Q763 508 742 484.5 Q721 461 700 440 Q679 419 663 407 L612 458 ZM314 399 Q302 418 283.5 442.5 Q265 467 244.5 491 Q224 515 204 536.5 Q184 558 169 572 L223 619 Q238 606 258.5 585.5 Q279 565 300 542 Q321 519 340 496.5 Q359 474 371 458 L314 399 Z" /><glyph glyph-name="uni4E2A" unicode="&#x4e2a;" d="M29 400 Q98 440 161 488 Q224 536 278.5 587.5 Q333 639 378.5 693 Q424 747 458 800 L527 800 Q603 686 709 587.5 Q815 489 953 405 L897 335 Q845 372 789 417 Q733 462 679 511 Q625 560 577 612 Q529 664 493 717 Q418 608 311.5 511 Q205 414 83 333 L29 400 ZM533 485 L533 -101 L452 -101 L452 489 L533 485 Z" /><glyph glyph-name="uni4E2D" unicode="&#x4e2d;" d="M866 194 L530 194 L530 -100 L450 -100 L450 194 L117 194 L117 617 L450 617 L450 811 L530 807 L530 617 L866 617 L866 194 ZM450 268 L450 543 L195 543 L195 268 L450 268 ZM789 543 L530 543 L530 268 L789 268 L789 543 Z" /><glyph glyph-name="uni4E30" unicode="&#x4e30;" d="M923 123 L530 123 L530 -104 L453 -104 L453 123 L58 123 L58 198 L453 198 L453 363 L150 363 L150 435 L453 435 L453 586 L104 586 L104 658 L453 658 L453 801 L530 798 L530 658 L877 658 L877 586 L530 586 L530 435 L831 435 L831 363 L530 363 L530 198 L923 198 L923 123 Z" /><glyph glyph-name="uni4E32" unicode="&#x4e32;" d="M869 43 L530 43 L530 -104 L456 -104 L456 43 L116 43 L116 341 L456 341 L456 438 L160 438 L160 697 L456 697 L456 804 L530 800 L530 697 L825 697 L825 438 L530 438 L530 341 L869 341 L869 43 ZM456 501 L456 635 L234 635 L234 501 L456 501 ZM530 635 L530 501 L752 501 L752 635 L530 635 ZM456 110 L456 276 L191 276 L191 110 L456 110 ZM794 276 L530 276 L530 110 L794 110 L794 276 Z" /><glyph glyph-name="uni4E34" unicode="&#x4e34;" d="M934 682 L934 608 L545 608 Q519 555 490 506 Q461 457 430 413 L366 462 Q395 501 422.5 545.5 Q450 590 473 636 Q496 682 515 728.5 Q534 775 547 819 L626 803 Q616 773 604.5 742.5 Q593 712 580 682 L934 682 ZM262 798 L337 795 L337 -93 L262 -93 L262 798 ZM102 714 L176 712 L176 3 L102 3 L102 714 ZM733 397 Q722 415 705.5 438 Q689 461 670 483.5 Q651 506 632 526 Q613 546 599 559 L650 605 Q664 593 683 573 Q702 553 721 531.5 Q740 510 757 488.5 Q774 467 785 452 L733 397 ZM440 391 L880 391 L880 -84 L810 -84 L810 -21 L509 -21 L509 -84 L440 -84 L440 391 ZM509 325 L509 45 L625 45 L625 325 L509 325 ZM810 325 L691 325 L691 45 L810 45 L810 325 Z" /><glyph glyph-name="uni4E38" unicode="&#x4e38;" d="M920 156 Q918 118 914.5 79.5 Q911 41 903 4 Q895 -32 870.5 -48.5 Q846 -65 790 -70 Q753 -73 716 -70 Q690 -68 671 -62.5 Q652 -57 640 -45 Q628 -33 622 -12 Q616 9 616 42 L616 546 L393 546 L393 538 Q391 472 387 418.5 Q383 365 376 320 Q431 291 480 261.5 Q529 232 563 209 L526 128 Q495 153 452 182 Q409 211 360 240 Q347 191 326.5 150 Q306 109 275.5 69.5 Q245 30 202.5 -10 Q160 -50 103 -97 L46 -39 Q100 3 141 39.5 Q182 76 211.5 113 Q241 150 260.5 189.5 Q280 229 292 279 Q236 310 184 335.5 Q132 361 94 376 L128 438 Q163 424 209 403.5 Q255 383 306 357 Q311 395 313.5 439.5 Q316 484 318 538 L318 546 L70 546 L70 619 L320 619 Q321 648 321.5 678 Q322 708 322.5 733.5 Q323 759 323 777.5 Q323 796 323 802 L399 799 Q399 790 398.5 771.5 Q398 753 397.5 728.5 Q397 704 396.5 675.5 Q396 647 395 619 L686 619 L686 54 Q686 25 696 15.5 Q706 6 732 3 Q755 0 779 3 Q807 7 820.5 15.5 Q834 24 839 54 Q844 85 846.5 117.5 Q849 150 850 181 L920 156 Z" /><glyph glyph-name="uni4E39" unicode="&#x4e39;" d="M934 284 L774 284 L774 46 Q774 8 768 -17 Q762 -42 745 -57.5 Q728 -73 698 -80.5 Q668 -88 620 -91 L557 -95 L531 -19 L612 -15 Q642 -14 659.5 -10 Q677 -6 686 3 Q695 12 697.5 27.5 Q700 43 700 68 L700 284 L303 284 Q300 221 291.5 172.5 Q283 124 265.5 80 Q248 36 219.5 -9.5 Q191 -55 149 -110 L84 -69 Q126 -19 153 20.5 Q180 60 196 99.5 Q212 139 219 182.5 Q226 226 228 284 L50 284 L50 358 L229 358 L229 752 L774 752 L774 358 L934 358 L934 284 ZM700 358 L700 681 L304 681 L304 358 L700 358 ZM447 632 Q464 617 486.5 595 Q509 573 532.5 548 Q556 523 576.5 499 Q597 475 611 457 L555 399 Q542 419 521 445 Q500 471 477 496.5 Q454 522 431.5 545 Q409 568 393 583 L447 632 Z" /><glyph glyph-name="uni4E3A" unicode="&#x4e3a;" d="M862 575 Q861 557 859 519.5 Q857 482 854.5 433.5 Q852 385 849.5 331 Q847 277 844 226 Q841 175 838.5 132 Q836 89 835 63 Q833 26 822.5 1.5 Q812 -23 789.5 -38.5 Q767 -54 731 -61.5 Q695 -69 641 -72 L569 -76 L536 3 L636 7 Q673 8 696.5 12.5 Q720 17 734 27 Q748 37 754 54 Q760 71 763 99 Q765 119 767.5 152.5 Q770 186 772 225 Q774 264 776 306 Q778 348 780 385.5 Q782 423 783 453 Q784 483 784 499 L492 499 Q479 401 453 321 Q427 241 384 171 Q341 101 278 36.5 Q215 -28 127 -95 L70 -34 Q152 27 211.5 85 Q271 143 312 205.5 Q353 268 377.5 339.5 Q402 411 414 499 L89 499 L89 575 L423 575 Q425 592 427.5 623.5 Q430 655 432.5 688.5 Q435 722 437.5 753 Q440 784 441 800 L516 797 Q516 781 514 751.5 Q512 722 509.5 689 Q507 656 504.5 624.5 Q502 593 500 575 L862 575 ZM300 587 Q289 605 271.5 628 Q254 651 235 673.5 Q216 696 197 716 Q178 736 163 749 L216 796 Q230 784 249.5 765 Q269 746 288.5 724.5 Q308 703 325.5 681.5 Q343 660 354 645 L300 587 ZM643 169 Q632 190 613 216 Q594 242 572 268 Q550 294 528 316.5 Q506 339 490 354 L543 404 Q561 390 583 368 Q605 346 627 321.5 Q649 297 668 273 Q687 249 698 231 L643 169 Z" /><glyph glyph-name="uni4E3B" unicode="&#x4e3b;" d="M934 21 L934 -52 L50 -52 L50 21 L452 21 L452 271 L133 271 L133 346 L452 346 L452 559 L92 559 L92 633 L460 633 Q454 652 447 675.5 Q440 699 432.5 721 Q425 743 419 760.5 Q413 778 409 787 L484 806 Q489 795 497 773 Q505 751 513 725 Q521 699 528 674 Q535 649 540 633 L892 633 L892 559 L531 559 L531 346 L851 346 L851 271 L531 271 L531 21 L934 21 Z" /><glyph glyph-name="uni4E3D" unicode="&#x4e3d;" d="M936 749 L936 679 L52 679 L52 749 L936 749 ZM442 11 Q442 -17 437 -34.5 Q432 -52 419.5 -62.5 Q407 -73 385.5 -78 Q364 -83 330 -87 L286 -92 L266 -21 L317 -17 Q336 -16 347 -13 Q358 -10 364 -4 Q370 2 371.5 12.5 Q373 23 373 40 L373 495 L188 495 L188 -83 L121 -83 L121 568 L442 568 L442 11 ZM862 11 Q862 -17 857.5 -34.5 Q853 -52 840 -62.5 Q827 -73 805 -78.5 Q783 -84 749 -87 L704 -91 L683 -21 L736 -17 Q757 -16 768.5 -13 Q780 -10 785.5 -4 Q791 2 792.5 12.5 Q794 23 794 40 L794 495 L600 495 L600 -83 L533 -83 L533 568 L862 568 L862 11 ZM249 395 Q261 378 277.5 352.5 Q294 327 310 299 Q326 271 340.5 244 Q355 217 363 198 L311 158 Q303 180 289.5 208.5 Q276 237 260 266 Q244 295 228 321.5 Q212 348 200 365 L249 395 ZM662 395 Q675 378 692.5 353 Q710 328 727 300.5 Q744 273 759 246 Q774 219 783 200 L732 157 Q723 179 708 207 Q693 235 676 263.5 Q659 292 642.5 318 Q626 344 613 361 L662 395 Z" /><glyph glyph-name="uni4E3E" unicode="&#x4e3e;" d="M498 607 Q492 626 481.5 651 Q471 676 459 700.5 Q447 725 434.5 748 Q422 771 412 786 L476 815 Q486 800 498.5 777.5 Q511 755 523.5 730.5 Q536 706 547 682.5 Q558 659 564 642 L498 607 ZM270 602 Q261 621 247 645.5 Q233 670 218 693.5 Q203 717 188 738 Q173 759 163 773 L224 804 Q233 792 247.5 772 Q262 752 277.5 729 Q293 706 308.5 683.5 Q324 661 334 645 L270 602 ZM407 526 Q377 472 336.5 425 Q296 378 248 336 L455 336 L455 472 L529 470 L529 336 L742 336 L742 267 L529 267 L529 141 L889 141 L889 73 L529 73 L529 -102 L455 -102 L455 73 L93 73 L93 141 L455 141 L455 267 L240 267 L240 329 Q160 261 66 209 L28 270 Q125 321 201.5 384.5 Q278 448 326 526 L70 526 L70 595 L636 595 Q650 614 667 641.5 Q684 669 700.5 698 Q717 727 731.5 754.5 Q746 782 755 803 L827 779 Q819 761 806.5 737.5 Q794 714 779 689 Q764 664 748.5 640 Q733 616 718 595 L914 595 L914 526 L660 526 Q708 449 779.5 389 Q851 329 955 277 L918 216 Q872 244 823.5 278 Q775 312 730 351.5 Q685 391 646.5 435 Q608 479 581 526 L407 526 Z" /><glyph glyph-name="uni4E43" unicode="&#x4e43;" d="M864 449 Q864 442 862 413 Q860 384 857 344 Q854 304 850.5 258.5 Q847 213 844 173 Q841 133 839 103.5 Q837 74 836 67 Q833 27 822.5 1 Q812 -25 789.5 -40.5 Q767 -56 730 -63 Q693 -70 637 -73 L559 -77 L533 0 L634 4 Q672 5 695.5 10 Q719 15 732.5 25 Q746 35 751.5 52 Q757 69 759 96 Q760 107 762 128.5 Q764 150 766.5 177.5 Q769 205 771.5 235 Q774 265 776 292.5 Q778 320 779.5 342 Q781 364 782 375 L590 375 L590 443 Q616 494 636.5 548 Q657 602 674 659 L373 659 Q372 621 370 581.5 Q368 542 366 507 Q358 400 338 314 Q318 228 286 155.5 Q254 83 208 19 Q162 -45 101 -108 L35 -51 Q93 7 138 63.5 Q183 120 214 185 Q245 250 263.5 328 Q282 406 288 508 Q294 578 294 659 L85 659 L85 734 L756 734 L756 658 Q739 603 719 551 Q699 499 674 449 L864 449 Z" /><glyph glyph-name="uni4E45" unicode="&#x4e45;" d="M577 356 Q635 241 727 148.5 Q819 56 941 -15 L886 -92 Q821 -46 767.5 -2 Q714 42 670.5 87 Q627 132 592 180 Q557 228 528 282 Q453 178 347 87 Q241 -4 92 -97 L39 -27 Q153 36 241.5 104 Q330 172 397.5 247 Q465 322 513.5 406 Q562 490 595 586 L331 586 Q251 443 133 317 L79 376 Q168 471 235.5 581.5 Q303 692 348 813 L429 796 Q404 729 372 663 L684 663 L684 588 Q639 460 577 356 Z" /><glyph glyph-name="uni4E48" unicode="&#x4e48;" d="M517 749 Q481 687 433.5 621 Q386 555 333.5 492.5 Q281 430 226 373.5 Q171 317 120 273 L63 335 Q115 378 169.5 433 Q224 488 274 548.5 Q324 609 368.5 671.5 Q413 734 446 793 L517 749 ZM841 -97 Q832 -75 820 -49.5 Q808 -24 794 4 Q766 3 718 0.5 Q670 -2 613.5 -4.5 Q557 -7 498 -9.5 Q439 -12 387 -14.5 Q335 -17 296.5 -19 Q258 -21 244 -22 Q224 -24 202 -26.5 Q180 -29 157 -33 L137 49 Q166 57 182.5 66.5 Q199 76 218 92 Q266 132 326.5 197 Q387 262 449 338 Q511 414 568.5 495 Q626 576 669 649 L744 605 Q700 533 642.5 454 Q585 375 524 301.5 Q463 228 403.5 164 Q344 100 296 58 Q309 59 340 60.5 Q371 62 412 64 Q453 66 500.5 68.5 Q548 71 594 73 Q640 75 681 77 Q722 79 751 81 Q716 143 679.5 199.5 Q643 256 614 292 L678 337 Q704 304 737 255.5 Q770 207 803 153.5 Q836 100 865 48.5 Q894 -3 911 -40 L841 -97 Z" /><glyph glyph-name="uni4E49" unicode="&#x4e49;" d="M519 527 Q505 557 487.5 589.5 Q470 622 451 653.5 Q432 685 413 714 Q394 743 378 765 L442 807 Q459 784 479 754.5 Q499 725 518.5 693.5 Q538 662 555 632 Q572 602 584 580 L519 527 ZM896 -97 Q772 -41 675 16.5 Q578 74 502 140 Q426 73 326 15.5 Q226 -42 93 -100 L42 -25 Q169 27 267 80.5 Q365 134 440 200 Q395 247 356 300 Q317 353 283.5 415 Q250 477 220 548 Q190 619 162 702 L236 732 Q289 574 351.5 459 Q414 344 498 257 Q538 301 572 352 Q606 403 633.5 463 Q661 523 684 594 Q707 665 727 748 L804 719 Q782 630 757 554.5 Q732 479 703 415.5 Q674 352 639 298 Q604 244 561 198 Q635 135 727.5 84 Q820 33 939 -15 L896 -97 Z" /><glyph glyph-name="uni4E4B" unicode="&#x4e4b;" d="M533 31 Q638 27 737.5 27.5 Q837 28 942 33 L920 -41 Q730 -52 540 -44 Q478 -41 434 -37 Q390 -33 357 -24 Q324 -15 298.5 1 Q273 17 248 44 Q231 64 220 73 Q209 82 202 82 Q194 82 186 75 Q178 68 161 48 Q146 30 125.5 4.5 Q105 -21 90 -42 L29 15 Q55 44 81.5 77 Q108 110 129 138 Q148 164 164 170 Q180 176 197 176 Q211 176 221 171 Q296 211 370.5 260.5 Q445 310 512.5 361.5 Q580 413 638 463 Q696 513 738 555 L136 555 L136 630 L473 630 Q469 649 464 671 Q459 693 453 714.5 Q447 736 441 755.5 Q435 775 431 789 L505 804 Q509 790 516 768 Q523 746 529.5 721 Q536 696 542.5 672 Q549 648 552 630 L848 630 L848 555 Q801 504 736.5 445 Q672 386 597.5 327.5 Q523 269 442.5 214 Q362 159 283 116 Q307 89 329.5 73.5 Q352 58 380 49 Q408 40 444.5 36.5 Q481 33 533 31 Z" /><glyph glyph-name="uni4E4C" unicode="&#x4e4c;" d="M873 346 Q873 339 871.5 318 Q870 297 868.5 269 Q867 241 865.5 209 Q864 177 862 149 Q860 121 858.5 100 Q857 79 857 72 Q854 31 844.5 4 Q835 -23 813.5 -40 Q792 -57 756.5 -65 Q721 -73 668 -76 L592 -80 L564 -9 L660 -3 Q696 -1 718 4 Q740 9 752.5 19.5 Q765 30 770.5 46.5 Q776 63 778 89 Q779 98 781 125 Q783 152 785 182 Q787 212 789 239 Q791 266 791 275 L191 275 L191 708 L371 708 Q382 733 394.5 765 Q407 797 413 819 L494 807 Q489 787 479 759 Q469 731 458 708 L779 708 Q779 697 777.5 672.5 Q776 648 774.5 621 Q773 594 771 569.5 Q769 545 768 534 Q766 504 757 483.5 Q748 463 728 450 Q708 437 674.5 429 Q641 421 590 416 L523 409 L495 477 L584 483 Q617 485 637.5 489 Q658 493 669.5 500 Q681 507 686 518.5 Q691 530 693 548 Q694 554 695 567 Q696 580 697 594 Q698 608 698.5 620.5 Q699 633 699 639 L267 639 L267 346 L873 346 ZM713 86 L71 86 L71 157 L713 157 L713 86 Z" /><glyph glyph-name="uni4E4D" unicode="&#x4e4d;" d="M451 589 L451 429 L852 429 L852 357 L451 357 L451 193 L887 193 L887 122 L451 122 L451 -103 L376 -103 L376 589 L286 589 Q248 520 203.5 458 Q159 396 108 336 L50 390 Q131 480 197.5 586 Q264 692 308 813 L378 789 Q366 756 352 724.5 Q338 693 324 662 L930 662 L930 589 L451 589 Z" /><glyph glyph-name="uni4E4E" unicode="&#x4e4e;" d="M938 267 L537 267 L537 43 Q537 10 530.5 -13.5 Q524 -37 506.5 -52.5 Q489 -68 458.5 -76 Q428 -84 380 -87 L307 -91 L285 -17 L370 -13 Q402 -12 420.5 -7.5 Q439 -3 448 5 Q457 13 459.5 26.5 Q462 40 462 61 L462 267 L46 267 L46 338 L462 338 L463 657 Q359 648 263 641 Q167 634 100 631 L84 703 Q132 705 194 709 Q256 713 325 718 Q394 723 467 729 Q540 735 609 741.5 Q678 748 740 755.5 Q802 763 849 770 L860 699 Q798 690 714 681 Q630 672 537 663 L537 338 L938 338 L938 267 ZM619 423 Q635 439 657 464.5 Q679 490 701 518 Q723 546 742.5 573.5 Q762 601 775 622 L832 577 Q820 559 801 532.5 Q782 506 760 477.5 Q738 449 716.5 422.5 Q695 396 678 378 L619 423 ZM212 612 Q227 595 247.5 571 Q268 547 289.5 521 Q311 495 330 469.5 Q349 444 361 425 L304 374 Q290 397 270.5 424.5 Q251 452 230.5 478.5 Q210 505 190.5 528.5 Q171 552 157 567 L212 612 Z" /><glyph glyph-name="uni4E4F" unicode="&#x4e4f;" d="M858 699 Q782 686 686.5 673 Q591 660 490 648.5 Q389 637 290.5 628.5 Q192 620 111 616 L100 691 Q178 694 275.5 702.5 Q373 711 474 722.5 Q575 734 671 747.5 Q767 761 842 775 L858 699 ZM527 12 Q631 6 742 6 Q853 6 957 12 L939 -63 Q840 -69 736 -69 Q632 -69 533 -63 Q477 -60 436.5 -56 Q396 -52 365 -44 Q334 -36 310 -21 Q286 -6 263 19 Q249 36 238 47.5 Q227 59 219 58 Q211 56 201.5 48 Q192 40 177 22 Q171 14 159.5 2 Q148 -10 135.5 -23.5 Q123 -37 111.5 -49.5 Q100 -62 94 -71 L41 -4 Q49 6 64 22 Q79 38 95 55 Q111 72 126 88 Q141 104 149 113 Q169 136 182.5 142.5 Q196 149 213 149 Q236 149 258 130 Q320 159 383.5 194 Q447 229 506.5 265 Q566 301 618.5 336.5 Q671 372 712 403 L136 403 L136 477 L475 477 Q469 495 462.5 514.5 Q456 534 450 552 Q444 570 438.5 584.5 Q433 599 430 608 L500 622 Q504 613 510 596 Q516 579 523.5 558.5 Q531 538 538.5 516.5 Q546 495 552 477 L828 477 L828 402 Q785 365 725.5 322.5 Q666 280 597.5 236.5 Q529 193 454.5 151.5 Q380 110 307 76 Q326 57 345.5 45.5 Q365 34 390 27.5 Q415 21 448 18 Q481 15 527 12 Z" /><glyph glyph-name="uni4E50" unicode="&#x4e50;" d="M550 333 L550 32 Q550 -2 543 -23.5 Q536 -45 519.5 -58.5 Q503 -72 475.5 -78 Q448 -84 406 -86 L350 -90 L323 -13 L390 -9 Q415 -8 430.5 -4.5 Q446 -1 454.5 6 Q463 13 465.5 25 Q468 37 468 56 L468 333 L128 333 L168 720 Q249 723 337 728 Q425 733 511 740.5 Q597 748 677 757.5 Q757 767 823 778 L839 701 Q774 692 698.5 683.5 Q623 675 544 667.5 Q465 660 387 654.5 Q309 649 241 645 L214 408 L468 408 L468 614 L550 611 L550 408 L890 408 L890 333 L550 333 ZM337 236 Q317 203 289 165 Q261 127 228.5 88 Q196 49 161.5 11.5 Q127 -26 94 -58 L33 -7 Q67 24 101 60.5 Q135 97 166.5 134.5 Q198 172 224.5 209 Q251 246 271 278 L337 236 ZM694 277 Q720 251 750.5 218.5 Q781 186 813 150 Q845 114 876.5 76 Q908 38 936 3 L876 -57 Q850 -19 818.5 21.5 Q787 62 754.5 100 Q722 138 691 171.5 Q660 205 635 229 L694 277 Z" /><glyph glyph-name="uni4E52" unicode="&#x4e52;" d="M935 245 L935 173 L47 173 L47 245 L223 245 L223 715 Q306 719 387 725.5 Q468 732 544.5 740 Q621 748 690.5 758 Q760 768 820 781 L834 710 Q783 698 719.5 688.5 Q656 679 586.5 670.5 Q517 662 444 655.5 Q371 649 300 645 L300 511 L898 511 L898 439 L708 439 L708 245 L935 245 ZM300 245 L629 245 L629 439 L300 439 L300 245 ZM81 -43 Q111 -30 154 -6 Q197 18 241.5 46 Q286 74 326.5 102 Q367 130 394 153 L440 97 Q414 73 373 43.5 Q332 14 287.5 -15.5 Q243 -45 199.5 -70.5 Q156 -96 125 -111 L81 -43 Z" /><glyph glyph-name="uni4E53" unicode="&#x4e53;" d="M935 245 L935 173 L48 173 L48 245 L222 245 L222 716 Q305 720 386.5 726 Q468 732 544.5 740 Q621 748 690.5 758 Q760 768 819 781 L833 710 Q782 698 718.5 688.5 Q655 679 585.5 670.5 Q516 662 442.5 655.5 Q369 649 298 645 L298 511 L898 511 L898 439 L708 439 L708 245 L935 245 ZM298 245 L630 245 L630 439 L298 439 L298 245 ZM580 156 Q611 142 653.5 119 Q696 96 740 69.5 Q784 43 824 16 Q864 -11 891 -33 L850 -102 Q824 -77 783.5 -48 Q743 -19 699.5 7.5 Q656 34 613.5 56.5 Q571 79 541 93 L580 156 Z" /><glyph glyph-name="uni4E54" unicode="&#x4e54;" d="M910 161 Q841 192 785.5 223 Q730 254 684 290 L684 -96 L605 -96 L605 303 L673 300 Q593 366 536 462 L454 462 Q426 413 390 371 Q354 329 307.5 292 Q261 255 204 221.5 Q147 188 78 156 L32 223 Q153 273 233.5 329 Q314 385 365 462 L76 462 L76 534 L405 534 Q433 594 451 671 Q370 664 293.5 660 Q217 656 155 654 L142 725 Q213 727 301.5 732.5 Q390 738 481 746 Q572 754 658 763.5 Q744 773 809 783 L827 711 Q767 702 691 693.5 Q615 685 534 678 Q516 598 489 534 L905 534 L905 462 L621 462 Q651 422 683.5 389.5 Q716 357 754.5 330 Q793 303 840.5 280.5 Q888 258 950 237 L910 161 ZM324 303 L400 299 L400 226 Q400 170 390.5 123.5 Q381 77 356.5 36.5 Q332 -4 290 -40.5 Q248 -77 182 -114 L134 -50 Q197 -13 234.5 17.5 Q272 48 292 79.5 Q312 111 318 147.5 Q324 184 324 232 L324 303 Z" /><glyph glyph-name="uni4E56" unicode="&#x4e56;" d="M927 582 L927 511 L531 511 L531 -104 L454 -104 L454 511 L63 511 L63 582 L454 582 L454 682 Q371 677 294.5 674 Q218 671 160 670 L148 738 Q215 739 304 742.5 Q393 746 486.5 751.5 Q580 757 668 764.5 Q756 772 820 781 L829 714 Q770 706 693 699 Q616 692 531 686 L531 582 L927 582 ZM282 469 L352 466 L352 50 L282 50 L282 120 Q260 111 233.5 100.5 Q207 90 180.5 80.5 Q154 71 129.5 62.5 Q105 54 87 49 L60 128 Q82 133 111.5 142 Q141 151 171 161 Q201 171 230 182 Q259 193 282 202 L282 296 L93 296 L93 370 L282 370 L282 469 ZM841 158 Q846 175 848 194.5 Q850 214 853 231 L920 207 Q916 181 911.5 155 Q907 129 900 105 Q895 79 871 65.5 Q847 52 792 49 Q761 47 731 49 Q707 50 689 55.5 Q671 61 658 73.5 Q645 86 638.5 106.5 Q632 127 632 158 L632 469 L703 466 L703 329 Q749 349 795 375.5 Q841 402 872 425 L903 366 Q886 355 862 340.5 Q838 326 811 311 Q784 296 756 281 Q728 266 703 254 L703 175 Q703 145 713 133 Q723 121 748 121 L785 121 Q813 121 824.5 131 Q836 141 841 158 Z" /><glyph glyph-name="uni4E58" unicode="&#x4e58;" d="M527 295 Q597 193 699.5 123.5 Q802 54 942 0 L905 -66 Q798 -20 698.5 45 Q599 110 527 202 L527 -108 L455 -108 L455 203 Q421 159 382.5 123 Q344 87 299 55.5 Q254 24 201 -6 Q148 -36 85 -68 L43 -5 Q120 31 181 63.5 Q242 96 291.5 131 Q341 166 380.5 206 Q420 246 455 297 L455 527 L82 527 L82 591 L455 591 L455 681 Q374 677 298.5 675.5 Q223 674 167 674 L156 735 Q199 735 252.5 736 Q306 737 365 739.5 Q424 742 485.5 745 Q547 748 605.5 751.5 Q664 755 716.5 760 Q769 765 811 770 L818 708 Q761 701 685 695.5 Q609 690 527 685 L527 591 L901 591 L901 527 L527 527 L527 295 ZM77 253 Q98 257 124.5 263.5 Q151 270 179 278 Q207 286 234.5 294 Q262 302 285 310 L285 370 L105 370 L105 428 L285 428 L285 497 L351 494 L351 199 L285 199 L285 248 Q262 240 236 231.5 Q210 223 184.5 215.5 Q159 208 136 201 Q113 194 96 190 L77 253 ZM695 494 L695 399 Q737 415 780.5 436.5 Q824 458 852 474 L875 424 Q859 414 837 402.5 Q815 391 791 380 Q767 369 742 358.5 Q717 348 695 340 L695 294 Q695 271 704.5 261 Q714 251 737 251 L775 251 Q804 251 816.5 258.5 Q829 266 832 280 Q836 295 838 312 Q840 329 842 343 L896 326 Q893 303 890.5 281.5 Q888 260 882 239 Q877 219 855.5 204 Q834 189 783 189 L719 189 Q673 189 651 212 Q629 235 629 285 L629 497 L695 494 Z" /><glyph glyph-name="uni4E59" unicode="&#x4e59;" d="M795 659 Q658 551 558.5 468.5 Q459 386 390 325.5 Q321 265 279 223 Q237 181 213.5 153 Q190 125 182.5 108.5 Q175 92 175 82 Q175 67 180 57.5 Q185 48 197 42 Q209 36 229.5 33 Q250 30 281 29 Q491 21 702 29 Q735 30 754.5 34 Q774 38 786 47.5 Q798 57 804 73 Q810 89 815 115 Q820 139 822.5 170 Q825 201 826 224 L906 196 Q904 176 900.5 144.5 Q897 113 893 87 Q888 49 877 24.5 Q866 0 845 -15 Q824 -30 791.5 -37 Q759 -44 711 -45 Q484 -53 258 -45 Q174 -42 132.5 -15 Q91 12 91 72 Q91 92 96.5 112.5 Q102 133 121 161.5 Q140 190 177 230 Q214 270 278 328.5 Q342 387 436.5 467.5 Q531 548 665 658 L140 658 L140 733 L795 733 L795 659 Z" /><glyph glyph-name="uni4E5D" unicode="&#x4e5d;" d="M932 146 Q930 111 926 80 Q922 49 915 12 Q907 -24 882.5 -40.5 Q858 -57 801 -61 Q756 -64 712 -61 Q686 -59 666 -53.5 Q646 -48 632.5 -35 Q619 -22 612.5 -1 Q606 20 606 52 L606 520 L399 520 Q395 398 378 312 Q361 226 325.5 158 Q290 90 234 30 Q178 -30 95 -100 L36 -41 Q113 22 166 75 Q219 128 252 189 Q285 250 301.5 328 Q318 406 321 520 L73 520 L73 599 L322 599 Q323 627 323.5 660.5 Q324 694 325 723.5 Q326 753 326.5 775 Q327 797 327 803 L406 800 L401 599 L685 599 L685 66 Q685 37 695 26.5 Q705 16 732 14 Q759 12 786 14 Q817 16 830 26 Q843 36 849 66 Q854 96 856 119.5 Q858 143 859 173 L932 146 Z" /><glyph glyph-name="uni4E5E" unicode="&#x4e5e;" d="M287 619 Q245 561 202.5 512.5 Q160 464 122 426 L67 483 Q148 560 212 645.5 Q276 731 314 819 L393 798 Q367 744 336 693 L885 693 L885 619 L287 619 ZM887 147 Q885 80 866 7 Q861 -10 851.5 -22.5 Q842 -35 824 -44 Q806 -53 776.5 -58.5 Q747 -64 704 -65 Q495 -73 286 -65 Q215 -63 185 -39 Q155 -15 155 25 Q155 57 174.5 89.5 Q194 122 242.5 165.5 Q291 209 374 268.5 Q457 328 583 415 L215 415 L215 488 L735 488 L735 420 Q618 343 536.5 287.5 Q455 232 400.5 193 Q346 154 315 129 Q284 104 268.5 87.5 Q253 71 249.5 60.5 Q246 50 246 41 Q246 24 261.5 18 Q277 12 321 10 Q505 1 689 10 Q722 12 741.5 14.5 Q761 17 771.5 22.5 Q782 28 786.5 37.5 Q791 47 795 63 Q807 119 809 177 L887 147 Z" /><glyph glyph-name="uni4E5F" unicode="&#x4e5f;" d="M932 144 Q927 110 923.5 77.5 Q920 45 909 13 Q898 -18 866 -37 Q834 -56 764 -61 Q716 -65 658 -67 Q600 -69 540.5 -69 Q481 -69 423 -67 Q365 -65 317 -61 Q279 -58 252.5 -50.5 Q226 -43 208.5 -26.5 Q191 -10 183 18 Q175 46 175 90 L175 409 L57 379 L43 452 L175 485 L175 685 L252 682 L252 504 L458 556 L458 805 L534 802 L534 575 L834 650 Q834 641 832.5 615 Q831 589 829.5 554 Q828 519 826 480 Q824 441 822.5 406 Q821 371 819.5 345 Q818 319 817 311 Q815 279 807 259.5 Q799 240 784 228.5 Q769 217 746 211 Q723 205 690 200 L644 192 L617 267 L661 274 Q686 278 701.5 282 Q717 286 726 293 Q735 300 739 312 Q743 324 745 344 Q745 348 746 363 Q747 378 748 399 Q749 420 750 444 Q751 468 752 490.5 Q753 513 754 530 Q755 547 755 555 L534 499 L534 95 L458 95 L458 480 L252 428 L252 94 Q252 71 255.5 56.5 Q259 42 268 33.5 Q277 25 292 21 Q307 17 330 15 Q373 12 426.5 10 Q480 8 535.5 8 Q591 8 644.5 9.5 Q698 11 742 15 Q794 20 815.5 31.5 Q837 43 842 69 Q847 94 850.5 121 Q854 148 855 174 L932 144 Z" /><glyph glyph-name="uni4E60" unicode="&#x4e60;" d="M850 734 Q850 725 849 695 Q848 665 846.5 622 Q845 579 843 526 Q841 473 839 418 Q837 363 835.5 309.5 Q834 256 832 211.5 Q830 167 829 135 Q828 103 827 91 Q824 45 813.5 15 Q803 -15 779 -33 Q755 -51 715.5 -60 Q676 -69 616 -73 L538 -79 L509 1 L610 7 Q650 9 675.5 15 Q701 21 715.5 33.5 Q730 46 736.5 67 Q743 88 745 121 Q746 135 748 177.5 Q750 220 752 276 Q754 332 756.5 394.5 Q759 457 761 512 Q763 567 764.5 606.5 Q766 646 766 656 L99 656 L99 734 L850 734 ZM236 608 Q263 593 301.5 568 Q340 543 380 515 Q420 487 456.5 459 Q493 431 517 409 L469 332 Q445 357 409 388 Q373 419 333 449 Q293 479 254 504.5 Q215 530 187 546 L236 608 ZM73 128 Q114 141 165.5 160.5 Q217 180 273 202.5 Q329 225 387.5 250 Q446 275 501 299.5 Q556 324 604.5 347.5 Q653 371 689 390 L700 346 L708 312 Q673 293 625.5 270 Q578 247 524.5 222.5 Q471 198 413.5 173 Q356 148 301.5 125.5 Q247 103 197.5 83.5 Q148 64 110 51 L73 128 Z" /><glyph glyph-name="uni4E61" unicode="&#x4e61;" d="M828 484 Q825 468 820.5 445 Q816 422 811 402 Q787 293 742 215.5 Q697 138 615 81 Q533 24 408.5 -18 Q284 -60 101 -98 L61 -23 Q194 4 293 31 Q392 58 464.5 89.5 Q537 121 586 159.5 Q635 198 668 247 Q621 244 560 240 Q499 236 439.5 232.5 Q380 229 331 225.5 Q282 222 260 220 Q232 218 217 215 Q202 212 180 208 L159 283 Q171 286 180 288.5 Q189 291 197 294 Q205 297 212.5 301 Q220 305 230 311 Q289 346 355 393.5 Q421 441 488 495 Q452 493 413 491.5 Q374 490 338 488 Q302 486 272.5 484.5 Q243 483 228 482 Q209 480 196.5 478 Q184 476 161 471 L141 544 Q163 549 176 556 Q189 563 200 570 Q229 589 263.5 618 Q298 647 333 680.5 Q368 714 401.5 749.5 Q435 785 463 818 L521 773 Q493 741 462.5 709.5 Q432 678 402 649 Q372 620 343 595 Q314 570 288 551 Q308 552 342.5 553.5 Q377 555 416.5 556.5 Q456 558 496 559.5 Q536 561 568 563 Q665 646 740 726 L796 675 Q745 621 688 567.5 Q631 514 572 465 Q513 416 454.5 373 Q396 330 341 296 Q366 297 412.5 299.5 Q459 302 511.5 305 Q564 308 616 311 Q668 314 704 316 Q714 341 722 367.5 Q730 394 737 424 Q742 444 745.5 462.5 Q749 481 751 497 L828 484 Z" /><glyph glyph-name="uni4E66" unicode="&#x4e66;" d="M749 367 L890 367 Q890 352 886.5 316.5 Q883 281 879.5 241 Q876 201 872 165.5 Q868 130 867 115 Q864 82 853 59.5 Q842 37 820 22 Q798 7 764 -1 Q730 -9 679 -12 L612 -16 L584 61 L673 65 Q707 66 729 71 Q751 76 764.5 85 Q778 94 784 108.5 Q790 123 793 144 Q794 153 796.5 174.5 Q799 196 801.5 219.5 Q804 243 806 264 Q808 285 809 294 L424 294 L424 -102 L348 -102 L348 294 L51 294 L51 367 L348 367 L348 575 L114 575 L114 648 L348 648 L348 809 L424 807 L424 648 L774 648 L749 367 ZM880 567 Q862 589 833.5 615.5 Q805 642 773.5 667.5 Q742 693 711.5 715 Q681 737 659 751 L704 806 Q726 793 757 771 Q788 749 819.5 724 Q851 699 880 674 Q909 649 928 630 L880 567 ZM424 367 L676 367 L694 575 L424 575 L424 367 Z" /><glyph glyph-name="uni4E70" unicode="&#x4e70;" d="M718 516 Q740 553 760 592 Q780 631 797 673 L113 673 L113 743 L876 743 L876 672 Q856 623 833.5 577.5 Q811 532 786 487 L718 516 ZM583 187 Q579 175 574.5 163.5 Q570 152 565 141 Q604 124 650.5 102.5 Q697 81 743.5 58.5 Q790 36 833 13 Q876 -10 908 -29 L875 -102 Q840 -80 794.5 -55 Q749 -30 701.5 -5 Q654 20 608 42.5 Q562 65 526 82 Q500 52 464 27 Q428 2 378 -20 Q328 -42 263 -61.5 Q198 -81 116 -100 L86 -28 Q184 -7 254.5 14.5 Q325 36 373.5 61.5 Q422 87 452.5 118 Q483 149 500 187 L61 187 L61 256 L521 256 Q528 292 530.5 334.5 Q533 377 535 428 Q535 443 536 471.5 Q537 500 537.5 530.5 Q538 561 538.5 589.5 Q539 618 539 633 L616 629 Q616 614 615.5 585 Q615 556 614.5 523.5 Q614 491 613 462 Q612 433 612 418 Q610 371 607.5 331 Q605 291 599 256 L927 256 L927 187 L583 187 ZM449 444 Q427 457 396.5 474.5 Q366 492 333 509 Q300 526 269 541 Q238 556 214 565 L246 627 Q270 616 300 601.5 Q330 587 361.5 571.5 Q393 556 424 540 Q455 524 479 511 L449 444 ZM164 479 Q190 468 224.5 452 Q259 436 294.5 418.5 Q330 401 362.5 384 Q395 367 418 354 L389 289 Q363 304 328.5 322 Q294 340 259 358 Q224 376 190.5 391.5 Q157 407 132 417 L164 479 Z" /><glyph glyph-name="uni4E71" unicode="&#x4e71;" d="M921 149 Q920 114 916.5 76 Q913 38 905 3 Q898 -32 870.5 -50.5 Q843 -69 780 -71 Q742 -73 705 -71 Q672 -70 648.5 -63.5 Q625 -57 611 -42.5 Q597 -28 590.5 -3.5 Q584 21 584 59 L584 792 L657 790 L657 73 Q657 51 660.5 38 Q664 25 672 17.5 Q680 10 692 7 Q704 4 722 3 Q743 1 764 3 Q802 5 817.5 14.5 Q833 24 838 53 Q844 82 846.5 113.5 Q849 145 849 175 L921 149 ZM321 514 L521 514 L521 442 L321 442 L321 294 L466 294 L466 -62 L105 -62 L105 294 L250 294 L250 442 L47 442 L47 514 L250 514 L250 653 Q201 647 155.5 642 Q110 637 72 635 L59 707 Q105 709 161 714.5 Q217 720 274 728 Q331 736 384.5 745 Q438 754 478 764 L490 692 Q457 685 413 677.5 Q369 670 321 663 L321 514 ZM395 223 L176 223 L176 10 L395 10 L395 223 Z" /><glyph glyph-name="uni4E73" unicode="&#x4e73;" d="M933 147 Q932 120 928.5 81 Q925 42 918 5 Q912 -29 886.5 -45.5 Q861 -62 801 -64 Q781 -65 759.5 -65 Q738 -65 718 -64 Q686 -63 663.5 -57 Q641 -51 627 -37 Q613 -23 606.5 -0.5 Q600 22 600 57 L600 792 L673 790 L673 68 Q673 33 685 21.5 Q697 10 732 9 Q759 7 786 9 Q821 11 835 20 Q849 29 854 57 Q859 85 861 114.5 Q863 144 864 172 L933 147 ZM63 725 Q94 726 133 728.5 Q172 731 214.5 735 Q257 739 302 743.5 Q347 748 389 753 Q431 758 469 763.5 Q507 769 536 774 L546 707 Q502 701 439.5 693.5 Q377 686 310.5 678.5 Q244 671 181.5 664.5 Q119 658 75 655 L63 725 ZM537 648 Q530 630 519 604.5 Q508 579 495.5 553 Q483 527 470 503 Q457 479 447 464 L392 492 Q401 507 413 530 Q425 553 437 578 Q449 603 459 627.5 Q469 652 475 669 L537 648 ZM309 667 Q316 653 324.5 633 Q333 613 342 591.5 Q351 570 358.5 549.5 Q366 529 370 515 L311 485 Q307 502 300 523.5 Q293 545 285 567 Q277 589 268 608.5 Q259 628 252 641 L309 667 ZM157 466 Q153 483 144.5 504.5 Q136 526 126 547.5 Q116 569 106 589 Q96 609 88 623 L145 650 Q153 637 163 617.5 Q173 598 183 576.5 Q193 555 201 535 Q209 515 214 500 L157 466 ZM350 236 Q405 244 454 251.5 Q503 259 538 267 L540 230 L540 197 Q504 190 454.5 182.5 Q405 175 350 167 L350 28 Q350 1 344 -18 Q338 -37 323.5 -49.5 Q309 -62 284.5 -69 Q260 -76 223 -79 L173 -83 L150 -16 L207 -11 Q228 -9 242 -6 Q256 -3 264 3 Q272 9 275 19 Q278 29 278 45 L278 157 Q210 149 148 142 Q86 135 44 132 L33 204 Q80 206 144.5 212 Q209 218 278 226 L278 281 Q314 304 348.5 331.5 Q383 359 416 389 L92 389 L92 455 L517 455 L517 391 Q477 352 436 317 Q395 282 350 251 L350 236 Z" /><glyph glyph-name="uni4E7E" unicode="&#x4e7e;" d="M603 602 Q587 567 569.5 534.5 Q552 502 532 468 L830 468 L830 399 Q751 307 700.5 242.5 Q650 178 621.5 136 Q593 94 582 70.5 Q571 47 571 37 Q571 20 581 14 Q591 8 617 6 Q657 4 698.5 4 Q740 4 780 6 Q813 8 826.5 16 Q840 24 845 47 Q856 96 856 144 L924 120 Q923 88 919 60 Q915 32 907 0 Q899 -29 875.5 -44 Q852 -59 795 -62 Q697 -67 600 -62 Q555 -60 522.5 -41 Q490 -22 490 20 Q490 47 504 81.5 Q518 116 548 161.5 Q578 207 625.5 265.5 Q673 324 740 399 L531 399 L531 467 L524 455 L461 492 Q509 566 545.5 644 Q582 722 609 815 L682 802 Q671 767 659 735.5 Q647 704 635 675 L933 675 L933 602 L603 602 ZM308 130 L484 130 L484 63 L308 63 L308 -96 L238 -96 L238 63 L42 63 L42 130 L238 130 L238 222 L101 222 L101 553 L238 553 L238 638 L69 638 L69 703 L238 703 L238 806 L309 803 L309 703 L476 703 L476 638 L309 638 L309 553 L444 553 L444 222 L308 222 L308 130 ZM168 491 L168 418 L375 418 L375 491 L168 491 ZM168 283 L375 283 L375 357 L168 357 L168 283 Z" /><glyph glyph-name="uni4E86" unicode="&#x4e86;" d="M372 4 Q399 6 415.5 9 Q432 12 441 19 Q450 26 453.5 39.5 Q457 53 457 76 L457 461 Q534 506 601 556 Q668 606 738 660 L90 660 L90 735 L871 735 L871 660 Q786 594 705.5 534.5 Q625 475 539 421 L539 46 Q539 11 532.5 -11 Q526 -33 510 -45.5 Q494 -58 467 -64 Q440 -70 398 -74 L318 -81 L292 -2 L372 4 Z" /><glyph glyph-name="uni4E88" unicode="&#x4e88;" d="M908 428 L908 357 Q875 300 842 248 Q809 196 767 141 L697 183 Q712 201 729 223 Q746 245 762.5 268.5 Q779 292 794 314.5 Q809 337 820 357 L535 357 L535 29 Q535 -3 529 -24 Q523 -45 508.5 -58 Q494 -71 469 -77 Q444 -83 405 -86 L337 -91 L311 -13 L389 -9 Q413 -8 427 -5 Q441 -2 448 5 Q455 12 457 25 Q459 38 459 59 L459 357 L63 357 L63 428 L492 428 Q467 450 437 474 Q407 498 377 520.5 Q347 543 319 562.5 Q291 582 271 595 L313 652 Q327 643 347 629 Q367 615 390.5 597.5 Q414 580 439 561 Q464 542 487 524 Q514 543 543 565 Q572 587 599.5 609 Q627 631 652 650.5 Q677 670 695 685 L155 685 L155 755 L817 755 L817 685 Q794 667 761.5 641.5 Q729 616 693 587.5 Q657 559 619 530 Q581 501 548 476 Q555 471 560.5 466 Q566 461 571 457 L547 428 L908 428 Z" /><glyph glyph-name="uni4E89" unicode="&#x4e89;" d="M934 314 L812 314 L812 130 L512 130 L512 39 Q512 6 506.5 -15 Q501 -36 487 -49 Q473 -62 448.5 -68.5 Q424 -75 385 -77 L321 -81 L295 -8 L369 -4 Q393 -3 407 0.5 Q421 4 428 12 Q435 20 437 34 Q439 48 439 69 L439 130 L126 130 L126 193 L439 193 L439 314 L43 314 L43 380 L439 380 L439 492 L163 492 L163 524 Q150 513 136.5 502.5 Q123 492 109 481 L61 539 Q145 597 217.5 673 Q290 749 338 826 L408 799 Q399 783 389 768 Q379 753 368 738 L713 738 L713 671 L605 557 L812 557 L812 380 L934 380 L934 314 ZM314 670 Q289 641 261 613 Q233 585 202 557 L509 557 L616 670 L314 670 ZM512 380 L741 380 L741 492 L512 492 L512 380 ZM741 314 L512 314 L512 193 L741 193 L741 314 Z" /><glyph glyph-name="uni4E8B" unicode="&#x4e8b;" d="M925 192 L839 192 L839 65 L530 65 L530 17 Q530 -12 524 -31 Q518 -50 504 -61.5 Q490 -73 467 -78.5 Q444 -84 409 -86 L345 -91 L318 -21 Q331 -21 346 -20 Q359 -19 375 -19 Q391 -19 408 -17 Q426 -16 436 -14.5 Q446 -13 451.5 -8 Q457 -3 458 6.5 Q459 16 459 34 L459 65 L123 65 L123 123 L459 123 L459 192 L53 192 L53 251 L459 251 L459 314 L123 314 L123 372 L459 372 L459 432 L168 432 L168 609 L459 609 L459 671 L55 671 L55 733 L459 733 L459 804 L530 800 L530 733 L923 733 L923 671 L530 671 L530 609 L818 609 L818 432 L530 432 L530 372 L839 372 L839 251 L925 251 L925 192 ZM459 487 L459 554 L240 554 L240 487 L459 487 ZM530 554 L530 487 L746 487 L746 554 L530 554 ZM530 251 L769 251 L769 314 L530 314 L530 251 ZM769 192 L530 192 L530 123 L769 123 L769 192 Z" /><glyph glyph-name="uni4E8C" unicode="&#x4e8c;" d="M829 684 L829 604 L159 604 L159 684 L829 684 ZM918 70 L918 -9 L72 -9 L72 70 L918 70 Z" /><glyph glyph-name="uni4E8E" unicode="&#x4e8e;" d="M918 351 L542 351 L542 50 Q542 15 536.5 -7.5 Q531 -30 516 -43.5 Q501 -57 475 -64 Q449 -71 408 -74 L307 -82 L283 -5 L377 1 Q403 2 419 6 Q435 10 444 18 Q453 26 456 39 Q459 52 459 73 L459 351 L64 351 L64 424 L459 424 L459 664 L145 664 L145 738 L838 738 L838 664 L542 664 L542 424 L918 424 L918 351 Z" /><glyph glyph-name="uni4E8F" unicode="&#x4e8f;" d="M832 661 L148 661 L148 734 L832 734 L832 661 ZM342 442 L309 310 L782 310 Q781 300 778.5 268 Q776 236 772.5 199.5 Q769 163 765.5 129.5 Q762 96 760 83 Q755 38 743.5 8 Q732 -22 707.5 -40.5 Q683 -59 642.5 -67.5 Q602 -76 538 -78 L452 -82 L420 -6 L532 -2 Q574 -1 600.5 4 Q627 9 642.5 20.5 Q658 32 665 51.5 Q672 71 676 102 Q677 114 679 133.5 Q681 153 683 173 Q685 193 686.5 211 Q688 229 689 237 L208 237 L255 442 L52 442 L52 516 L929 516 L929 442 L342 442 Z" /><glyph glyph-name="uni4E91" unicode="&#x4e91;" d="M833 670 L149 670 L149 744 L833 744 L833 670 ZM499 401 Q477 359 446.5 310.5 Q416 262 383.5 215.5 Q351 169 318.5 128 Q286 87 260 59 L715 82 Q677 141 641 192.5 Q605 244 573 283 L637 329 Q663 296 696 251.5 Q729 207 762 159 Q795 111 826 63.5 Q857 16 878 -22 L808 -79 Q797 -56 785 -34.5 Q773 -13 760 9 Q733 8 688.5 6 Q644 4 591 1.5 Q538 -1 482 -4 Q426 -7 376 -9.5 Q326 -12 287.5 -14 Q249 -16 232 -17 Q203 -19 180.5 -22 Q158 -25 129 -30 L107 47 Q134 56 148.5 65.5 Q163 75 180 89 Q205 115 235.5 152 Q266 189 296 230.5 Q326 272 354 316 Q382 360 404 401 L66 401 L66 475 L919 475 L919 401 L499 401 Z" /><glyph glyph-name="uni4E92" unicode="&#x4e92;" d="M939 28 L939 -45 L44 -45 L44 28 L662 28 L674 179 L200 179 L277 661 L93 661 L93 735 L893 735 L893 661 L356 661 L332 516 L777 516 L741 28 L939 28 ZM680 254 L695 441 L319 441 L288 254 L680 254 Z" /><glyph glyph-name="uni4E94" unicode="&#x4e94;" d="M934 42 L934 -30 L50 -30 L50 42 L262 42 L318 365 L121 365 L121 437 L331 437 L369 659 L101 659 L101 733 L890 733 L890 659 L449 659 L411 437 L775 437 L760 42 L934 42 ZM343 42 L680 42 L692 365 L399 365 L343 42 Z" /><glyph glyph-name="uni4E95" unicode="&#x4e95;" d="M933 228 L714 228 L714 -99 L634 -99 L634 228 L362 228 Q355 171 340.5 126 Q326 81 301.5 41 Q277 1 240.5 -36.5 Q204 -74 154 -116 L96 -60 Q141 -22 173.5 10 Q206 42 228 74.5 Q250 107 263 144 Q276 181 282 228 L59 228 L59 304 L288 304 Q289 320 289 337 Q289 354 289 373 L289 538 L89 538 L89 614 L289 614 L289 793 L369 790 L369 614 L634 614 L634 795 L714 792 L714 614 L896 614 L896 538 L714 538 L714 304 L933 304 L933 228 ZM634 304 L634 538 L369 538 L369 381 Q369 361 369 341.5 Q369 322 368 304 L634 304 Z" /><glyph glyph-name="uni4E9A" unicode="&#x4e9a;" d="M933 25 L933 -48 L53 -48 L53 25 L345 25 L345 678 L91 678 L91 751 L895 751 L895 678 L639 678 L639 25 L933 25 ZM422 25 L563 25 L563 678 L422 678 L422 25 ZM162 561 Q170 547 183 522 Q196 497 211 465 Q226 433 242.5 397 Q259 361 274.5 327 Q290 293 302.5 263.5 Q315 234 323 215 L260 165 Q252 187 239.5 218.5 Q227 250 212 286 Q197 322 180 358.5 Q163 395 147.5 428 Q132 461 118.5 486.5 Q105 512 97 525 L162 561 ZM659 209 Q683 248 708 294 Q733 340 755 387 Q777 434 795 479.5 Q813 525 824 561 L890 524 Q879 488 859.5 442.5 Q840 397 817 349 Q794 301 769 255 Q744 209 722 173 L659 209 Z" /><glyph glyph-name="uni4E9B" unicode="&#x4e9b;" d="M62 341 Q72 342 91.5 345 Q111 348 138 352 L138 719 L211 716 L211 365 Q237 369 264.5 373.5 Q292 378 319 383 L319 801 L392 798 L392 629 L529 629 L529 562 L392 562 L392 396 Q438 404 473.5 410.5 Q509 417 526 421 L528 383 L532 345 Q517 342 482 336 Q447 330 401.5 322.5 Q356 315 305.5 306.5 Q255 298 209 290.5 Q163 283 127 277 Q91 271 74 268 L62 341 ZM652 287 Q603 291 578.5 313 Q554 335 554 396 L554 800 L629 798 L629 593 Q658 605 690.5 621.5 Q723 638 755 655 Q787 672 815.5 689.5 Q844 707 864 722 L896 650 Q873 635 839 617 Q805 599 768.5 580.5 Q732 562 695 544.5 Q658 527 629 514 L629 421 Q629 401 632.5 388.5 Q636 376 643.5 368.5 Q651 361 662.5 358 Q674 355 690 354 Q713 352 731 352 Q749 352 772 354 Q808 356 822 365.5 Q836 375 842 392 Q848 410 851 427.5 Q854 445 856 468 L924 444 Q921 417 916.5 390.5 Q912 364 904 340 Q896 316 872.5 304 Q849 292 795 287 Q757 284 723.5 284 Q690 284 652 287 ZM181 205 L804 205 L804 132 L181 132 L181 205 ZM66 22 L921 22 L921 -50 L66 -50 L66 22 Z" /><glyph glyph-name="uni4EA1" unicode="&#x4ea1;" d="M279 553 L279 27 L859 27 L859 -46 L196 -46 L196 553 L58 553 L58 628 L474 628 Q469 646 463.5 668.5 Q458 691 452 713.5 Q446 736 440 755 Q434 774 430 785 L508 800 Q512 788 519 765.5 Q526 743 533.5 717.5 Q541 692 547.5 667.5 Q554 643 558 628 L928 628 L928 553 L279 553 Z" /><glyph glyph-name="uni4EA4" unicode="&#x4ea4;" d="M908 595 L75 595 L75 670 L471 670 Q466 685 460.5 702 Q455 719 449 734.5 Q443 750 437.5 763 Q432 776 428 785 L496 805 Q501 794 508.5 776.5 Q516 759 524 739.5 Q532 720 539 701.5 Q546 683 550 670 L908 670 L908 595 ZM851 272 Q827 299 790.5 333.5 Q754 368 713.5 401.5 Q673 435 633.5 464 Q594 493 565 511 L610 568 Q638 551 677.5 523 Q717 495 757.5 463.5 Q798 432 835 400 Q872 368 896 344 L851 272 ZM85 332 Q160 382 228 442.5 Q296 503 350 566 L405 515 Q348 449 276 384.5 Q204 320 129 266 L85 332 ZM910 -102 Q778 -63 677 -19 Q576 25 497 85 Q459 56 415.5 30.5 Q372 5 320 -18.5 Q268 -42 207 -64.5 Q146 -87 74 -110 L37 -36 Q174 2 270.5 43 Q367 84 437 136 Q350 219 280 345 L344 383 Q378 320 414 271 Q450 222 493 182 Q535 224 568.5 272.5 Q602 321 631 382 L705 350 Q671 283 634.5 230 Q598 177 553 133 Q623 83 718 46.5 Q813 10 945 -21 L910 -102 Z" /><glyph glyph-name="uni4EA5" unicode="&#x4ea5;" d="M917 670 L917 601 L462 601 Q445 577 424.5 551 Q404 525 382.5 500.5 Q361 476 339 454.5 Q317 433 298 418 Q310 418 340 419 Q370 420 407 421.5 Q444 423 481.5 424.5 Q519 426 546 427 Q575 460 603.5 497 Q632 534 661 576 L720 533 Q668 454 610.5 389.5 Q553 325 482.5 268.5 Q412 212 324.5 162 Q237 112 126 62 L85 129 Q154 156 211 183.5 Q268 211 316.5 239.5 Q365 268 405.5 298 Q446 328 482 362 Q450 361 413 359.5 Q376 358 342.5 356.5 Q309 355 283 354 Q257 353 246 352 Q211 350 169 346 L151 411 Q180 417 191 422 Q202 427 213 434 Q229 446 249 464.5 Q269 483 290 505.5 Q311 528 332 552.5 Q353 577 371 601 L67 601 L67 670 L469 670 Q465 685 459.5 703 Q454 721 449 738 Q444 755 438.5 770 Q433 785 429 796 L503 810 Q508 799 514.5 780.5 Q521 762 527.5 742 Q534 722 539.5 702.5 Q545 683 549 670 L917 670 ZM819 363 Q771 294 717.5 236.5 Q664 179 604 128 Q637 112 676 90.5 Q715 69 753 46 Q791 23 826 0 Q861 -23 886 -41 L848 -116 Q822 -91 783.5 -64 Q745 -37 702.5 -10.5 Q660 16 617.5 39.5 Q575 63 541 80 Q463 23 373 -25 Q283 -73 174 -118 L126 -48 Q241 -5 334.5 43 Q428 91 505.5 146.5 Q583 202 646.5 266.5 Q710 331 765 408 L819 363 Z" /><glyph glyph-name="uni4EA6" unicode="&#x4ea6;" d="M649 584 L648 29 Q648 -3 641.5 -24 Q635 -45 619.5 -58 Q604 -71 579 -78.5 Q554 -86 517 -90 L461 -97 L436 -21 L499 -14 Q521 -12 535 -8.5 Q549 -5 557.5 2.5 Q566 10 569.5 22.5 Q573 35 573 55 L573 584 L423 584 Q422 548 421 498 Q420 448 416 388 Q410 287 393.5 215.5 Q377 144 347 87.5 Q317 31 271.5 -16.5 Q226 -64 161 -118 L105 -62 Q169 -13 212 30.5 Q255 74 281.5 124.5 Q308 175 321 239.5 Q334 304 340 395 Q344 453 345 501 Q346 549 347 584 L66 584 L67 656 L474 656 Q469 672 462.5 691 Q456 710 449.5 728 Q443 746 437.5 761 Q432 776 428 785 L496 805 Q501 794 509 774 Q517 754 525 732.5 Q533 711 540.5 690 Q548 669 552 656 L908 656 L907 584 L649 584 ZM258 459 Q244 416 225 369 Q206 322 184 273.5 Q162 225 137 177.5 Q112 130 85 87 L24 127 Q78 210 120 301 Q162 392 190 480 L258 459 ZM742 475 Q764 441 789.5 395 Q815 349 839.5 300 Q864 251 885.5 204.5 Q907 158 920 124 L854 80 Q843 114 822 162.5 Q801 211 776 262 Q751 313 725.5 360.5 Q700 408 679 440 L742 475 Z" /><glyph glyph-name="uni4EA7" unicode="&#x4ea7;" d="M743 613 Q731 574 713.5 526 Q696 478 679 435 L897 435 L897 362 L228 362 L228 277 Q228 214 221.5 161.5 Q215 109 200 62.5 Q185 16 161 -27 Q137 -70 103 -114 L32 -73 Q68 -31 91.5 8 Q115 47 129 89.5 Q143 132 148.5 181 Q154 230 154 292 L154 435 L330 435 Q324 457 316.5 482 Q309 507 301.5 531 Q294 555 286.5 576.5 Q279 598 273 613 L79 613 L79 686 L474 686 Q466 715 456 746 Q446 777 438 796 L512 810 Q516 800 521.5 784.5 Q527 769 533 751.5 Q539 734 544.5 717 Q550 700 555 686 L930 686 L930 613 L743 613 ZM598 435 Q615 473 632.5 521.5 Q650 570 663 613 L354 613 Q360 594 368 571 Q376 548 383.5 524 Q391 500 398 476.5 Q405 453 410 435 L598 435 Z" /><glyph glyph-name="uni4EA9" unicode="&#x4ea9;" d="M923 684 L923 612 L63 612 L63 684 L464 684 Q456 712 446.5 741 Q437 770 429 788 L503 802 Q507 792 512.5 777.5 Q518 763 523.5 747 Q529 731 534.5 714.5 Q540 698 544 684 L923 684 ZM154 499 L831 499 L831 -90 L759 -90 L759 -28 L227 -28 L227 -90 L154 -90 L154 499 ZM227 428 L227 271 L458 271 L458 428 L227 428 ZM759 428 L531 428 L531 271 L759 271 L759 428 ZM458 42 L458 200 L227 200 L227 42 L458 42 ZM759 42 L759 200 L531 200 L531 42 L759 42 Z" /><glyph glyph-name="uni4EAB" unicode="&#x4eab;" d="M911 646 L72 646 L72 710 L458 710 Q450 734 442.5 757.5 Q435 781 429 796 L503 810 Q510 793 520 764.5 Q530 736 538 710 L911 710 L911 646 ZM193 398 L193 581 L791 581 L791 398 L193 398 ZM264 455 L719 455 L719 526 L264 526 L264 455 ZM935 99 L530 99 L530 23 Q530 -10 525.5 -30 Q521 -50 509.5 -61.5 Q498 -73 478 -78 Q458 -83 427 -86 L354 -92 L328 -23 L400 -16 Q419 -14 430 -11.5 Q441 -9 447 -3 Q453 3 454.5 14.5 Q456 26 456 45 L456 99 L49 99 L49 163 L456 163 L456 202 L664 276 L139 276 L139 339 L816 339 L816 271 L530 168 L530 163 L935 163 L935 99 Z" /><glyph glyph-name="uni4EAC" unicode="&#x4eac;" d="M916 623 L73 623 L73 691 L464 691 Q456 719 446.5 748.5 Q437 778 429 796 L503 810 Q507 800 512.5 785.5 Q518 771 523.5 754.5 Q529 738 534.5 721.5 Q540 705 544 691 L916 691 L916 623 ZM544 250 L544 24 Q544 -10 539.5 -30.5 Q535 -51 523 -62.5 Q511 -74 490 -79 Q469 -84 435 -87 L368 -93 L343 -19 L409 -14 Q428 -13 439.5 -9.5 Q451 -6 456.5 1 Q462 8 463.5 19 Q465 30 465 48 L465 250 L190 250 L190 530 L796 530 L796 250 L544 250 ZM265 318 L720 318 L720 462 L265 462 L265 318 ZM32 -7 Q60 9 95.5 34.5 Q131 60 166 88.5 Q201 117 231.5 146.5 Q262 176 281 200 L337 149 Q316 124 288 96.5 Q260 69 227.5 41 Q195 13 158.5 -14.5 Q122 -42 84 -67 L32 -7 ZM694 196 Q723 175 757.5 149.5 Q792 124 826.5 96.5 Q861 69 893 41.5 Q925 14 950 -11 L904 -73 Q883 -50 850.5 -20 Q818 10 782 40.5 Q746 71 711 98.5 Q676 126 649 144 L694 196 Z" /><glyph glyph-name="uni4EAD" unicode="&#x4ead;" d="M916 712 L916 647 L68 647 L68 712 L462 712 Q454 736 446.5 759 Q439 782 433 797 L507 811 Q514 794 524 766 Q534 738 542 712 L916 712 ZM789 585 L789 415 L196 415 L196 585 L789 585 ZM720 530 L265 530 L265 468 L720 468 L720 530 ZM98 351 L887 351 L887 180 L817 180 L817 286 L168 286 L168 182 L98 182 L98 351 ZM194 211 L791 211 L791 147 L547 147 L547 26 Q547 -4 540.5 -24.5 Q534 -45 517.5 -58 Q501 -71 473 -77.5 Q445 -84 402 -86 L344 -89 L319 -18 L389 -14 Q416 -13 432 -9 Q448 -5 457 1.5 Q466 8 469 19 Q472 30 472 47 L472 147 L194 147 L194 211 Z" /><glyph glyph-name="uni4EAE" unicode="&#x4eae;" d="M910 713 L910 648 L75 648 L75 713 L462 713 Q454 737 446.5 759.5 Q439 782 433 797 L507 811 Q514 794 524 766.5 Q534 739 542 713 L910 713 ZM782 584 L782 400 L205 400 L205 584 L782 584 ZM708 528 L279 528 L279 456 L708 456 L708 528 ZM104 339 L883 339 L883 175 L811 175 L811 278 L175 278 L175 176 L104 176 L104 339 ZM828 30 Q837 67 840 108 L909 80 Q905 51 901.5 27.5 Q898 4 891 -21 Q884 -47 858.5 -62 Q833 -77 776 -77 L698 -77 Q669 -77 649.5 -72.5 Q630 -68 618 -57 Q606 -46 600.5 -28 Q595 -10 595 18 L595 141 L363 141 L363 108 Q363 73 350.5 43 Q338 13 307 -12.5 Q276 -38 224 -60.5 Q172 -83 93 -103 L60 -33 Q135 -16 180 1 Q225 18 249.5 39 Q274 60 282 86.5 Q290 113 290 149 L290 207 L670 207 L670 41 Q670 11 680.5 2 Q691 -7 721 -7 L764 -7 Q796 -7 809.5 2 Q823 11 828 30 Z" /><glyph glyph-name="uni4EB2" unicode="&#x4eb2;" d="M919 473 L919 403 L543 403 L543 282 L890 282 L890 213 L543 213 L543 31 Q543 -1 537 -22 Q531 -43 516 -56 Q501 -69 475.5 -75 Q450 -81 411 -84 L359 -88 L333 -11 L395 -7 Q419 -6 433 -3 Q447 0 454 7 Q461 14 463 26.5 Q465 39 465 60 L465 213 L94 213 L94 282 L465 282 L465 403 L62 403 L62 473 L321 473 Q313 509 302.5 552 Q292 595 283 627 L113 627 L113 697 L467 697 Q459 724 449.5 752 Q440 780 433 797 L507 811 Q515 792 527 758.5 Q539 725 547 697 L870 697 L870 627 L718 627 Q710 592 698 551 Q686 510 674 473 L919 473 ZM360 627 Q370 592 381 548.5 Q392 505 400 473 L594 473 Q608 507 620 548.5 Q632 590 640 627 L360 627 ZM347 134 Q326 111 293.5 82.5 Q261 54 225.5 25 Q190 -4 155.5 -30 Q121 -56 97 -72 L53 -12 Q77 2 110.5 27 Q144 52 179 80.5 Q214 109 245.5 137 Q277 165 297 186 L347 134 ZM663 179 Q688 166 722.5 144.5 Q757 123 793 99 Q829 75 862 50 Q895 25 917 6 L874 -65 Q853 -42 820 -15 Q787 12 751.5 37.5 Q716 63 682 85 Q648 107 623 121 L663 179 Z" /><glyph glyph-name="uni4EBA" unicode="&#x4eba;" d="M522 639 Q532 531 562.5 438 Q593 345 644 263 Q695 181 765.5 108.5 Q836 36 925 -30 L869 -98 Q727 17 632 147 Q537 277 492 430 Q453 281 360 154 Q267 27 113 -90 L58 -25 Q163 51 236.5 128.5 Q310 206 356.5 292.5 Q403 379 424.5 478 Q446 577 448 696 Q448 702 448.5 716.5 Q449 731 449.5 746.5 Q450 762 450 775 Q450 788 450 792 L525 789 Q525 785 525 769 Q525 753 524.5 733.5 Q524 714 523.5 695 Q523 676 523 667 Q523 659 523 652.5 Q523 646 522 639 Z" /><glyph glyph-name="uni4EBF" unicode="&#x4ebf;" d="M340 780 Q320 719 299 665 Q278 611 254 561 L254 -93 L181 -93 L181 427 Q137 355 88 289 L27 344 Q62 390 96 442.5 Q130 495 160.5 552 Q191 609 217 670.5 Q243 732 262 797 L340 780 ZM931 192 Q931 182 929.5 167.5 Q928 153 926.5 137 Q925 121 923 104.5 Q921 88 919 74 Q914 35 904.5 10.5 Q895 -14 878.5 -28 Q862 -42 836.5 -48.5 Q811 -55 772 -57 Q627 -66 483 -57 Q350 -49 350 52 Q350 73 354.5 96.5 Q359 120 373 151.5 Q387 183 413.5 225.5 Q440 268 483.5 328.5 Q527 389 590 469.5 Q653 550 741 657 L400 657 L400 732 L840 732 L840 656 Q747 542 680.5 458 Q614 374 569 313.5 Q524 253 497 212 Q470 171 456 143.5 Q442 116 438 98 Q434 80 434 66 Q434 50 439 41 Q444 32 453 26.5 Q462 21 474 19 Q486 17 500 16 Q626 8 753 16 Q780 18 796.5 22 Q813 26 823 35 Q833 44 838 60 Q843 76 847 103 Q851 128 853.5 161 Q856 194 856 217 L931 192 Z" /><glyph glyph-name="uni4EC0" unicode="&#x4ec0;" d="M358 795 Q319 687 273 595 L273 -94 L199 -94 L199 460 Q173 417 144.5 376 Q116 335 85 296 L26 344 Q63 389 100 445 Q137 501 171 563 Q205 625 233.5 689.5 Q262 754 282 815 L358 795 ZM942 390 L679 390 L679 -98 L600 -98 L600 390 L337 390 L337 466 L600 466 L600 803 L679 800 L679 466 L942 466 L942 390 Z" /><glyph glyph-name="uni4EC1" unicode="&#x4ec1;" d="M347 796 Q328 733 306.5 677.5 Q285 622 260 571 L260 -95 L187 -95 L187 437 Q137 357 84 289 L26 338 Q62 384 97.5 440 Q133 496 164.5 557 Q196 618 223 683 Q250 748 269 813 L347 796 ZM903 594 L370 594 L370 673 L903 673 L903 594 ZM941 62 L941 -15 L322 -15 L322 62 L941 62 Z" /><glyph glyph-name="uni4EC5" unicode="&#x4ec5;" d="M335 780 Q318 721 298 669.5 Q278 618 255 570 L255 -101 L182 -101 L182 437 Q132 357 77 287 L19 336 Q56 382 90.5 435 Q125 488 155.5 547 Q186 606 212 669 Q238 732 257 797 L335 780 ZM666 202 Q719 142 787.5 84.5 Q856 27 947 -33 L898 -104 Q810 -47 739 12.5 Q668 72 611 138 Q555 78 486.5 21 Q418 -36 331 -96 L272 -31 Q366 27 437.5 82.5 Q509 138 564 197 Q498 288 454.5 392.5 Q411 497 386 628 L457 649 Q482 533 520 438.5 Q558 344 619 261 Q685 348 723.5 444 Q762 540 785 658 L357 658 L357 734 L864 734 L864 659 Q850 588 831.5 526 Q813 464 789 407.5 Q765 351 734.5 300.5 Q704 250 666 202 Z" /><glyph glyph-name="uni4EC6" unicode="&#x4ec6;" d="M383 787 Q340 676 290 579 L290 -92 L214 -92 L214 449 Q185 404 154 363 Q123 322 88 282 L31 336 Q114 433 186 549.5 Q258 666 308 806 L383 787 ZM564 802 L643 799 L643 -100 L564 -100 L564 802 ZM693 497 Q722 479 754.5 457 Q787 435 820 411.5 Q853 388 884 364 Q915 340 941 317 L895 236 Q870 263 840 290.5 Q810 318 778 343.5 Q746 369 713 391.5 Q680 414 649 433 L693 497 Z" /><glyph glyph-name="uni4EC7" unicode="&#x4ec7;" d="M324 788 Q289 674 243 575 L243 -103 L171 -103 L171 436 Q149 399 126 364 Q103 329 78 294 L22 352 Q57 395 90.5 448.5 Q124 502 153.5 560.5 Q183 619 207 681 Q231 743 248 803 L324 788 ZM944 149 Q941 111 937 73 Q933 35 925 -2 Q921 -20 914.5 -32.5 Q908 -45 896.5 -53 Q885 -61 868 -65 Q851 -69 827 -70 Q802 -71 777 -70 Q730 -68 707 -49 Q684 -30 684 21 L684 529 L533 529 L533 513 Q531 390 519.5 303 Q508 216 482.5 148 Q457 80 415.5 23 Q374 -34 312 -98 L251 -50 Q316 9 356 61.5 Q396 114 418.5 176.5 Q441 239 449.5 320 Q458 401 461 516 L461 529 L316 529 L316 601 L463 601 Q464 630 464.5 661 Q465 692 465 719 Q465 746 465 767.5 Q465 789 465 799 L537 796 Q537 785 537 764 Q537 743 536.5 716.5 Q536 690 535.5 660 Q535 630 535 601 L759 601 L759 44 Q759 20 766 12.5 Q773 5 796 5 L819 5 Q839 5 848.5 13 Q858 21 864 50 Q870 79 873 111.5 Q876 144 876 174 L944 149 Z" /><glyph glyph-name="uni4ECA" unicode="&#x4eca;" d="M27 439 Q173 513 281.5 608 Q390 703 458 811 L529 811 Q597 699 701 606 Q805 513 952 441 L905 372 Q767 453 662 542 Q557 631 492 734 Q427 634 319 541 Q211 448 77 374 L27 439 ZM438 563 Q452 548 471.5 525 Q491 502 511.5 477 Q532 452 550 428 Q568 404 579 386 L522 329 Q511 350 493.5 376 Q476 402 456.5 428 Q437 454 418 477 Q399 500 385 515 L438 563 ZM789 237 Q729 146 665 61 Q601 -24 529 -103 L458 -60 Q530 12 587.5 86.5 Q645 161 692 236 L140 236 L140 309 L789 309 L789 237 Z" /><glyph glyph-name="uni4ECB" unicode="&#x4ecb;" d="M28 407 Q181 486 286 583.5 Q391 681 456 806 L526 806 Q598 674 701 576.5 Q804 479 950 410 L904 336 Q839 374 780 416 Q721 458 668.5 505 Q616 552 571.5 605.5 Q527 659 492 721 Q416 599 315.5 506.5 Q215 414 80 337 L28 407 ZM687 443 L687 -92 L608 -92 L608 446 L687 443 ZM101 -51 Q161 -9 198.5 27 Q236 63 258 102.5 Q280 142 288 189.5 Q296 237 296 303 L296 444 L375 441 L375 310 Q375 232 365.5 173 Q356 114 330.5 65.5 Q305 17 261.5 -26 Q218 -69 151 -114 L101 -51 Z" /><glyph glyph-name="uni4ECD" unicode="&#x4ecd;" d="M337 767 Q317 702 295.5 647.5 Q274 593 250 544 L250 -99 L178 -99 L178 419 Q156 385 132.5 352.5 Q109 320 84 288 L26 338 Q99 431 160 542 Q221 653 259 784 L337 767 ZM888 439 Q888 434 886.5 405.5 Q885 377 883 336.5 Q881 296 878.5 249 Q876 202 874 161.5 Q872 121 870 91.5 Q868 62 868 57 Q866 19 858 -5 Q850 -29 832 -43.5 Q814 -58 783 -65 Q752 -72 704 -75 L640 -79 L613 -4 L693 0 Q723 1 742 5 Q761 9 772 18.5 Q783 28 787.5 44.5 Q792 61 794 88 Q794 92 795.5 111.5 Q797 131 798.5 158.5 Q800 186 801.5 218.5 Q803 251 804.5 281 Q806 311 807 334.5 Q808 358 809 368 L688 368 L688 438 Q724 547 744 662 L525 662 Q523 548 519.5 460 Q516 372 508.5 303.5 Q501 235 487.5 181 Q474 127 452.5 81 Q431 35 401 -8 Q371 -51 330 -98 L272 -48 Q312 -2 341 38 Q370 78 390 120 Q410 162 422 210 Q434 258 441 321.5 Q448 385 450 468 Q452 551 452 662 L358 662 L358 734 L821 734 L821 666 Q810 608 795.5 551 Q781 494 762 439 L888 439 Z" /><glyph glyph-name="uni4ECE" unicode="&#x4ece;" d="M891 -105 Q846 -53 807.5 0.5 Q769 54 738 111 Q707 168 683.5 230 Q660 292 644 363 Q630 303 608.5 246.5 Q587 190 555.5 133.5 Q524 77 481.5 19 Q439 -39 384 -100 L315 -43 Q402 43 456.5 122.5 Q511 202 543 286 Q575 370 588 463.5 Q601 557 605 672 Q605 679 605.5 696.5 Q606 714 606.5 734 Q607 754 607 772.5 Q607 791 607 800 L683 796 Q683 787 683 770.5 Q683 754 682.5 736 Q682 718 681.5 700.5 Q681 683 681 672 L678 612 Q684 503 704.5 411 Q725 319 759 239.5 Q793 160 841 90 Q889 20 952 -46 L891 -105 ZM445 196 Q435 217 420.5 243.5 Q406 270 389.5 298 Q373 326 355 354 Q337 382 320 407 Q309 336 292.5 275.5 Q276 215 251 157.5 Q226 100 192.5 42.5 Q159 -15 115 -80 L42 -32 Q83 26 115 77.5 Q147 129 171 178 Q195 227 211.5 277.5 Q228 328 239 385 Q250 442 255.5 508 Q261 574 263 655 Q263 662 264 682 Q265 702 265.5 725.5 Q266 749 266.5 769.5 Q267 790 267 799 L342 795 Q342 786 341.5 765.5 Q341 745 340.5 722.5 Q340 700 339.5 680 Q339 660 339 653 Q338 616 336 582.5 Q334 549 332 517 Q352 492 376.5 458 Q401 424 425 388 Q449 352 469.5 317.5 Q490 283 504 257 L445 196 Z" /><glyph glyph-name="uni4ED1" unicode="&#x4ed1;" d="M527 803 Q595 700 703.5 610 Q812 520 955 451 L910 382 Q848 416 788 456 Q728 496 674 539.5 Q620 583 574 629.5 Q528 676 494 725 Q458 675 411.5 628 Q365 581 311.5 537.5 Q258 494 198.5 454.5 Q139 415 76 381 L28 448 Q171 518 281.5 611 Q392 704 458 803 L527 803 ZM746 57 Q751 82 754.5 108.5 Q758 135 759 161 L836 131 Q831 98 827 65.5 Q823 33 814 2 Q806 -28 772 -48.5 Q738 -69 668 -71 Q520 -76 373 -71 Q335 -70 308.5 -63 Q282 -56 264.5 -39 Q247 -22 239 6 Q231 34 231 78 L231 468 L311 464 L311 275 Q359 291 415 312.5 Q471 334 525.5 357.5 Q580 381 629.5 404.5 Q679 428 715 448 L748 371 Q709 351 653.5 326.5 Q598 302 537.5 276.5 Q477 251 417.5 227.5 Q358 204 311 188 L311 82 Q311 59 314 44.5 Q317 30 325 21 Q333 12 348 8.5 Q363 5 386 4 Q516 0 646 4 Q698 6 719.5 19 Q741 32 746 57 Z" /><glyph glyph-name="uni4ED3" unicode="&#x4ed3;" d="M22 437 Q94 473 158 516 Q222 559 276 606.5 Q330 654 374.5 704 Q419 754 452 805 L530 805 Q599 701 705 610 Q811 519 957 450 L910 376 Q849 407 789 448 Q729 489 674 535 Q619 581 572.5 630 Q526 679 492 727 Q416 624 310 532.5 Q204 441 74 369 L22 437 ZM725 469 Q725 461 724 433 Q723 405 722 373.5 Q721 342 720.5 314 Q720 286 720 277 Q720 239 711.5 214 Q703 189 683 173 Q663 157 628.5 149 Q594 141 542 139 L473 135 L443 214 L534 216 Q568 217 589.5 221.5 Q611 226 623.5 235 Q636 244 641 258.5 Q646 273 646 296 Q646 302 646.5 317 Q647 332 647.5 348 Q648 364 648.5 378.5 Q649 393 649 399 L304 399 L304 89 Q304 62 307 43.5 Q310 25 319.5 14 Q329 3 347 -2.5 Q365 -8 396 -9 Q534 -14 673 -9 Q726 -8 748 5 Q770 18 775 41 Q786 92 789 147 L867 114 Q862 80 856.5 47.5 Q851 15 843 -16 Q839 -32 830 -44 Q821 -56 804 -64 Q787 -72 760 -77 Q733 -82 693 -83 Q536 -87 379 -83 Q338 -82 309.5 -75 Q281 -68 263.5 -51.5 Q246 -35 238 -6 Q230 23 230 68 L230 469 L725 469 Z" /><glyph glyph-name="uni4ED4" unicode="&#x4ed4;" d="M334 784 Q315 720 293 664.5 Q271 609 247 559 L247 -97 L171 -97 L171 423 Q149 389 126.5 357.5 Q104 326 80 295 L22 344 Q97 438 157.5 554 Q218 670 256 801 L334 784 ZM943 312 L675 312 L675 33 Q675 1 669 -19 Q663 -39 648.5 -50.5 Q634 -62 610 -68 Q586 -74 549 -77 L476 -84 L451 -7 L524 -1 Q548 1 562 4 Q576 7 583.5 13.5 Q591 20 593 31.5 Q595 43 595 62 L595 312 L312 312 L312 388 L595 388 L595 502 L777 663 L390 663 L390 739 L886 739 L886 664 L675 473 L675 388 L943 388 L943 312 Z" /><glyph glyph-name="uni4ED6" unicode="&#x4ed6;" d="M930 121 Q927 90 924 58.5 Q921 27 914 -2 Q911 -17 903 -28.5 Q895 -40 879.5 -48 Q864 -56 839.5 -61 Q815 -66 779 -67 Q642 -72 505 -67 Q469 -66 444 -59.5 Q419 -53 403 -38 Q387 -23 380 1.5 Q373 26 373 63 L373 405 L287 377 L271 447 L373 480 L373 701 L444 699 L444 502 L572 543 L572 801 L643 799 L643 566 L861 635 Q861 631 860 605.5 Q859 580 858 544 Q857 508 856 466 Q855 424 853.5 387 Q852 350 851 323 Q850 296 850 290 Q848 262 841 243 Q834 224 820.5 212 Q807 200 785.5 194 Q764 188 734 185 L695 181 L674 251 L722 257 Q740 259 751 262.5 Q762 266 768 273 Q774 280 776 291.5 Q778 303 779 322 Q779 326 779.5 342 Q780 358 781 380.5 Q782 403 783 428 Q784 453 785 476 Q786 499 786.5 516 Q787 533 787 539 L643 492 L643 95 L572 95 L572 469 L444 428 L444 85 Q444 60 447 44.5 Q450 29 459 20 Q468 11 485 7.5 Q502 4 530 3 Q639 -2 748 3 Q800 5 822 14.5 Q844 24 848 46 Q853 70 855.5 95 Q858 120 859 144 L930 121 ZM330 769 Q291 644 247 551 L247 -96 L178 -96 L178 424 Q136 357 84 290 L26 339 Q99 431 158 543 Q217 655 255 786 L330 769 Z" /><glyph glyph-name="uni4ED7" unicode="&#x4ed7;" d="M913 -90 Q812 -52 733.5 -9 Q655 34 595 85 Q547 36 478 -10 Q409 -56 311 -104 L272 -38 Q367 8 432 50 Q497 92 540 138 Q478 205 438.5 289 Q399 373 376 482 L442 500 Q462 403 496.5 328.5 Q531 254 585 194 Q605 225 618.5 260 Q632 295 639.5 335.5 Q647 376 650.5 422.5 Q654 469 655 523 L655 549 L313 549 L313 623 L655 623 L655 804 L732 801 L732 623 L920 623 L920 549 L731 549 L731 530 Q730 466 726 411 Q722 356 711.5 308.5 Q701 261 684 219.5 Q667 178 641 141 Q698 93 773.5 55 Q849 17 947 -17 L913 -90 ZM333 778 Q316 721 297 670.5 Q278 620 257 574 L257 -100 L186 -100 L186 438 Q161 396 135 358.5 Q109 321 80 284 L22 333 Q99 427 159.5 545 Q220 663 255 795 L333 778 Z" /><glyph glyph-name="uni4ED8" unicode="&#x4ed8;" d="M346 778 Q328 723 308 673.5 Q288 624 266 577 L266 -91 L188 -91 L188 433 Q165 395 139.5 358.5 Q114 322 85 285 L22 338 Q97 430 163.5 544 Q230 658 270 793 L346 778 ZM937 527 L778 527 L778 35 Q778 4 773.5 -16.5 Q769 -37 757 -50 Q745 -63 724 -69.5 Q703 -76 671 -80 L579 -91 L553 -15 L660 -3 Q685 0 691.5 11.5 Q698 23 698 53 L698 527 L323 527 L323 603 L698 603 L698 790 L778 786 L778 603 L937 603 L937 527 ZM442 448 Q456 430 476 401 Q496 372 517 340 Q538 308 557.5 276 Q577 244 589 219 L526 164 Q511 196 492 231.5 Q473 267 453.5 300 Q434 333 415 362 Q396 391 380 410 L442 448 Z" /><glyph glyph-name="uni4ED9" unicode="&#x4ed9;" d="M877 634 L877 -83 L802 -83 L802 -31 L356 -31 L356 635 L429 633 L429 40 L578 40 L578 802 L653 799 L653 40 L802 40 L802 635 L877 634 ZM18 351 Q93 442 145.5 554 Q198 666 236 797 L314 780 Q294 718 273.5 665 Q253 612 231 564 L231 -94 L158 -94 L158 425 Q139 393 119 363 Q99 333 76 302 L18 351 Z" /><glyph glyph-name="uni4EE3" unicode="&#x4ee3;" d="M821 38 Q832 66 840 96 Q848 126 853 155 L916 110 Q906 74 896 41.5 Q886 9 872 -23 Q862 -45 851 -58.5 Q840 -72 827 -79.5 Q814 -87 799 -90 Q784 -93 768 -93 Q750 -93 733.5 -88.5 Q717 -84 700 -73 Q683 -62 665.5 -43.5 Q648 -25 630 3 Q589 64 559 166 Q529 268 512 419 L316 401 L309 473 L504 491 Q502 519 500 548.5 Q498 578 496 609 L486 800 L563 800 Q563 787 564 763 Q565 739 566 710.5 Q567 682 568.5 654 Q570 626 571 606 Q573 577 575 550.5 Q577 524 579 498 L919 530 L925 457 L587 426 Q604 281 632.5 187 Q661 93 693 49 Q716 17 733 5.5 Q750 -6 768 -6 Q785 -6 797.5 3 Q810 12 821 38 ZM365 779 Q345 722 322.5 670.5 Q300 619 275 570 L275 -100 L201 -100 L201 439 Q173 394 143 352.5 Q113 311 81 269 L27 325 Q66 369 103.5 424.5 Q141 480 175 541.5 Q209 603 237.5 667.5 Q266 732 287 794 L365 779 ZM804 556 Q790 574 769 596 Q748 618 724.5 639.5 Q701 661 678.5 680 Q656 699 640 711 L683 764 Q700 753 723 734 Q746 715 769.5 694 Q793 673 815 653 Q837 633 851 618 L804 556 Z" /><glyph glyph-name="uni4EE4" unicode="&#x4ee4;" d="M528 802 Q593 699 699 608.5 Q805 518 953 446 L910 377 Q845 411 783.5 451.5 Q722 492 668 536 Q614 580 569 628 Q524 676 492 726 Q426 629 317 540 Q208 451 75 378 L27 446 Q169 515 277 607 Q385 699 457 802 L528 802 ZM447 578 Q460 565 479 545 Q498 525 516.5 502.5 Q535 480 552 458 Q569 436 579 420 L522 363 Q511 382 494.5 406 Q478 430 459 453.5 Q440 477 421.5 498 Q403 519 390 533 L447 578 ZM130 344 L808 348 L808 270 Q753 209 695.5 151.5 Q638 94 576 42 Q615 22 648.5 3.5 Q682 -15 707 -31 L669 -108 Q630 -79 571.5 -45.5 Q513 -12 449 19.5 Q385 51 323 78 Q261 105 215 122 L249 189 Q299 171 365.5 141.5 Q432 112 501 80 Q555 124 605 172.5 Q655 221 703 273 L130 273 L130 344 Z" /><glyph glyph-name="uni4EE5" unicode="&#x4ee5;" d="M489 475 Q471 514 450.5 553.5 Q430 593 409.5 629 Q389 665 369 695.5 Q349 726 332 748 L392 784 Q409 763 429.5 732.5 Q450 702 471.5 667.5 Q493 633 513.5 596.5 Q534 560 552 525 L489 475 ZM740 216 Q765 193 791.5 167 Q818 141 844 112 Q870 83 895 53 Q920 23 941 -7 L886 -70 Q867 -39 844 -7.5 Q821 24 796.5 53 Q772 82 748.5 107 Q725 132 704 152 Q659 84 585 24 Q511 -36 398 -98 L349 -31 Q457 26 527 83 Q597 140 639 206 Q681 272 700 352 Q719 432 726 536 Q728 559 728 599.5 Q728 640 729 680 Q729 727 730 778 L807 775 L807 682 Q807 643 806.5 601 Q806 559 804 530 Q798 432 783.5 355.5 Q769 279 740 216 ZM501 268 Q490 259 468 241 Q446 223 418 200 Q390 177 359 151 Q328 125 299.5 101.5 Q271 78 247.5 58 Q224 38 211 27 Q199 16 178.5 -3 Q158 -22 143 -39 L92 23 Q112 43 120 57 Q128 71 128 88 L128 755 L205 752 L205 123 Q212 129 232 145.5 Q252 162 278 183.5 Q304 205 333 229.5 Q362 254 387.5 275 Q413 296 431.5 311.5 Q450 327 455 332 L501 268 Z" /><glyph glyph-name="uni4EEA" unicode="&#x4eea;" d="M328 781 Q310 725 291 674.5 Q272 624 252 576 L252 -96 L178 -96 L178 429 Q134 353 76 278 L17 331 Q90 424 150.5 544.5 Q211 665 249 794 L328 781 ZM624 525 Q612 554 597 587.5 Q582 621 566.5 653 Q551 685 535 713 Q519 741 506 761 L563 794 Q576 775 593.5 746 Q611 717 628 685.5 Q645 654 659.5 623.5 Q674 593 682 571 L624 525 ZM671 177 Q727 118 795.5 66 Q864 14 948 -34 L908 -107 Q822 -54 751 1.5 Q680 57 621 120 Q564 62 490 9 Q416 -44 320 -100 L277 -31 Q372 24 443.5 74.5 Q515 125 569 180 Q488 281 433.5 403 Q379 525 347 681 L416 705 Q444 563 493 448.5 Q542 334 619 237 Q654 282 681 332 Q708 382 729 442 Q750 502 766.5 572.5 Q783 643 797 728 L870 710 Q854 617 835.5 540 Q817 463 793 398.5 Q769 334 739 279.5 Q709 225 671 177 Z" /><glyph glyph-name="uni4EEC" unicode="&#x4eec;" d="M424 808 Q437 796 455.5 776 Q474 756 492 734.5 Q510 713 526.5 691.5 Q543 670 553 655 L501 598 Q491 616 475 639 Q459 662 441 685 Q423 708 405.5 728.5 Q388 749 375 762 L424 808 ZM313 792 Q296 738 277 685.5 Q258 633 236 582 L236 -91 L168 -91 L168 442 Q126 364 78 295 L23 347 Q54 388 86 443 Q118 498 147.5 559.5 Q177 621 201.5 684.5 Q226 748 242 806 L313 792 ZM883 737 L883 50 Q883 9 877 -16 Q871 -41 854.5 -56 Q838 -71 810 -77.5 Q782 -84 739 -87 L689 -91 L664 -18 L726 -14 Q753 -12 769.5 -8 Q786 -4 795 5 Q804 14 807 29.5 Q810 45 810 70 L810 666 L569 666 L569 737 L883 737 ZM355 620 L428 618 L428 -85 L355 -85 L355 620 Z" /><glyph glyph-name="uni4EF0" unicode="&#x4ef0;" d="M315 784 Q297 729 278 679 Q259 629 239 583 L239 -92 L168 -92 L168 439 Q145 399 120.5 361 Q96 323 68 286 L14 339 Q48 383 80 436 Q112 489 141 548 Q170 607 194.5 670 Q219 733 239 798 L315 784 ZM583 720 Q549 701 505 681.5 Q461 662 424 650 L424 150 Q433 155 454.5 166.5 Q476 178 499.5 190.5 Q523 203 541.5 212.5 Q560 222 562 223 L566 139 Q553 132 530.5 120.5 Q508 109 483 97 Q458 85 435.5 74.5 Q413 64 400 58 Q389 53 379.5 48.5 Q370 44 353 33 L328 111 Q345 125 348.5 131.5 Q352 138 352 149 L352 710 Q375 717 402.5 726.5 Q430 736 457.5 747 Q485 758 510 769 Q535 780 555 790 L583 720 ZM874 732 L874 178 Q874 147 868.5 127.5 Q863 108 850.5 96 Q838 84 817.5 77.5 Q797 71 767 67 L727 61 L704 137 L741 142 Q762 145 774 148 Q786 151 792.5 157.5 Q799 164 800.5 175.5 Q802 187 802 206 L802 658 L657 658 L657 -98 L585 -98 L585 732 L874 732 Z" /><glyph glyph-name="uni4EF2" unicode="&#x4ef2;" d="M878 196 L648 196 L648 -100 L573 -100 L573 196 L341 196 L341 625 L573 625 L573 807 L648 804 L648 625 L878 625 L878 196 ZM320 783 Q301 726 282 675.5 Q263 625 242 577 L242 -93 L172 -93 L172 437 Q149 397 125 359.5 Q101 322 73 285 L16 340 Q51 384 84 436.5 Q117 489 146 547.5 Q175 606 199.5 669 Q224 732 244 797 L320 783 ZM573 273 L573 548 L416 548 L416 273 L573 273 ZM801 548 L648 548 L648 273 L801 273 L801 548 Z" /><glyph glyph-name="uni4EF6" unicode="&#x4ef6;" d="M943 214 L678 214 L678 -100 L602 -100 L602 214 L307 214 L307 286 L602 286 L602 522 L455 522 Q427 432 390 352 L315 379 Q334 419 352 465.5 Q370 512 385 561 Q400 610 412.5 660 Q425 710 434 757 L509 741 Q495 666 476 594 L602 594 L602 807 L678 803 L678 594 L901 594 L901 522 L678 522 L678 286 L943 286 L943 214 ZM323 773 Q290 666 252 583 L252 -98 L179 -98 L179 443 Q133 365 77 292 L19 341 Q90 435 148.5 546.5 Q207 658 245 789 L323 773 Z" /><glyph glyph-name="uni4EF7" unicode="&#x4ef7;" d="M632 802 Q682 687 765 592 Q848 497 955 437 L910 373 Q807 442 730.5 527 Q654 612 599 720 Q574 668 548 622.5 Q522 577 489.5 535 Q457 493 415.5 453 Q374 413 318 371 L270 426 Q326 466 370 509.5 Q414 553 449 600.5 Q484 648 510.5 698.5 Q537 749 559 802 L632 802 ZM335 779 Q316 724 294.5 672.5 Q273 621 249 572 L249 -96 L176 -96 L176 440 Q127 363 73 292 L18 336 Q55 381 91 434.5 Q127 488 159 547 Q191 606 217.5 668 Q244 730 263 793 L335 779 ZM446 440 L519 436 L519 302 Q519 225 511 170.5 Q503 116 483 71 Q463 26 429 -15.5 Q395 -57 344 -108 L286 -62 Q335 -17 366 20.5 Q397 58 415 98.5 Q433 139 439.5 187 Q446 235 446 300 L446 440 ZM692 438 L767 434 L767 -95 L692 -95 L692 438 Z" /><glyph glyph-name="uni4EFB" unicode="&#x4efb;" d="M329 776 Q295 669 254 582 L254 -93 L180 -93 L180 445 Q157 407 132 371 Q107 335 80 299 L18 347 Q89 441 151 551.5 Q213 662 251 793 L329 776 ZM659 325 L659 34 L911 34 L911 -40 L335 -40 L335 34 L581 34 L581 325 L309 325 L309 401 L581 401 L581 643 Q516 635 457 630 Q398 625 354 623 L339 697 Q391 699 462.5 706.5 Q534 714 608.5 723.5 Q683 733 753 744 Q823 755 872 765 L888 690 Q844 681 784.5 671.5 Q725 662 659 653 L659 401 L940 401 L940 325 L659 325 Z" /><glyph glyph-name="uni4EFD" unicode="&#x4efd;" d="M698 805 Q734 680 796 584 Q858 488 951 406 L890 352 Q853 388 815 434.5 Q777 481 741.5 536 Q706 591 676.5 654 Q647 717 627 787 L698 805 ZM324 781 Q290 665 247 568 L247 -100 L177 -100 L177 432 Q154 395 129.5 358.5 Q105 322 76 286 L20 337 Q55 381 89 435.5 Q123 490 153.5 550 Q184 610 209.5 673 Q235 736 253 797 L324 781 ZM574 761 Q537 664 485 577.5 Q433 491 373 418 L818 418 Q818 410 816.5 384 Q815 358 813.5 322.5 Q812 287 810 246.5 Q808 206 806 169 Q804 132 802.5 103.5 Q801 75 800 64 Q797 23 787 -3 Q777 -29 757.5 -45 Q738 -61 708.5 -68.5 Q679 -76 638 -79 L586 -83 L558 -6 L632 -1 Q660 1 677 6.5 Q694 12 704 23.5 Q714 35 718 53.5 Q722 72 725 101 Q726 109 727 128 Q728 147 729.5 172 Q731 197 732.5 224.5 Q734 252 735.5 276 Q737 300 738 318.5 Q739 337 739 344 L543 344 Q543 338 542.5 332 Q542 326 542 321 Q538 245 526 187.5 Q514 130 489.5 81 Q465 32 426.5 -13 Q388 -58 331 -108 L267 -53 Q323 -11 360 27 Q397 65 419.5 107.5 Q442 150 453 201.5 Q464 253 469 323 Q470 328 470 333 Q470 338 471 344 L373 344 L373 418 Q360 403 347.5 388.5 Q335 374 322 360 L266 409 Q346 485 403.5 579 Q461 673 497 778 L574 761 Z" /><glyph glyph-name="uni4EFF" unicode="&#x4eff;" d="M546 583 Q546 568 545.5 550.5 Q545 533 544 516.5 Q543 500 542.5 485 Q542 470 542 460 Q542 452 541.5 445 Q541 438 540 431 L850 431 Q850 424 848.5 398 Q847 372 845.5 335.5 Q844 299 842 257 Q840 215 838 176.5 Q836 138 834.5 108 Q833 78 832 65 Q830 24 821 -2 Q812 -28 793.5 -43.5 Q775 -59 744 -66 Q713 -73 667 -76 L605 -80 L579 -1 L653 3 Q681 4 700 8.5 Q719 13 730.5 23 Q742 33 747.5 49 Q753 65 756 90 Q757 99 758.5 120 Q760 141 761.5 168 Q763 195 765 225 Q767 255 768 281.5 Q769 308 770 328 Q771 348 771 356 L535 356 Q528 277 516 215.5 Q504 154 482 101 Q460 48 426.5 -1 Q393 -50 344 -103 L279 -52 Q338 6 372.5 58 Q407 110 426 169 Q445 228 453.5 300 Q462 372 468 470 Q468 478 468.5 491 Q469 504 470 519.5 Q471 535 471.5 551.5 Q472 568 472 583 L326 583 L326 657 L605 657 Q600 673 594.5 693 Q589 713 583 733 Q577 753 571.5 770 Q566 787 562 797 L635 810 Q640 799 646.5 779 Q653 759 659.5 736.5 Q666 714 672.5 692.5 Q679 671 683 657 L938 657 L938 583 L546 583 ZM339 784 Q319 727 298 674.5 Q277 622 254 573 L254 -97 L180 -97 L180 432 Q157 393 132.5 356 Q108 319 81 283 L22 339 Q57 381 91 434 Q125 487 155.5 546.5 Q186 606 212.5 670 Q239 734 258 798 L339 784 Z" /><glyph glyph-name="uni4F01" unicode="&#x4f01;" d="M493 723 Q461 679 415 632.5 Q369 586 314 540 Q259 494 197.5 450.5 Q136 407 74 371 L27 439 Q97 476 161 519.5 Q225 563 280.5 609.5 Q336 656 381 704 Q426 752 458 799 L528 799 Q597 700 706 607.5 Q815 515 955 440 L907 371 Q760 461 659.5 546 Q559 631 493 723 ZM545 18 L914 18 L914 -53 L57 -53 L57 18 L199 18 L199 383 L273 380 L273 18 L469 18 L469 535 L545 532 L545 319 L824 319 L824 245 L545 245 L545 18 Z" /><glyph glyph-name="uni4F0A" unicode="&#x4f0a;" d="M319 773 Q301 715 280.5 662.5 Q260 610 237 562 L237 -100 L165 -100 L165 427 Q121 356 72 292 L14 341 Q86 432 146 543.5 Q206 655 243 788 L319 773 ZM941 428 L843 428 L843 189 L541 189 Q531 138 514.5 97.5 Q498 57 472.5 22 Q447 -13 412.5 -46.5 Q378 -80 332 -116 L276 -56 Q316 -26 347 0.5 Q378 27 400.5 55.5 Q423 84 438.5 116 Q454 148 464 189 L303 189 L303 263 L476 263 Q480 298 481.5 338.5 Q483 379 484 428 L279 428 L279 501 L484 501 L484 665 L334 665 L334 739 L843 739 L843 501 L941 501 L941 428 ZM559 501 L769 501 L769 665 L559 665 L559 501 ZM769 428 L559 428 Q558 380 556.5 339 Q555 298 551 263 L769 263 L769 428 Z" /><glyph glyph-name="uni4F0D" unicode="&#x4f0d;" d="M324 785 Q307 731 289 681.5 Q271 632 250 586 L250 -98 L178 -98 L178 448 Q154 409 128 371.5 Q102 334 73 296 L15 345 Q92 443 150.5 555.5 Q209 668 246 802 L324 785 ZM946 30 L946 -41 L287 -41 L287 30 L420 30 L464 362 L338 362 L338 434 L473 434 L502 657 L338 657 L338 729 L916 729 L916 657 L579 657 L550 434 L838 434 L829 30 L946 30 ZM496 30 L751 30 L758 362 L540 362 L496 30 Z" /><glyph glyph-name="uni4F0F" unicode="&#x4f0f;" d="M346 787 Q326 727 304 674 Q282 621 258 570 L258 -100 L187 -100 L187 440 Q164 404 140 367.5 Q116 331 89 293 L27 347 Q64 394 99.5 448.5 Q135 503 165.5 562 Q196 621 222 682.5 Q248 744 267 805 L346 787 ZM628 457 Q648 306 728 182 Q808 58 945 -36 L891 -95 Q845 -62 801.5 -20 Q758 22 719.5 70.5 Q681 119 650 173.5 Q619 228 598 286 Q583 235 559 187.5 Q535 140 501.5 92.5 Q468 45 423.5 -2.5 Q379 -50 323 -100 L261 -49 Q337 14 390.5 74 Q444 134 478 195.5 Q512 257 529.5 323 Q547 389 551 464 L318 464 L318 538 L553 538 L553 801 L630 798 L630 538 L917 538 L917 464 L628 464 L628 457 ZM826 564 Q814 582 796 605 Q778 628 757.5 650.5 Q737 673 717.5 693.5 Q698 714 684 727 L732 773 Q747 761 767 741.5 Q787 722 807.5 700.5 Q828 679 846.5 658 Q865 637 877 622 L826 564 Z" /><glyph glyph-name="uni4F10" unicode="&#x4f10;" d="M928 105 Q920 70 909 37.5 Q898 5 884 -27 Q870 -59 841 -77 Q812 -95 783 -95 Q766 -95 746 -89.5 Q726 -84 704 -71 Q682 -58 660 -36.5 Q638 -15 618 18 Q592 61 571 117 Q516 78 455.5 43.5 Q395 9 327 -23 L290 45 Q436 109 546 189 Q513 300 494 464 L313 442 L305 513 L487 535 L481 607 Q479 631 477 664 Q475 697 473 727 Q470 762 468 799 L542 798 Q543 768 545 735 Q547 706 549 670.5 Q551 635 554 598 Q556 584 556.5 570.5 Q557 557 559 544 L912 587 L920 516 L567 473 Q575 402 585.5 344 Q596 286 609 237 Q725 337 801 457 L859 411 Q765 270 632 163 Q656 97 686 49 Q709 14 736.5 0 Q764 -14 781 -14 Q798 -14 810 -2.5 Q822 9 833 34 Q845 60 853 90 Q861 120 868 147 L928 105 ZM351 778 Q331 718 309 663.5 Q287 609 262 558 L262 -101 L192 -101 L192 429 Q146 354 89 283 L30 333 Q64 373 100 427 Q136 481 168.5 542.5 Q201 604 229 668.5 Q257 733 277 795 L351 778 ZM774 588 Q758 606 736.5 626.5 Q715 647 691.5 667 Q668 687 646.5 704.5 Q625 722 609 733 L649 786 Q665 775 688.5 757 Q712 739 736 719.5 Q760 700 782 680.5 Q804 661 818 647 L774 588 Z" /><glyph glyph-name="uni4F11" unicode="&#x4f11;" d="M902 23 Q817 108 751 202 Q685 296 637 404 L637 -101 L558 -101 L558 393 Q537 344 512.5 299.5 Q488 255 458.5 211 Q429 167 392.5 120.5 Q356 74 310 22 L251 75 Q358 179 430.5 294.5 Q503 410 551 543 L324 543 L324 619 L558 619 L558 807 L637 804 L637 619 L906 619 L906 543 L646 543 Q695 412 776 295.5 Q857 179 960 82 L902 23 ZM326 767 Q307 705 287 652.5 Q267 600 244 553 L244 -101 L175 -101 L175 425 Q152 388 127.5 353.5 Q103 319 76 284 L19 337 Q90 431 150 542 Q210 653 248 784 L326 767 Z" /><glyph glyph-name="uni4F17" unicode="&#x4f17;" d="M495 712 Q429 620 331.5 540.5 Q234 461 96 387 L48 456 Q191 528 293.5 610.5 Q396 693 459 793 L530 793 Q596 689 698.5 607 Q801 525 938 456 L892 386 Q759 456 661.5 535.5 Q564 615 495 712 ZM449 116 Q439 131 425 149.5 Q411 168 395 188 Q379 208 361 228.5 Q343 249 326 267 Q315 218 297 173 Q279 128 254 84 Q229 40 195.5 -4 Q162 -48 119 -94 L50 -44 Q105 11 144.5 61.5 Q184 112 210.5 164.5 Q237 217 251.5 274.5 Q266 332 271 401 L277 489 L351 484 Q351 479 350.5 466.5 Q350 454 349 440 Q348 426 347 413.5 Q346 401 345 396 Q344 385 343.5 374.5 Q343 364 341 354 Q360 336 382.5 312 Q405 288 427.5 263.5 Q450 239 469.5 215.5 Q489 192 502 175 L449 116 ZM671 372 Q691 247 757 148 Q823 49 936 -35 L884 -97 Q799 -31 737 48 Q675 127 641 223 Q611 131 552.5 53 Q494 -25 402 -107 L343 -50 Q408 4 454 55 Q500 106 530 159 Q560 212 576 269.5 Q592 327 597 395 Q598 405 598.5 419 Q599 433 600 446.5 Q601 460 601.5 471.5 Q602 483 602 489 L679 484 L673 392 Q672 387 672 382 Q672 377 671 372 Z" /><glyph glyph-name="uni4F18" unicode="&#x4f18;" d="M338 786 Q300 667 251 562 L251 -96 L177 -96 L177 424 Q154 387 130 352.5 Q106 318 79 286 L23 337 Q62 382 97.5 436.5 Q133 491 163.5 551 Q194 611 219.5 674.5 Q245 738 264 800 L338 786 ZM578 504 Q574 405 561 325.5 Q548 246 520.5 175.5 Q493 105 447 39 Q401 -27 331 -98 L267 -47 Q334 18 376.5 77.5 Q419 137 444.5 201 Q470 265 482 338 Q494 411 499 504 L312 504 L312 578 L503 578 Q504 596 504.5 631.5 Q505 667 505.5 703 Q506 739 506.5 767 Q507 795 507 800 L584 797 L580 578 L906 578 L906 504 L578 504 ZM804 580 Q793 598 776 622.5 Q759 647 740.5 671.5 Q722 696 704.5 717 Q687 738 675 749 L729 790 Q744 775 762 754.5 Q780 734 798 712.5 Q816 691 832 670 Q848 649 859 633 L804 580 ZM932 134 Q931 114 929 89.5 Q927 65 924 39 Q920 9 913 -11 Q906 -31 893.5 -43 Q881 -55 860.5 -61 Q840 -67 810 -70 Q802 -71 789.5 -71.5 Q777 -72 763.5 -72 Q750 -72 737.5 -71.5 Q725 -71 717 -70 Q691 -68 672 -62 Q653 -56 640.5 -43.5 Q628 -31 622 -10 Q616 11 616 44 L616 461 L691 458 L691 64 Q691 46 692.5 34 Q694 22 699 15.5 Q704 9 713.5 6 Q723 3 739 2 Q748 1 767 1 Q786 1 795 2 Q810 3 819.5 5 Q829 7 836 13 Q843 19 846.5 30.5 Q850 42 853 62 Q856 85 858 109 Q860 133 861 158 L932 134 Z" /><glyph glyph-name="uni4F19" unicode="&#x4f19;" d="M644 495 Q651 403 673 328 Q695 253 732.5 190 Q770 127 824.5 73.5 Q879 20 950 -31 L889 -97 Q794 -19 723.5 73.5 Q653 166 615 286 Q598 229 571.5 178.5 Q545 128 508 81 Q471 34 423.5 -12 Q376 -58 317 -105 L263 -42 Q347 17 405 77.5 Q463 138 498.5 208 Q534 278 550 360.5 Q566 443 566 547 L566 797 L644 794 L644 495 ZM332 770 Q313 710 291.5 655 Q270 600 245 548 L245 -101 L173 -101 L173 417 Q150 379 125.5 344 Q101 309 75 275 L23 332 Q60 374 94.5 427 Q129 480 159 539 Q189 598 213.5 660.5 Q238 723 255 783 L332 770 ZM912 616 Q900 586 881 547 Q862 508 840.5 468 Q819 428 796.5 391 Q774 354 756 330 L691 366 Q708 390 729.5 426 Q751 462 772 502 Q793 542 811.5 580 Q830 618 841 646 L912 616 ZM456 312 Q443 346 424 386.5 Q405 427 384 467 Q363 507 342 543 Q321 579 304 604 L368 640 Q385 616 406 581 Q427 546 448 507 Q469 468 488 429.5 Q507 391 520 360 L456 312 Z" /><glyph glyph-name="uni4F1A" unicode="&#x4f1a;" d="M530 802 Q595 709 702 625.5 Q809 542 949 475 L910 406 Q858 434 799 471.5 Q740 509 683.5 551.5 Q627 594 577 639.5 Q527 685 494 730 Q428 640 319 555.5 Q210 471 77 402 L36 467 Q179 535 286 621.5 Q393 708 459 802 L530 802 ZM746 491 L746 423 L241 423 L241 491 L746 491 ZM84 293 L901 293 L901 223 L471 223 Q430 167 383 113.5 Q336 60 294 21 Q317 21 365 22.5 Q413 24 470 26.5 Q527 29 585.5 31 Q644 33 688 35 Q660 69 633 98 Q606 127 585 147 L640 191 Q661 171 690 140.5 Q719 110 748 76 Q777 42 803.5 8.5 Q830 -25 847 -50 L792 -109 Q782 -92 769 -72.5 Q756 -53 740 -32 Q712 -33 670.5 -34.5 Q629 -36 581 -37.5 Q533 -39 483 -41 Q433 -43 389.5 -45 Q346 -47 312 -49 Q278 -51 262 -52 Q233 -54 209 -56.5 Q185 -59 164 -63 L149 6 Q172 14 183.5 21.5 Q195 29 212 41 Q231 57 252.5 78.5 Q274 100 295.5 124 Q317 148 338 173.5 Q359 199 377 223 L84 223 L84 293 Z" /><glyph glyph-name="uni4F1E" unicode="&#x4f1e;" d="M493 734 Q422 650 315 567 Q208 484 68 412 L26 482 Q90 512 153 549.5 Q216 587 273 629.5 Q330 672 377.5 717 Q425 762 458 806 L527 806 Q599 715 708 632 Q817 549 961 479 L918 411 Q776 490 669 570 Q562 650 493 734 ZM530 179 L926 179 L926 106 L530 106 L530 -100 L451 -100 L452 106 L61 106 L61 179 L452 179 L454 580 L530 577 L530 179 ZM596 286 Q611 299 631.5 322 Q652 345 672.5 372 Q693 399 712 427 Q731 455 743 477 L805 433 Q793 412 774 384.5 Q755 357 734 329.5 Q713 302 691.5 277 Q670 252 654 237 L596 286 ZM329 231 Q316 253 297 281 Q278 309 257 336.5 Q236 364 216 388.5 Q196 413 182 430 L239 476 Q255 458 276 432.5 Q297 407 318 380 Q339 353 357.5 328 Q376 303 388 285 L329 231 Z" /><glyph glyph-name="uni4F1F" unicode="&#x4f1f;" d="M902 306 Q901 274 900 248.5 Q899 223 897.5 201.5 Q896 180 894.5 159.5 Q893 139 892 117 Q890 85 883 63 Q876 41 863 27.5 Q850 14 830 7.5 Q810 1 781 -1 L721 -6 L694 67 L754 72 Q773 73 784.5 76.5 Q796 80 802.5 87 Q809 94 811.5 104 Q814 114 816 129 Q817 140 818.5 154 Q820 168 821 183 Q822 198 823 211.5 Q824 225 824 235 L623 235 L623 -99 L548 -99 L548 235 L315 235 L315 306 L548 306 L548 418 L370 418 L370 487 L548 487 L548 600 L345 600 L345 669 L548 669 L548 804 L623 801 L623 669 L900 669 L900 600 L623 600 L623 487 L860 487 L860 418 L623 418 L623 306 L902 306 ZM345 782 Q330 738 307.5 683 Q285 628 254 566 L254 -95 L180 -95 L180 433 Q157 396 131 359.5 Q105 323 76 288 L20 344 Q64 394 103 453 Q142 512 174.5 572 Q207 632 232 690 Q257 748 274 797 L345 782 Z" /><glyph glyph-name="uni4F20" unicode="&#x4f20;" d="M537 411 Q518 349 501 304 L846 304 L846 235 Q815 182 780 133.5 Q745 85 708 39 Q747 19 782 0 Q817 -19 845 -36 L814 -118 Q774 -89 718.5 -57.5 Q663 -26 603.5 4 Q544 34 486.5 59 Q429 84 386 99 L414 165 Q459 150 519 125 Q579 100 641 71 Q672 109 701 149.5 Q730 190 755 234 L421 234 L420 298 Q430 323 440 351 Q450 379 459 411 L296 411 L296 479 L479 479 Q487 508 494 537 Q501 566 508 596 L349 596 L349 664 L522 664 Q530 702 535.5 738.5 Q541 775 546 809 L619 799 Q614 767 609 733 Q604 699 597 664 L888 664 L888 596 L583 596 Q576 566 569.5 537 Q563 508 555 479 L937 479 L937 411 L537 411 ZM340 788 Q320 731 298.5 680 Q277 629 254 581 L254 -104 L182 -104 L182 452 Q157 412 129.5 374 Q102 336 72 298 L19 352 Q53 391 86.5 442 Q120 493 152 551 Q184 609 212.5 673 Q241 737 264 803 L340 788 Z" /><glyph glyph-name="uni4F24" unicode="&#x4f24;" d="M934 676 L934 603 L483 603 Q429 514 368 440 L307 483 Q367 552 417 635.5 Q467 719 502 808 L578 793 Q566 762 552 733 Q538 704 524 676 L934 676 ZM343 777 Q321 716 298.5 663 Q276 610 252 561 L252 -99 L181 -99 L181 433 Q159 398 135 364 Q111 330 85 296 L26 344 Q61 387 96 440 Q131 493 163 551.5 Q195 610 222.5 672.5 Q250 735 271 797 L343 777 ZM591 545 Q591 534 590 518.5 Q589 503 588.5 484.5 Q588 466 587 447 Q586 428 585 411 L873 411 Q873 403 871.5 376.5 Q870 350 868.5 314.5 Q867 279 865 238.5 Q863 198 861 161 Q859 124 857.5 95 Q856 66 855 54 Q853 18 844.5 -5.5 Q836 -29 816.5 -44 Q797 -59 765 -66 Q733 -73 683 -76 L616 -80 L591 -5 L679 -1 Q712 0 731 4 Q750 8 760 17.5 Q770 27 773.5 43 Q777 59 779 86 Q780 96 781 116 Q782 136 783.5 161.5 Q785 187 786.5 215 Q788 243 789 268.5 Q790 294 791 313.5 Q792 333 792 341 L581 341 Q575 264 562 205 Q549 146 522 95.5 Q495 45 449.5 -3.5 Q404 -52 331 -108 L275 -52 Q342 -3 384.5 38.5 Q427 80 452 124 Q477 168 488.5 220 Q500 272 506 341 L331 341 L331 411 L511 411 Q513 446 513.5 485.5 Q514 525 515 548 L591 545 Z" /><glyph glyph-name="uni4F26" unicode="&#x4f26;" d="M334 787 Q314 730 294 677 Q274 624 251 573 L251 -99 L178 -99 L178 428 Q134 351 84 283 L24 335 Q56 378 89 434 Q122 490 152.5 551.5 Q183 613 209.5 678 Q236 743 254 806 L334 787 ZM614 711 Q579 647 530.5 588 Q482 529 422 474 L498 469 L498 281 Q532 296 570 315.5 Q608 335 645.5 355.5 Q683 376 716.5 397 Q750 418 775 436 L812 365 Q785 346 747 324 Q709 302 666 279.5 Q623 257 579.5 236 Q536 215 498 199 L498 80 Q498 56 501 41.5 Q504 27 512.5 19 Q521 11 536 7.5 Q551 4 575 3 Q634 0 693 3 Q744 5 764.5 15 Q785 25 790 49 Q795 75 798 102 Q801 129 803 156 L880 128 Q875 95 871 63 Q867 31 859 0 Q851 -31 818.5 -49 Q786 -67 716 -70 Q639 -73 563 -70 Q523 -69 495.5 -62 Q468 -55 450.5 -39 Q433 -23 425.5 4.5 Q418 32 418 76 L418 470 Q373 430 324 394 L272 457 Q315 488 359.5 526.5 Q404 565 444.5 608.5 Q485 652 519.5 698.5 Q554 745 578 792 L650 792 Q672 744 704.5 697.5 Q737 651 777 607.5 Q817 564 863 525.5 Q909 487 957 457 L906 394 Q863 427 820.5 463.5 Q778 500 740 540 Q702 580 669.5 623 Q637 666 614 711 Z" /><glyph glyph-name="uni4F2A" unicode="&#x4f2a;" d="M887 571 Q886 556 885 519.5 Q884 483 882 434.5 Q880 386 877.5 330 Q875 274 873 222 Q871 170 868.5 126.5 Q866 83 865 59 Q863 22 852.5 -2 Q842 -26 822 -41 Q802 -56 770.5 -63.5 Q739 -71 694 -74 L635 -78 L608 -2 L686 2 Q715 3 734.5 8 Q754 13 766 23 Q778 33 784 50 Q790 67 792 93 Q794 113 796 146.5 Q798 180 799.5 219.5 Q801 259 803 301 Q805 343 806 381 Q807 419 808 449.5 Q809 480 810 496 L598 496 Q593 451 588 412.5 Q583 374 575 339 L621 385 Q638 370 659 348.5 Q680 327 700.5 304 Q721 281 738.5 259 Q756 237 766 221 L713 165 Q679 218 641.5 263 Q604 308 574 338 Q560 272 539 217.5 Q518 163 486.5 113 Q455 63 413 13 Q371 -37 315 -92 L257 -38 Q329 32 377 89 Q425 146 455.5 205.5 Q486 265 502 334 Q518 403 526 496 L303 496 L303 571 L531 571 Q532 589 534 626 Q536 663 537.5 700.5 Q539 738 540.5 767 Q542 796 542 800 L615 797 Q615 789 613.5 759.5 Q612 730 610 694 Q608 658 606 623.5 Q604 589 603 571 L887 571 ZM322 783 Q306 728 287.5 677.5 Q269 627 249 579 L249 -94 L180 -94 L180 440 Q158 401 134 363.5 Q110 326 83 290 L32 340 Q63 382 94.5 435.5 Q126 489 154.5 548.5 Q183 608 208 671 Q233 734 250 795 L322 783 ZM450 589 Q441 605 426.5 625.5 Q412 646 396 666.5 Q380 687 364.5 705 Q349 723 337 735 L383 777 Q395 766 411.5 748.5 Q428 731 444 711.5 Q460 692 475 673 Q490 654 499 640 L450 589 Z" /><glyph glyph-name="uni4F2F" unicode="&#x4f2f;" d="M870 661 L870 -102 L797 -102 L797 -34 L460 -34 L460 -104 L387 -104 L387 661 L542 661 Q550 677 557.5 697 Q565 717 571.5 737.5 Q578 758 583 777 Q588 796 591 810 L679 800 Q676 787 670.5 770 Q665 753 659 734 Q653 715 646 696 Q639 677 633 661 L870 661 ZM331 790 Q314 736 295 687 Q276 638 256 592 L256 -100 L184 -100 L184 453 Q139 375 79 299 L22 354 Q58 394 92 446.5 Q126 499 156.5 557.5 Q187 616 213 679 Q239 742 259 804 L331 790 ZM460 591 L460 358 L797 358 L797 591 L460 591 ZM797 38 L797 287 L460 287 L460 38 L797 38 Z" /><glyph glyph-name="uni4F30" unicode="&#x4f30;" d="M329 783 Q310 725 289 674 Q268 623 245 576 L245 -104 L172 -104 L172 444 Q148 406 122.5 370 Q97 334 70 299 L21 351 Q54 392 87 443.5 Q120 495 150 553 Q180 611 206 673.5 Q232 736 251 799 L329 783 ZM652 550 L652 352 L851 352 L851 -109 L774 -109 L774 -42 L454 -42 L454 -109 L378 -109 L378 352 L578 352 L578 550 L320 550 L320 622 L578 622 L578 797 L652 794 L652 622 L928 622 L928 550 L652 550 ZM774 277 L454 277 L454 31 L774 31 L774 277 Z" /><glyph glyph-name="uni4F34" unicode="&#x4f34;" d="M942 148 L660 148 L660 -100 L585 -100 L585 148 L318 148 L318 220 L585 220 L585 363 L372 363 L372 432 L585 432 L585 809 L660 806 L660 432 L895 432 L895 363 L660 363 L660 220 L942 220 L942 148 ZM333 779 Q319 741 299.5 690.5 Q280 640 253 582 L253 -100 L178 -100 L178 442 Q155 404 129 366.5 Q103 329 73 293 L18 347 Q65 399 102.5 458.5 Q140 518 170 578 Q200 638 222 696.5 Q244 755 259 805 L333 779 ZM899 722 Q888 693 878 665.5 Q868 638 855 609.5 Q842 581 826 549.5 Q810 518 789 481 L722 512 Q765 581 789.5 635.5 Q814 690 831 747 L899 722 ZM457 478 Q432 545 403.5 605.5 Q375 666 354 708 L416 740 Q438 695 467 635 Q496 575 522 512 L457 478 Z" /><glyph glyph-name="uni4F36" unicode="&#x4f36;" d="M333 788 Q315 732 294.5 680 Q274 628 251 579 L251 -91 L180 -91 L180 444 Q129 358 71 284 L20 346 Q56 393 90.5 447 Q125 501 156 559.5 Q187 618 212.5 680 Q238 742 257 805 L333 788 ZM635 802 Q685 701 765.5 617 Q846 533 954 467 L906 407 Q809 475 729 553 Q649 631 599 725 Q554 641 479.5 562 Q405 483 308 408 L261 465 Q366 541 440 624.5 Q514 708 562 802 L635 802 ZM623 356 Q614 374 598.5 396 Q583 418 566.5 439.5 Q550 461 533.5 480 Q517 499 505 510 L558 558 Q570 546 587 526.5 Q604 507 621 486 Q638 465 652.5 445 Q667 425 676 411 L623 356 ZM327 339 L843 339 L843 269 Q754 152 652 51 Q686 28 715.5 6 Q745 -16 767 -34 L725 -108 Q694 -78 648 -43 Q602 -8 552 26 Q502 60 453.5 89 Q405 118 369 135 L411 195 Q446 178 493.5 150.5 Q541 123 592 91 Q634 133 672.5 178 Q711 223 749 271 L327 271 L327 339 Z" /><glyph glyph-name="uni4F38" unicode="&#x4f38;" d="M325 791 Q304 724 282.5 668 Q261 612 237 561 L237 -94 L169 -94 L169 434 Q149 400 126 366 Q103 332 77 296 L21 350 Q91 444 150.5 560 Q210 676 247 806 L325 791 ZM883 103 L654 103 L654 -98 L584 -98 L584 103 L356 103 L356 662 L584 662 L584 806 L654 803 L654 662 L883 662 L883 103 ZM425 591 L425 417 L584 417 L584 591 L425 591 ZM654 591 L654 417 L813 417 L813 591 L654 591 ZM584 172 L584 346 L425 346 L425 172 L584 172 ZM813 172 L813 346 L654 346 L654 172 L813 172 Z" /><glyph glyph-name="uni4F3A" unicode="&#x4f3a;" d="M331 789 Q311 724 290.5 668.5 Q270 613 247 562 L247 -96 L178 -96 L178 430 Q156 395 132 360 Q108 325 79 289 L22 343 Q94 437 154 554.5 Q214 672 252 800 L331 789 ZM876 739 L876 37 Q876 2 870 -20.5 Q864 -43 847.5 -56.5 Q831 -70 802.5 -77 Q774 -84 730 -87 L671 -91 L644 -18 L718 -13 Q746 -11 763 -7 Q780 -3 789 5 Q798 13 801 26 Q804 39 804 60 L804 668 L362 668 L362 739 L876 739 ZM756 479 L316 479 L316 547 L756 547 L756 479 ZM688 52 L368 52 L368 363 L688 363 L688 52 ZM618 294 L437 294 L437 121 L618 121 L618 294 Z" /><glyph glyph-name="uni4F3C" unicode="&#x4f3c;" d="M324 787 Q307 735 288.5 684.5 Q270 634 249 585 L249 -95 L179 -95 L179 441 Q156 399 132 360.5 Q108 322 82 287 L25 344 Q59 387 92 441 Q125 495 154 554.5 Q183 614 207 677 Q231 740 249 802 L324 787 ZM620 514 Q611 539 596 571.5 Q581 604 563.5 637 Q546 670 528 700 Q510 730 496 749 L554 784 Q568 765 586 736.5 Q604 708 622 677.5 Q640 647 656 617 Q672 587 681 566 L620 514 ZM890 -77 Q879 -54 861.5 -26 Q844 2 824 30.5 Q804 59 782 87 Q760 115 741 139 Q702 73 640.5 15.5 Q579 -42 488 -106 L439 -42 Q502 1 549 39 Q596 77 630.5 116 Q665 155 687.5 197.5 Q710 240 724.5 291.5 Q739 343 746.5 405.5 Q754 468 757 548 Q758 575 759 608 Q760 641 760.5 673 Q761 705 761 731.5 Q761 758 761 771 L835 769 Q835 757 835 731 Q835 705 834 672.5 Q833 640 832.5 606.5 Q832 573 831 546 Q828 437 815.5 355 Q803 273 775 207 Q796 184 820.5 154 Q845 124 868.5 92.5 Q892 61 913 31 Q934 1 947 -22 L890 -77 ZM645 275 Q639 271 624.5 258 Q610 245 590 228 Q570 211 547.5 191.5 Q525 172 505 154 Q485 136 469 121.5 Q453 107 446 100 Q437 92 426 81 Q415 70 398 54 L348 109 Q365 126 370 137.5 Q375 149 375 162 L375 715 L447 713 L447 194 Q460 206 485.5 229.5 Q511 253 537.5 277.5 Q564 302 585.5 322 Q607 342 611 346 L645 275 Z" /><glyph glyph-name="uni4F43" unicode="&#x4f43;" d="M318 779 Q283 669 241 578 L241 -103 L167 -103 L167 436 Q146 401 122.5 366 Q99 331 73 294 L16 347 Q91 440 148 553 Q205 666 243 793 L318 779 ZM878 727 L878 -92 L805 -92 L805 -24 L423 -24 L423 -92 L351 -92 L351 727 L878 727 ZM423 653 L423 395 L577 395 L577 653 L423 653 ZM805 653 L647 653 L647 395 L805 395 L805 653 ZM423 52 L577 52 L577 320 L423 320 L423 52 ZM805 52 L805 320 L647 320 L647 52 L805 52 Z" /><glyph glyph-name="uni4F46" unicode="&#x4f46;" d="M329 778 Q309 719 288.5 666.5 Q268 614 245 566 L245 -111 L172 -111 L172 429 Q128 358 75 290 L22 348 Q56 389 88.5 440 Q121 491 150.5 548.5 Q180 606 205.5 668.5 Q231 731 251 795 L329 778 ZM866 173 L386 173 L386 737 L866 737 L866 173 ZM462 664 L462 494 L789 494 L789 664 L462 664 ZM789 249 L789 422 L462 422 L462 249 L789 249 ZM943 19 L943 -56 L303 -56 L303 19 L943 19 Z" /><glyph glyph-name="uni4F4D" unicode="&#x4f4d;" d="M328 793 Q309 734 289.5 681.5 Q270 629 248 579 L248 -90 L176 -90 L176 438 Q131 361 76 290 L17 343 Q91 443 151 560 Q211 677 249 806 L328 793 ZM916 568 L332 568 L332 639 L597 639 Q592 657 584.5 678.5 Q577 700 569 720.5 Q561 741 554 758.5 Q547 776 543 785 L613 805 Q618 794 627 772.5 Q636 751 645 726 Q654 701 662 677.5 Q670 654 675 639 L916 639 L916 568 ZM934 25 L934 -46 L304 -46 L304 25 L618 25 Q636 73 657 138 Q678 203 697.5 271.5 Q717 340 733.5 405.5 Q750 471 759 519 L838 503 Q828 457 811.5 395.5 Q795 334 775.5 268.5 Q756 203 735.5 139 Q715 75 696 25 L934 25 ZM501 88 Q496 128 483.5 183 Q471 238 455 295 Q439 352 422 404.5 Q405 457 390 493 L460 513 Q475 478 492 425.5 Q509 373 525 317 Q541 261 553.5 207.5 Q566 154 571 116 L501 88 Z" /><glyph glyph-name="uni4F4E" unicode="&#x4f4e;" d="M326 785 Q307 726 286 674 Q265 622 242 574 L242 -101 L172 -101 L172 447 Q148 409 122.5 373 Q97 337 68 301 L19 353 Q52 395 86.5 448.5 Q121 502 152 561.5 Q183 621 209 684 Q235 747 252 808 L326 785 ZM942 99 Q934 67 926.5 39 Q919 11 907 -18 Q895 -47 875.5 -64.5 Q856 -82 833 -82 Q802 -82 767 -49 Q732 -16 706 60 Q686 120 671.5 196.5 Q657 273 648 367 L450 367 L450 83 Q457 89 471 100 Q485 111 502 124 Q519 137 537.5 150.5 Q556 164 572 176 Q588 188 600 196.5 Q612 205 616 208 L639 134 Q634 131 617.5 119.5 Q601 108 579.5 93 Q558 78 533.5 61 Q509 44 487.5 29 Q466 14 450.5 3 Q435 -8 431 -11 L386 -46 L345 16 Q365 35 370.5 45 Q376 55 376 72 L376 707 Q432 710 494 716 Q556 722 619.5 730.5 Q683 739 745.5 749 Q808 759 865 771 L881 699 Q840 690 794 682 Q748 674 700 666 Q702 605 704.5 548.5 Q707 492 711 439 L916 439 L916 367 L717 367 Q727 274 740.5 200.5 Q754 127 773 76 Q784 46 799 27 Q814 8 833 8 Q852 8 864 50 Q877 93 884 135 L942 99 ZM642 439 Q638 490 635.5 544 Q633 598 631 657 Q577 649 530.5 644.5 Q484 640 450 637 L450 439 L642 439 ZM563 60 Q572 49 586 32.5 Q600 16 614 -2 Q628 -20 641 -38 Q654 -56 662 -69 L611 -112 Q601 -95 587.5 -76.5 Q574 -58 560.5 -40 Q547 -22 533.5 -6 Q520 10 510 21 L563 60 Z" /><glyph glyph-name="uni4F4F" unicode="&#x4f4f;" d="M934 21 L934 -52 L297 -52 L297 21 L566 21 L566 270 L343 270 L343 343 L566 343 L566 562 L319 562 L319 635 L576 635 Q571 654 564.5 677.5 Q558 701 551.5 723.5 Q545 746 539 765 Q533 784 529 794 L603 808 Q607 797 614.5 775 Q622 753 629.5 727 Q637 701 644 676 Q651 651 656 635 L902 635 L902 562 L643 562 L643 343 L870 343 L870 270 L643 270 L643 21 L934 21 ZM321 772 Q303 715 283.5 664.5 Q264 614 243 566 L243 -95 L171 -95 L171 426 Q130 355 81 291 L25 351 Q56 393 87.5 443.5 Q119 494 148.5 550.5 Q178 607 204 668 Q230 729 249 791 L321 772 Z" /><glyph glyph-name="uni4F51" unicode="&#x4f51;" d="M591 584 Q574 535 553 485.5 Q532 436 503 385 L861 385 L861 -95 L784 -95 L784 -26 L500 -26 L500 -95 L424 -95 L424 260 Q397 222 366 185 Q335 148 299 110 L252 168 L252 -98 L180 -98 L180 439 Q130 359 72 289 L28 357 Q60 396 94 447 Q128 498 159 555 Q190 612 216.5 673.5 Q243 735 261 795 L334 784 Q317 727 296 674.5 Q275 622 252 572 L252 170 Q353 275 415.5 379.5 Q478 484 513 584 L334 584 L334 659 L536 659 Q547 696 554 731.5 Q561 767 566 800 L643 790 Q638 758 630.5 725 Q623 692 614 659 L945 659 L945 584 L591 584 ZM784 309 L500 309 L500 47 L784 47 L784 309 Z" /><glyph glyph-name="uni4F53" unicode="&#x4f53;" d="M677 559 Q705 490 736.5 430 Q768 370 804 318 Q840 266 881.5 220.5 Q923 175 972 134 L919 70 Q863 122 820 175.5 Q777 229 743 284.5 Q709 340 682 399 Q655 458 631 523 L631 144 L805 144 L805 75 L631 75 L631 -100 L555 -100 L555 75 L387 75 L389 144 L555 144 L555 510 Q516 387 449 281.5 Q382 176 292 79 L236 133 L236 -92 L163 -92 L163 413 Q144 381 122.5 348 Q101 315 76 283 L20 333 Q113 458 167 577.5 Q221 697 248 798 L319 776 Q306 733 286 676.5 Q266 620 236 554 L236 135 Q319 216 393.5 323 Q468 430 512 559 L314 559 L314 630 L555 630 L555 800 L631 797 L631 630 L902 630 L902 559 L677 559 Z" /><glyph glyph-name="uni4F55" unicode="&#x4f55;" d="M312 784 Q295 724 275.5 670 Q256 616 234 566 L234 -103 L162 -103 L162 425 Q121 357 74 295 L13 342 Q46 379 79 431 Q112 483 142 543.5 Q172 604 196.5 669.5 Q221 735 238 798 L312 784 ZM939 658 L848 658 L848 49 Q848 9 841.5 -17 Q835 -43 817 -59.5 Q799 -76 767.5 -83.5 Q736 -91 686 -93 L620 -97 L593 -21 L676 -17 Q707 -16 726 -11.5 Q745 -7 755.5 2.5 Q766 12 769.5 28 Q773 44 773 70 L773 658 L326 658 L326 729 L939 729 L939 658 ZM656 136 L353 136 L353 524 L656 524 L656 136 ZM588 456 L421 456 L421 207 L588 207 L588 456 Z" /><glyph glyph-name="uni4F59" unicode="&#x4f59;" d="M493 730 Q424 636 318 557.5 Q212 479 74 409 L37 480 Q179 547 280.5 623 Q382 699 454 798 L531 798 Q602 700 705.5 623 Q809 546 950 479 L913 408 Q848 441 786.5 479 Q725 517 670.5 558 Q616 599 571 642.5 Q526 686 493 730 ZM539 242 L539 38 Q539 6 532.5 -15.5 Q526 -37 510.5 -50.5 Q495 -64 469.5 -70.5 Q444 -77 405 -80 L346 -84 L320 -7 L389 -3 Q413 -2 427 1 Q441 4 448 11.5 Q455 19 457 32 Q459 45 459 67 L459 242 L98 242 L98 315 L459 315 L459 438 L258 438 L258 509 L733 509 L733 438 L539 438 L539 315 L896 315 L896 242 L539 242 ZM679 197 Q703 182 735.5 158.5 Q768 135 801.5 108 Q835 81 865.5 54.5 Q896 28 916 7 L869 -59 Q849 -34 819.5 -5.5 Q790 23 757 51 Q724 79 692 103 Q660 127 636 142 L679 197 ZM335 149 Q316 125 288 95 Q260 65 229.5 35 Q199 5 169 -22 Q139 -49 116 -67 L65 -11 Q87 5 117 31 Q147 57 177 86 Q207 115 234.5 144 Q262 173 280 196 L335 149 Z" /><glyph glyph-name="uni4F5B" unicode="&#x4f5b;" d="M902 290 Q902 286 901 271 Q900 256 898.5 235 Q897 214 895.5 190 Q894 166 892.5 145 Q891 124 889.5 108.5 Q888 93 888 89 Q885 62 878.5 44.5 Q872 27 860.5 17 Q849 7 831.5 1.5 Q814 -4 789 -7 L758 -11 L735 57 L773 61 Q802 64 812 77 Q822 90 824 118 Q824 122 825.5 137 Q827 152 828.5 169 Q830 186 831.5 200.5 Q833 215 833 220 L699 220 L699 -107 L630 -107 L630 220 L522 220 Q516 161 501.5 116 Q487 71 462 33.5 Q437 -4 400 -38.5 Q363 -73 314 -110 L262 -57 Q314 -21 349.5 10 Q385 41 407.5 72.5 Q430 104 440.5 139 Q451 174 454 220 L297 220 L316 482 L456 482 L456 608 L296 608 L296 674 L456 674 L456 800 L525 797 L525 674 L630 674 L630 801 L699 798 L699 674 L865 674 L865 416 L699 416 L699 290 L902 290 ZM300 786 Q267 676 230 586 L230 -98 L165 -98 L165 445 Q145 407 124 371.5 Q103 336 80 301 L19 348 Q48 388 78 440 Q108 492 136 550.5 Q164 609 188 672.5 Q212 736 230 799 L300 786 ZM525 482 L630 482 L630 608 L525 608 L525 482 ZM699 608 L699 482 L795 482 L795 608 L699 608 ZM370 290 L456 290 L456 416 L381 416 L370 290 ZM630 290 L630 416 L525 416 L525 290 L630 290 Z" /><glyph glyph-name="uni4F5C" unicode="&#x4f5c;" d="M608 580 L608 423 L865 423 L865 351 L608 351 L608 189 L883 189 L883 116 L608 116 L608 -102 L531 -102 L531 580 L486 580 Q458 529 422 474 Q386 419 336 356 L281 409 Q324 461 357 510 Q390 559 416.5 607.5 Q443 656 463.5 704 Q484 752 501 802 L571 773 Q561 745 549.5 716.5 Q538 688 524 656 L920 656 L920 580 L608 580 ZM336 757 Q319 715 298.5 666.5 Q278 618 251 564 L251 -98 L175 -98 L175 430 Q130 361 74 294 L20 350 Q68 405 105.5 462 Q143 519 172.5 574.5 Q202 630 223.5 683.5 Q245 737 262 786 L336 757 Z" /><glyph glyph-name="uni4F60" unicode="&#x4f60;" d="M298 435 Q325 473 350.5 517.5 Q376 562 399.5 610 Q423 658 442 707 Q461 756 475 802 L551 792 Q541 761 529.5 730.5 Q518 700 505 670 L902 670 L902 598 Q867 511 822 432 L754 457 Q774 490 791 525.5 Q808 561 824 598 L473 598 Q447 544 418.5 492.5 Q390 441 359 395 L298 435 ZM316 782 Q298 724 278.5 673 Q259 622 238 574 L238 -94 L167 -94 L167 435 Q147 401 125.5 368 Q104 335 81 303 L28 350 Q56 390 86.5 441.5 Q117 493 145.5 550.5 Q174 608 198 670 Q222 732 239 794 L316 782 ZM581 518 L654 516 L654 20 Q654 -8 648 -27.5 Q642 -47 627.5 -59.5 Q613 -72 588.5 -78.5 Q564 -85 526 -87 L476 -91 L450 -16 L510 -12 Q532 -11 546 -7.5 Q560 -4 568 2.5 Q576 9 578.5 19.5 Q581 30 581 46 L581 518 ZM491 355 Q462 261 418.5 166 Q375 71 328 -9 L264 20 Q286 56 309.5 99 Q333 142 354.5 188.5 Q376 235 395 282.5 Q414 330 427 373 L491 355 ZM785 373 Q804 342 827 296 Q850 250 872.5 200 Q895 150 914.5 102 Q934 54 945 19 L883 -20 Q872 17 853 67 Q834 117 812 168 Q790 219 767 266 Q744 313 726 344 L785 373 Z" /><glyph glyph-name="uni4F63" unicode="&#x4f63;" d="M295 781 Q278 724 261.5 674 Q245 624 225 576 L225 -98 L157 -98 L157 432 Q120 366 78 305 L26 358 Q87 443 138.5 552.5 Q190 662 225 790 L295 781 ZM873 743 L873 25 Q873 -5 867.5 -24 Q862 -43 850 -55 Q838 -67 818 -73 Q798 -79 769 -82 L736 -86 L710 -12 L745 -8 Q763 -6 774 -3.5 Q785 -1 791 5 Q797 11 799 21 Q801 31 801 48 L801 191 L645 191 L645 -76 L575 -76 L575 191 L418 191 Q415 146 408 107 Q401 68 390 32 Q379 -4 364 -37.5 Q349 -71 328 -106 L259 -71 Q288 -24 306 16 Q324 56 333.5 101.5 Q343 147 346.5 206 Q350 265 350 351 L350 743 L873 743 ZM422 671 L422 497 L575 497 L575 671 L422 671 ZM801 671 L645 671 L645 497 L801 497 L801 671 ZM575 263 L575 426 L422 426 L422 323 Q422 307 422 292 Q422 277 421 263 L575 263 ZM801 263 L801 426 L645 426 L645 263 L801 263 Z" /><glyph glyph-name="uni4F69" unicode="&#x4f69;" d="M279 786 Q264 720 245.5 661.5 Q227 603 205 548 L205 -90 L140 -90 L140 408 Q111 352 79 302 L27 352 Q55 394 82.5 447 Q110 500 134 558 Q158 616 178 677 Q198 738 210 797 L279 786 ZM962 125 Q958 93 953 62 Q948 31 938 2 Q928 -27 910 -44 Q892 -61 871 -61 Q861 -61 849 -54 Q837 -47 826 -34 Q815 -21 806 -2 Q797 17 793 41 Q788 67 785 88.5 Q782 110 780.5 137 Q779 164 778 201 Q777 238 777 296 L777 684 L367 684 L367 292 Q367 209 349 116.5 Q331 24 278 -75 L220 -40 Q247 9 263 56 Q279 103 287 146 Q295 189 297.5 227 Q300 265 300 297 L300 751 L844 751 L844 306 Q844 263 844 232 Q844 201 845 177 Q846 153 847 134.5 Q848 116 851 100 Q858 58 864.5 42 Q871 26 878 26 Q889 26 892 37 Q895 48 899 68 Q903 88 906 111.5 Q909 135 911 155 L962 125 ZM409 594 L744 594 L744 532 L600 532 L600 430 L736 430 L736 102 Q736 49 719.5 30 Q703 11 663 7 L637 4 L617 67 L641 69 Q660 71 667 79 Q674 87 674 116 L674 369 L600 369 L600 -88 L536 -88 L536 369 L474 369 L474 11 L411 11 L411 430 L536 430 L536 532 L409 532 L409 594 Z" /><glyph glyph-name="uni4F73" unicode="&#x4f73;" d="M584 594 L361 594 L361 664 L584 664 L584 799 L660 796 L660 664 L883 664 L883 594 L660 594 L660 451 L938 451 L938 380 L301 380 L301 451 L584 451 L584 594 ZM330 783 Q314 725 295 672.5 Q276 620 252 569 L252 -101 L180 -101 L180 434 Q158 397 133.5 359.5 Q109 322 81 281 L24 338 Q99 442 158 557 Q217 672 251 795 L330 783 ZM939 17 L939 -55 L295 -55 L295 17 L584 17 L584 175 L361 175 L361 244 L584 244 L584 349 L660 346 L660 244 L883 244 L883 175 L660 175 L660 17 L939 17 Z" /><glyph glyph-name="uni4F7F" unicode="&#x4f7f;" d="M303 787 Q287 727 269 674 Q251 621 231 570 L231 -102 L160 -102 L160 421 Q141 386 120.5 353 Q100 320 77 288 L23 341 Q51 382 80.5 435 Q110 488 137 547.5 Q164 607 188 671 Q212 735 230 800 L303 787 ZM928 -83 Q817 -66 724 -41 Q631 -16 554 23 Q514 -12 450.5 -40.5 Q387 -69 293 -99 L258 -34 Q343 -12 399.5 10.5 Q456 33 491 60 Q447 89 411 124.5 Q375 160 346 205 L397 246 Q425 204 458.5 169.5 Q492 135 535 107 Q554 136 561 172 Q568 208 569 253 L338 253 L338 511 L569 511 Q569 537 568.5 562 Q568 587 568 612 L303 612 L303 680 L568 680 L568 800 L641 798 L641 680 L915 680 L915 612 L641 612 Q641 587 641.5 562 Q642 537 642 511 L874 511 L874 253 L642 253 Q641 194 631 150 Q621 106 598 71 Q665 39 752 18 Q839 -3 954 -15 L928 -83 ZM407 320 L569 320 L569 445 L407 445 L407 320 ZM642 445 L642 320 L803 320 L803 445 L642 445 Z" /><glyph glyph-name="uni4F84" unicode="&#x4f84;" d="M321 774 Q285 662 240 563 L240 -103 L170 -103 L170 432 Q146 393 119.5 355 Q93 317 64 279 L14 338 Q85 427 146.5 544 Q208 661 248 792 L321 774 ZM334 435 Q348 439 356.5 442.5 Q365 446 372 453 Q385 468 405 492.5 Q425 517 447 546 Q469 575 491.5 606.5 Q514 638 533 666 L341 666 L341 737 L901 737 L901 666 L621 666 Q603 639 581.5 608.5 Q560 578 538.5 549 Q517 520 496.5 494 Q476 468 460 449 Q475 449 511.5 450.5 Q548 452 592 454 Q636 456 682 458 Q728 460 763 462 Q740 491 718 515 Q696 539 679 556 L731 600 Q750 582 775.5 553.5 Q801 525 827 494 Q853 463 876 432.5 Q899 402 914 380 L860 326 Q842 357 813 397 Q799 396 768.5 395 Q738 394 698.5 392.5 Q659 391 616 389 Q573 387 534.5 385.5 Q496 384 466.5 382.5 Q437 381 426 380 Q407 378 391.5 377 Q376 376 354 372 L334 435 ZM927 3 L927 -64 L301 -64 L301 3 L576 3 L576 164 L354 164 L354 234 L576 234 L576 353 L650 350 L650 234 L873 234 L873 164 L650 164 L650 3 L927 3 Z" /><glyph glyph-name="uni4F88" unicode="&#x4f88;" d="M296 542 Q392 599 461.5 667.5 Q531 736 576 807 L636 783 Q623 764 609.5 745.5 Q596 727 582 709 L879 709 L879 649 Q832 591 775 542.5 Q718 494 648 452.5 Q578 411 492.5 375 Q407 339 304 308 L274 371 Q451 419 580 487 Q709 555 794 649 L529 649 Q508 626 484 604 Q496 596 511 586 Q526 576 541 565 Q556 554 569 544 Q582 534 591 526 L542 476 Q533 486 520.5 497.5 Q508 509 494 521 Q480 533 465 544 Q450 555 437 564 Q415 546 391.5 528.5 Q368 511 342 494 L296 542 ZM324 788 Q304 726 283 670 Q262 614 239 562 L239 -102 L169 -102 L169 425 Q149 392 128 360 Q107 328 83 296 L27 350 Q102 441 157 556.5 Q212 672 248 798 L324 788 ZM908 341 L908 278 Q867 216 816 163 Q765 110 694.5 62.5 Q624 15 529.5 -27.5 Q435 -70 307 -109 L273 -47 Q390 -13 476 22.5 Q562 58 626.5 97 Q691 136 738.5 180.5 Q786 225 826 278 L570 278 Q542 250 514 225 Q527 216 542.5 204.5 Q558 193 573 181 Q588 169 601 157.5 Q614 146 624 137 L575 81 Q555 104 523 132.5 Q491 161 463 182 Q404 137 337 95 L291 147 Q405 213 481.5 283.5 Q558 354 615 431 L677 407 Q665 390 653 374 Q641 358 627 341 L908 341 Z" /><glyph glyph-name="uni4F8B" unicode="&#x4f8b;" d="M297 790 Q280 733 263.5 681.5 Q247 630 228 582 L228 -99 L162 -99 L162 436 Q144 401 124 367 Q104 333 81 298 L26 346 Q58 391 87 444.5 Q116 498 140.5 556.5 Q165 615 186 676.5 Q207 738 223 800 L297 790 ZM884 789 L884 36 Q884 3 877.5 -19 Q871 -41 855 -55 Q839 -69 811.5 -76 Q784 -83 743 -86 L689 -90 L665 -19 L734 -15 Q759 -14 775 -9.5 Q791 -5 800 3 Q809 11 812.5 24.5 Q816 38 816 58 L816 791 L884 789 ZM311 745 L637 745 L637 676 L470 676 Q464 639 456.5 603 Q449 567 439 531 L604 531 L604 454 Q587 357 568 284 Q549 211 517.5 147.5 Q486 84 437.5 23.5 Q389 -37 314 -108 L265 -56 Q334 6 380 67.5 Q426 129 457 192.5 Q488 256 506 322.5 Q524 389 536 461 L419 461 Q404 412 383 361 Q393 352 405 340.5 Q417 329 429 317 Q441 305 452 294 Q463 283 470 274 L433 208 Q420 228 397 252 Q374 276 354 295 Q330 244 300 193 L247 236 Q307 338 345.5 453.5 Q384 569 403 676 L311 676 L311 745 ZM730 124 L663 124 L663 687 L730 685 L730 124 Z" /><glyph glyph-name="uni4F8D" unicode="&#x4f8d;" d="M936 482 L936 413 L295 413 L295 482 L567 482 L567 603 L348 603 L348 675 L567 675 L567 801 L645 798 L645 675 L879 675 L879 603 L645 603 L645 482 L936 482 ZM330 783 Q288 669 244 578 L244 -93 L173 -93 L173 447 Q129 376 77 306 L22 360 Q92 451 151.5 561 Q211 671 253 799 L330 783 ZM780 302 L913 302 L913 231 L780 231 L780 34 Q780 0 773.5 -21.5 Q767 -43 750.5 -56.5 Q734 -70 705.5 -76.5 Q677 -83 633 -86 L579 -90 L556 -19 L621 -15 Q647 -14 663 -9.5 Q679 -5 687.5 3.5 Q696 12 698.5 25.5 Q701 39 701 59 L701 231 L317 231 L317 302 L701 302 L701 379 L780 376 L780 302 ZM430 214 Q443 202 462 183.5 Q481 165 500.5 144.5 Q520 124 537.5 104 Q555 84 565 70 L514 12 Q503 29 486 51 Q469 73 450 95 Q431 117 412.5 136.5 Q394 156 381 168 L430 214 Z" /><glyph glyph-name="uni4F9B" unicode="&#x4f9b;" d="M322 794 Q303 734 283 682.5 Q263 631 240 583 L240 -97 L167 -97 L167 451 Q145 416 120.5 380.5 Q96 345 69 308 L16 361 Q50 402 83 453 Q116 504 146.5 562 Q177 620 203 683 Q229 746 248 810 L322 794 ZM934 292 L934 219 L280 219 L280 292 L436 292 L436 543 L324 543 L324 613 L436 613 L436 800 L511 797 L511 613 L703 613 L703 800 L776 797 L776 613 L900 613 L900 543 L776 543 L776 292 L934 292 ZM511 292 L703 292 L703 543 L511 543 L511 292 ZM281 -42 Q310 -21 341 6 Q372 33 401 62.5 Q430 92 456.5 122 Q483 152 503 179 L558 131 Q535 103 507 72.5 Q479 42 449 11.5 Q419 -19 389.5 -47 Q360 -75 335 -97 L281 -42 ZM705 177 Q726 159 754.5 131 Q783 103 812 72.5 Q841 42 867.5 11.5 Q894 -19 912 -41 L865 -100 Q848 -74 821 -42.5 Q794 -11 764.5 20 Q735 51 706.5 79 Q678 107 657 126 L705 177 Z" /><glyph glyph-name="uni4F9D" unicode="&#x4f9d;" d="M709 283 Q752 202 810 140.5 Q868 79 944 28 L891 -37 Q825 11 774.5 62.5 Q724 114 685 175.5 Q646 237 617 311.5 Q588 386 566 481 Q549 450 530.5 421 Q512 392 491 364 L491 25 Q503 31 523 41.5 Q543 52 565 64 Q587 76 608 87.5 Q629 99 643 107 L658 33 Q644 26 618 13.5 Q592 1 564 -13 Q536 -27 511.5 -39 Q487 -51 476 -57 Q465 -62 447.5 -71.5 Q430 -81 417 -91 L383 -31 Q399 -19 408.5 -4.5 Q418 10 418 28 L418 276 Q389 244 356 213.5 Q323 183 286 153 L239 215 Q349 300 420.5 391.5 Q492 483 541 593 L313 593 L313 664 L566 664 Q561 680 555 698 Q549 716 542.5 733 Q536 750 530.5 764.5 Q525 779 521 788 L589 808 Q594 796 601 777 Q608 758 615.5 737 Q623 716 630 696.5 Q637 677 641 664 L910 664 L910 593 L618 593 Q616 587 613 580 Q625 512 641.5 454.5 Q658 397 679 346 Q767 411 836 490 L882 434 Q847 396 802 357 Q757 318 709 283 ZM312 786 Q294 725 274.5 670 Q255 615 232 564 L232 -90 L160 -90 L160 422 Q122 357 73 292 L14 342 Q47 384 80 438.5 Q113 493 143 553.5 Q173 614 198 677 Q223 740 240 799 L312 786 Z" /><glyph glyph-name="uni4FA0" unicode="&#x4fa0;" d="M657 258 Q693 160 765.5 89 Q838 18 940 -34 L904 -99 Q795 -40 723.5 28 Q652 96 612 187 Q582 122 514.5 53 Q447 -16 322 -92 L279 -32 Q350 7 399.5 45 Q449 83 482 119.5 Q515 156 533 190.5 Q551 225 560 258 L292 258 L292 329 L571 329 L571 603 L320 603 L320 676 L571 676 L571 803 L644 801 L644 676 L900 676 L900 603 L644 603 L644 329 L923 329 L923 258 L657 258 ZM326 783 Q287 661 240 560 L240 -98 L172 -98 L172 428 Q151 393 129 358.5 Q107 324 82 290 L25 345 Q55 386 87.5 439 Q120 492 150.5 551 Q181 610 207.5 672.5 Q234 735 252 797 L326 783 ZM700 388 Q713 403 729.5 427 Q746 451 762.5 477.5 Q779 504 794 530 Q809 556 818 575 L874 543 Q865 524 850.5 498 Q836 472 819.5 445 Q803 418 786 394 Q769 370 756 355 L700 388 ZM398 573 Q411 557 428 533 Q445 509 461.5 482.5 Q478 456 492.5 430.5 Q507 405 516 387 L459 346 Q450 367 435.5 394 Q421 421 404.5 448 Q388 475 371.5 499.5 Q355 524 343 540 L398 573 Z" /><glyph glyph-name="uni4FA3" unicode="&#x4fa3;" d="M325 799 Q305 736 282.5 679 Q260 622 235 568 L235 -80 L163 -80 L163 434 Q121 364 72 301 L15 356 Q50 398 83 451 Q116 504 146 563.5 Q176 623 202 687 Q228 751 249 815 L325 799 ZM844 439 L396 439 L396 759 L844 759 L844 439 ZM774 688 L468 688 L468 510 L774 510 L774 688 ZM874 331 L874 -83 L801 -83 L801 -23 L439 -23 L439 -82 L367 -82 L367 331 L874 331 ZM801 48 L801 258 L439 258 L439 48 L801 48 Z" /><glyph glyph-name="uni4FA5" unicode="&#x4fa5;" d="M448 673 Q440 700 432 731.5 Q424 763 415 801 L488 811 Q496 773 504 741 Q512 709 520 682 L878 725 L886 660 L542 616 Q552 589 563 565.5 Q574 542 588 519 Q590 515 592.5 511 Q595 507 598 503 Q657 529 709.5 559 Q762 589 809 623 L843 570 Q755 502 641 450 Q674 417 707 401 Q740 385 765 385 Q797 385 811.5 395.5 Q826 406 834 423 Q845 446 851 461.5 Q857 477 863 498 L922 462 Q914 438 905 416 Q896 394 880 368 Q867 346 838 332 Q809 318 765 318 Q725 318 671.5 342.5 Q618 367 570 420 Q452 373 310 340 L281 405 Q347 418 409 435.5 Q471 453 529 475 L523 486 Q508 515 495 543.5 Q482 572 470 607 L309 586 L301 655 L448 673 ZM304 793 Q286 733 267 679.5 Q248 626 227 577 L227 -89 L156 -89 L156 432 Q137 399 116 366.5 Q95 334 72 301 L18 355 Q82 447 137 562.5 Q192 678 229 808 L304 793 ZM845 35 Q849 57 851 78.5 Q853 100 854 124 L919 99 Q917 70 913.5 42 Q910 14 903 -14 Q896 -43 873.5 -54.5 Q851 -66 800 -68 Q762 -70 724 -68 Q672 -66 649 -44 Q626 -22 626 32 L626 217 L502 217 Q502 212 501.5 207.5 Q501 203 501 200 Q498 140 487 97 Q476 54 451.5 19.5 Q427 -15 388 -43 Q349 -71 291 -101 L248 -43 Q301 -18 335 6 Q369 30 389.5 58 Q410 86 419.5 121.5 Q429 157 432 204 Q432 206 432.5 209.5 Q433 213 433 217 L292 217 L292 284 L896 284 L896 217 L699 217 L699 55 Q699 37 701 26.5 Q703 16 708 10.5 Q713 5 722.5 3 Q732 1 746 0 Q768 -2 790 0 Q819 2 830 8 Q841 14 845 35 Z" /><glyph glyph-name="uni4FA6" unicode="&#x4fa6;" d="M427 129 L355 129 L355 533 L546 533 L546 813 L619 810 L619 710 L909 710 L909 644 L619 644 L619 533 L848 533 L848 129 L774 129 L774 465 L427 465 L427 129 ZM319 796 Q300 734 280 678 Q260 622 237 569 L237 -91 L167 -91 L167 432 Q129 367 80 302 L21 352 Q51 392 84 446 Q117 500 148 561 Q179 622 204.5 686 Q230 750 247 809 L319 796 ZM637 268 Q637 206 622.5 155.5 Q608 105 570.5 62 Q533 19 469 -19 Q405 -57 306 -94 L271 -29 Q366 5 424 37 Q482 69 513.5 104.5 Q545 140 555.5 183 Q566 226 567 282 L567 413 L637 410 L637 268 ZM659 149 Q691 130 728 107 Q765 84 802.5 60 Q840 36 875.5 12 Q911 -12 938 -33 L895 -102 Q871 -80 838 -54.5 Q805 -29 768.5 -3 Q732 23 694.5 47 Q657 71 624 89 L659 149 Z" /><glyph glyph-name="uni4FA7" unicode="&#x4fa7;" d="M274 789 Q246 691 213 608 L213 -100 L147 -100 L147 463 Q131 432 114 400.5 Q97 369 77 337 L19 378 Q46 416 72.5 464 Q99 512 123 566 Q147 620 168.5 679.5 Q190 739 208 799 L274 789 ZM884 780 L884 27 Q884 -5 878 -24.5 Q872 -44 857 -56 Q842 -68 818 -73.5 Q794 -79 758 -82 L710 -86 L688 -18 L747 -14 Q769 -13 782.5 -9.5 Q796 -6 803 1.5 Q810 9 812.5 21 Q815 33 815 52 L815 783 L884 780 ZM361 159 L295 159 L295 740 L606 740 L606 162 L543 162 L543 670 L361 670 L361 159 ZM742 115 L675 115 L675 698 L742 695 L742 115 ZM486 339 Q486 255 479 196 Q472 137 449.5 90 Q427 43 385.5 0 Q344 -43 275 -94 L227 -43 Q293 4 331.5 42.5 Q370 81 389.5 124 Q409 167 414.5 221.5 Q420 276 420 355 L420 616 L486 613 L486 339 ZM497 144 Q536 110 577.5 69.5 Q619 29 652 -13 L608 -66 Q572 -15 533 26 Q494 67 462 98 L497 144 Z" /><glyph glyph-name="uni4FA8" unicode="&#x4fa8;" d="M330 791 Q295 679 249 577 L249 -92 L179 -92 L179 440 Q156 400 131.5 362 Q107 324 80 289 L27 341 Q63 387 96.5 442 Q130 497 159 557.5 Q188 618 212 681.5 Q236 745 254 808 L330 791 ZM691 461 Q713 426 738.5 397 Q764 368 796 342.5 Q828 317 867 294 Q906 271 954 248 L914 185 Q870 209 827.5 236.5 Q785 264 746.5 298 Q708 332 675 372.5 Q642 413 617 461 L591 461 Q569 410 537.5 369 Q506 328 460 287 L524 285 L524 201 Q524 147 517 104.5 Q510 62 492 25.5 Q474 -11 443.5 -44 Q413 -77 367 -111 L317 -58 Q354 -31 379.5 -6 Q405 19 421.5 47.5 Q438 76 445.5 112 Q453 148 453 198 L453 281 Q424 256 389 231 Q354 206 312 179 L268 236 Q318 265 356.5 291.5 Q395 318 425 344.5 Q455 371 476.5 399.5 Q498 428 514 461 L302 461 L302 530 L540 530 Q556 590 568 672 Q508 667 453 663.5 Q398 660 357 660 L347 730 Q397 731 465.5 735.5 Q534 740 605.5 747 Q677 754 744.5 762.5 Q812 771 859 779 L869 709 Q826 701 767 694 Q708 687 644 680 Q638 637 631 599.5 Q624 562 615 530 L911 530 L911 461 L691 461 ZM686 288 L760 286 L760 -93 L686 -93 L686 288 Z" /><glyph glyph-name="uni4FAE" unicode="&#x4fae;" d="M835 269 Q833 227 831.5 188 Q830 149 828 117 L909 117 L909 48 L825 48 Q824 41 824 37 Q824 33 824 31 Q822 -2 814 -24 Q806 -46 787.5 -59.5 Q769 -73 738.5 -80 Q708 -87 660 -90 L604 -94 L578 -26 L650 -21 Q680 -19 699.5 -15 Q719 -11 730.5 -4 Q742 3 746.5 15 Q751 27 752 46 L752 48 L324 48 L348 269 L267 269 L267 335 L355 335 L375 525 Q364 511 353.5 497.5 Q343 484 332 471 L277 519 Q304 550 330.5 586 Q357 622 381 660.5 Q405 699 426 738 Q447 777 462 813 L533 797 Q524 776 514 754.5 Q504 733 493 712 L906 712 L906 643 L455 643 Q440 619 425 596 Q410 573 394 550 L847 550 Q847 545 846 526 Q845 507 844 477.5 Q843 448 841 411.5 Q839 375 838 335 L944 335 L944 269 L835 269 ZM304 779 Q287 722 270 673.5 Q253 625 234 583 L234 -96 L163 -96 L163 446 Q143 413 121 381.5 Q99 350 73 317 L14 369 Q86 459 137 561.5 Q188 664 226 795 L304 779 ZM426 335 L639 335 Q628 348 612 363 Q596 378 579.5 392.5 Q563 407 547.5 419 Q532 431 520 438 L556 484 L442 484 L426 335 ZM767 335 Q769 391 771 432.5 Q773 474 773 484 L563 484 Q575 476 591.5 464 Q608 452 624.5 438.5 Q641 425 656 412 Q671 399 681 389 L645 335 L767 335 ZM402 117 L626 117 Q615 130 598.5 145 Q582 160 565 174.5 Q548 189 531.5 201.5 Q515 214 503 222 L538 269 L419 269 L402 117 ZM756 117 Q758 149 759.5 188 Q761 227 763 269 L542 269 Q555 261 571.5 248.5 Q588 236 605.5 222.5 Q623 209 638.5 195.5 Q654 182 665 173 L630 117 L756 117 Z" /><glyph glyph-name="uni4FAF" unicode="&#x4faf;" d="M324 779 Q305 715 283.5 660 Q262 605 238 555 L238 -101 L167 -101 L167 428 Q123 357 72 293 L14 342 Q88 433 148 549 Q208 665 246 796 L324 779 ZM746 683 L380 683 L380 748 L821 748 L808 569 L930 569 L930 504 L305 504 L305 569 L738 569 L746 683 ZM656 164 Q688 98 759 49 Q830 0 950 -29 L912 -100 Q824 -72 746 -24 Q668 24 617 92 Q601 63 576 38 Q551 13 514.5 -11 Q478 -35 429 -58 Q380 -81 316 -104 L279 -38 Q352 -14 404.5 9.5 Q457 33 491.5 57 Q526 81 545.5 107.5 Q565 134 573 164 L287 164 L287 229 L581 229 Q582 250 582 281.5 Q582 313 582 339 L429 339 Q415 314 398.5 290 Q382 266 364 241 L307 279 Q346 326 378 382 Q410 438 433 494 L498 474 Q490 456 482 439 Q474 422 466 405 L880 405 L880 339 L653 339 Q653 325 652.5 308.5 Q652 292 651.5 277 Q651 262 650.5 249 Q650 236 649 229 L926 229 L926 164 L656 164 Z" /><glyph glyph-name="uni4FB5" unicode="&#x4fb5;" d="M307 785 Q289 722 270.5 667.5 Q252 613 230 562 L230 -104 L164 -104 L164 426 Q146 394 126 361.5 Q106 329 83 295 L27 342 Q56 384 86.5 437.5 Q117 491 145 550.5 Q173 610 197 673.5 Q221 737 238 799 L307 785 ZM849 455 L346 455 L346 515 L780 515 L780 577 L374 577 L374 634 L780 634 L780 697 L352 697 L352 758 L849 758 L849 455 ZM843 237 L843 332 L360 332 L360 237 L293 237 L293 392 L909 392 L909 237 L843 237 ZM919 -99 Q813 -74 737 -51.5 Q661 -29 604 0 Q544 -32 469.5 -57 Q395 -82 298 -104 L266 -42 Q351 -26 418 -6 Q485 14 539 40 Q503 66 472 99 Q441 132 410 177 L447 205 L375 205 L375 264 L828 264 L828 207 Q796 156 757.5 114.5 Q719 73 669 39 Q722 16 789 -1 Q856 -18 947 -34 L919 -99 ZM471 205 Q500 162 531.5 130.5 Q563 99 602 74 Q646 101 681 133.5 Q716 166 747 205 L471 205 Z" /><glyph glyph-name="uni4FBF" unicode="&#x4fbf;" d="M315 786 Q300 732 280.5 677 Q261 622 237 568 L237 -108 L166 -108 L166 427 Q125 354 77 291 L22 340 Q56 381 89 436 Q122 491 151.5 551.5 Q181 612 204 676 Q227 740 242 799 L315 786 ZM922 -91 Q802 -78 711 -56.5 Q620 -35 548 4 Q509 -28 445 -54 Q381 -80 284 -106 L250 -38 Q336 -18 392.5 1.5 Q449 21 484 45 Q421 93 367 170 L421 212 Q449 177 475 147.5 Q501 118 532 95 Q546 118 553 146.5 Q560 175 563 212 L345 212 L345 591 L565 591 L565 682 L324 682 L324 752 L915 752 L915 682 L637 682 L637 591 L867 591 L867 212 L635 212 Q632 163 623 125 Q614 87 596 57 Q624 44 658 33 Q692 22 734.5 13.5 Q777 5 829.5 -1.5 Q882 -8 947 -12 L922 -91 ZM416 526 L416 436 L565 436 L565 526 L416 526 ZM637 526 L637 436 L795 436 L795 526 L637 526 ZM565 279 L565 372 L416 372 L416 279 L565 279 ZM795 279 L795 372 L637 372 L637 279 L795 279 Z" /><glyph glyph-name="uni4FC3" unicode="&#x4fc3;" d="M331 777 Q297 671 256 578 L256 -98 L181 -98 L181 433 Q158 395 133.5 358.5 Q109 322 82 286 L24 331 Q66 381 101.5 436.5 Q137 492 166 551 Q195 610 218.5 670.5 Q242 731 260 791 L331 777 ZM680 6 Q743 4 812.5 5 Q882 6 953 11 L934 -63 Q875 -67 811 -67 Q747 -67 683 -66 Q595 -64 536 -29 Q477 6 436 83 Q419 35 394.5 -9 Q370 -53 333 -98 L269 -59 Q309 -13 334 32 Q359 77 373.5 125.5 Q388 174 395 230.5 Q402 287 406 357 L480 350 Q477 302 473 261.5 Q469 221 462 184 Q486 115 519.5 77 Q553 39 596 22 L596 428 L395 428 L395 751 L867 751 L867 428 L672 428 L672 277 L903 277 L903 206 L672 206 L672 6 L680 6 ZM470 500 L791 500 L791 678 L470 678 L470 500 Z" /><glyph glyph-name="uni4FC4" unicode="&#x4fc4;" d="M327 786 Q310 726 291 672 Q272 618 249 566 L249 -101 L182 -101 L182 428 Q163 393 142 358.5 Q121 324 98 289 L34 336 Q72 387 105.5 444 Q139 501 167 561 Q195 621 217.5 681.5 Q240 742 255 800 L327 786 ZM953 115 Q945 80 937 45 Q929 10 918 -22 Q907 -55 883 -74.5 Q859 -94 833 -94 Q799 -94 768.5 -68 Q738 -42 712 21 Q706 38 700 57 Q694 76 689 98 Q631 49 558 0 L518 59 Q608 114 674 172 Q665 226 657 294.5 Q649 363 643 454 L494 454 L494 312 Q528 321 558.5 329.5 Q589 338 612 346 L617 308 L621 277 Q596 269 563 259.5 Q530 250 494 239 L494 32 Q494 2 488.5 -17.5 Q483 -37 470 -49.5 Q457 -62 434 -68 Q411 -74 377 -77 L331 -81 L307 -8 L363 -4 Q383 -3 395 1 Q407 5 413.5 12.5 Q420 20 422 31.5 Q424 43 424 60 L424 220 Q389 212 358 204.5 Q327 197 304 192 L283 264 Q312 269 348.5 277 Q385 285 424 295 L424 454 L290 454 L290 523 L424 523 L424 650 Q395 644 369.5 640 Q344 636 324 634 L307 698 Q335 700 371.5 706.5 Q408 713 446 721.5 Q484 730 519 740 Q554 750 579 759 L592 696 Q573 688 548 681 Q523 674 494 666 L494 523 L638 523 Q636 543 635.5 564 Q635 585 633 607 Q631 632 629.5 663.5 Q628 695 627 724.5 Q626 754 625 775 Q624 796 624 800 L692 796 Q692 793 692.5 776.5 Q693 760 693.5 734.5 Q694 709 695 675.5 Q696 642 698 605 Q699 583 700 563 Q701 543 703 523 L917 523 L917 454 L707 454 Q712 387 718 332 Q724 277 732 231 Q796 306 845 403 L903 367 Q870 304 831 251 Q792 198 746 151 Q754 116 762 89.5 Q770 63 779 42 Q793 12 807.5 0.5 Q822 -11 833 -11 Q844 -11 850.5 -3.5 Q857 4 866 31 Q875 58 880.5 86 Q886 114 891 145 L953 115 ZM842 574 Q832 591 817.5 612.5 Q803 634 787 655 Q771 676 755 695 Q739 714 727 727 L773 767 Q785 755 801 737 Q817 719 833.5 699 Q850 679 865 659.5 Q880 640 889 626 L842 574 Z" /><glyph glyph-name="uni4FCA" unicode="&#x4fca;" d="M318 586 Q344 591 353.5 595.5 Q363 600 373 608 Q394 624 420 649 Q446 674 472.5 702.5 Q499 731 523 760 Q547 789 565 815 L626 775 Q589 729 543.5 680 Q498 631 456 593 Q475 594 513.5 595.5 Q552 597 596.5 599 Q641 601 686.5 603 Q732 605 767 607 Q741 634 715.5 658 Q690 682 671 697 L717 743 Q738 727 766 701 Q794 675 822.5 646.5 Q851 618 877 590.5 Q903 563 920 542 L873 485 Q864 498 852 513 Q840 528 826 544 Q804 543 768 541.5 Q732 540 691 538 Q650 536 606.5 534 Q563 532 525 530.5 Q487 529 459 527.5 Q431 526 420 525 Q402 525 380.5 523 Q359 521 332 518 L318 586 ZM324 790 Q304 725 283 667 Q262 609 238 555 L238 -94 L170 -94 L170 423 Q131 356 85 296 L26 346 Q59 389 92 443.5 Q125 498 155 558 Q185 618 210 681 Q235 744 252 803 L324 790 ZM688 515 Q712 504 746 485.5 Q780 467 814.5 446 Q849 425 881.5 403.5 Q914 382 935 365 L903 304 Q882 323 849.5 345.5 Q817 368 782 389 Q747 410 713 427.5 Q679 445 654 456 L688 515 ZM272 358 Q332 388 392 429.5 Q452 471 495 512 L537 461 Q487 417 428 376 Q369 335 307 300 L272 358 ZM906 -102 Q821 -75 748.5 -43.5 Q676 -12 615 26 Q555 -11 479.5 -43 Q404 -75 304 -105 L263 -36 Q357 -11 427.5 14.5 Q498 40 553 70 Q485 125 436 194 Q379 133 306 79 L266 133 Q302 159 336.5 190.5 Q371 222 402.5 256.5 Q434 291 460 326.5 Q486 362 505 396 L565 370 Q557 356 549 343.5 Q541 331 533 318 L830 318 L830 259 Q798 201 760.5 154.5 Q723 108 674 69 Q728 40 793.5 16 Q859 -8 943 -30 L906 -102 ZM482 247 Q508 205 539.5 170.5 Q571 136 613 107 Q655 137 688 173.5 Q721 210 749 255 L488 255 L482 247 Z" /><glyph glyph-name="uni4FCF" unicode="&#x4fcf;" d="M661 525 L877 525 L877 26 Q877 -6 871.5 -26.5 Q866 -47 851.5 -59.5 Q837 -72 812 -78.5 Q787 -85 748 -88 L696 -92 L672 -18 L733 -14 Q755 -13 769 -9.5 Q783 -6 790.5 1 Q798 8 800.5 19.5 Q803 31 803 49 L803 116 L447 116 L447 -87 L373 -87 L373 525 L585 525 L585 806 L661 802 L661 525 ZM312 783 Q296 729 278 679.5 Q260 630 240 583 L240 -94 L169 -94 L169 440 Q149 405 127.5 371 Q106 337 83 304 L26 353 Q54 391 85 443.5 Q116 496 144.5 555 Q173 614 197.5 676 Q222 738 237 796 L312 783 ZM902 726 Q891 708 874.5 684 Q858 660 839 635.5 Q820 611 801 589.5 Q782 568 767 555 L713 600 Q728 613 747 635 Q766 657 784.5 681 Q803 705 820 729 Q837 753 848 771 L902 726 ZM481 559 Q470 575 453.5 597.5 Q437 620 418 643.5 Q399 667 380 688.5 Q361 710 347 724 L396 770 Q410 756 429.5 735 Q449 714 469 690.5 Q489 667 507 644.5 Q525 622 536 606 L481 559 ZM803 456 L447 456 L447 357 L803 357 L803 456 ZM803 182 L803 290 L447 290 L447 182 L803 182 Z" /><glyph glyph-name="uni4FD0" unicode="&#x4fd0;" d="M301 783 Q284 726 266.5 674 Q249 622 229 573 L229 -95 L163 -95 L163 433 Q145 401 125 369 Q105 337 82 306 L28 357 Q56 396 85.5 448 Q115 500 142 558.5 Q169 617 191.5 678 Q214 739 229 796 L301 783 ZM884 775 L884 31 Q884 -1 879 -22 Q874 -43 859.5 -56.5 Q845 -70 818.5 -77 Q792 -84 749 -87 L688 -91 L665 -20 L736 -16 Q762 -15 777.5 -11.5 Q793 -8 801 -0.5 Q809 7 811.5 20 Q814 33 814 53 L814 777 L884 775 ZM524 363 Q537 349 554.5 328.5 Q572 308 590 285.5 Q608 263 624 241.5 Q640 220 649 204 L597 155 Q589 172 576 192.5 Q563 213 548 234 Q533 255 517 275 Q501 295 488 310 L489 -92 L421 -92 L421 309 Q368 190 297 96 L246 145 Q294 207 338.5 285.5 Q383 364 414 447 L283 447 L283 518 L421 518 L421 650 Q387 642 356.5 638 Q326 634 303 632 L291 701 Q319 703 359.5 709.5 Q400 716 442 725.5 Q484 735 523.5 745.5 Q563 756 590 767 L603 698 Q581 690 551 681.5 Q521 673 487 665 L487 518 L615 518 L615 447 L488 447 L488 333 L524 363 ZM727 130 L661 130 L661 683 L727 681 L727 130 Z" /><glyph glyph-name="uni4FD7" unicode="&#x4fd7;" d="M312 774 Q295 719 276.5 669 Q258 619 238 572 L238 -93 L167 -93 L167 430 Q147 395 125 361.5 Q103 328 78 295 L22 346 Q94 442 150.5 557.5 Q207 673 239 788 L312 774 ZM867 523 Q845 550 814.5 580.5 Q784 611 752.5 640 Q721 669 691 693.5 Q661 718 641 732 L685 782 Q706 766 735 743 Q764 720 795.5 693 Q827 666 858 637.5 Q889 609 913 583 L867 523 ZM287 571 Q309 587 339 613 Q369 639 399.5 668.5 Q430 698 457 727 Q484 756 502 778 L552 735 Q534 712 506 681.5 Q478 651 447 620.5 Q416 590 385.5 562.5 Q355 535 332 519 L287 571 ZM915 221 Q891 238 868.5 254 Q846 270 824 286 L824 -101 L751 -101 L751 -42 L451 -42 L451 -101 L379 -101 L379 282 Q359 268 337.5 253 Q316 238 293 224 L249 281 Q356 346 436.5 422 Q517 498 567 586 L636 586 Q687 497 768.5 421.5 Q850 346 959 285 L915 221 ZM820 289 Q751 341 696 395 Q641 449 603 517 Q565 450 512 395 Q459 340 389 289 L820 289 ZM751 27 L751 221 L451 221 L451 27 L751 27 Z" /><glyph glyph-name="uni4FD8" unicode="&#x4fd8;" d="M303 784 Q286 727 267.5 675.5 Q249 624 229 575 L229 -99 L158 -99 L158 427 Q140 394 119.5 361 Q99 328 76 296 L15 349 Q47 391 78.5 444 Q110 497 137.5 556 Q165 615 188.5 677 Q212 739 229 798 L303 784 ZM890 714 Q837 704 762.5 694.5 Q688 685 609.5 676.5 Q531 668 456 662.5 Q381 657 328 656 L314 724 Q369 725 444.5 730.5 Q520 736 598.5 744 Q677 752 750.5 761.5 Q824 771 876 780 L890 714 ZM700 497 Q713 512 728.5 534 Q744 556 759 580.5 Q774 605 786.5 629 Q799 653 807 670 L872 643 Q864 624 851 599.5 Q838 575 823 549.5 Q808 524 793.5 501 Q779 478 767 462 L700 497 ZM599 476 Q594 493 585.5 514.5 Q577 536 566.5 558 Q556 580 546 600 Q536 620 528 633 L589 664 Q596 651 606.5 631.5 Q617 612 627.5 591 Q638 570 647 549.5 Q656 529 661 515 L599 476 ZM424 463 Q418 480 407.5 501.5 Q397 523 385.5 544.5 Q374 566 362 586 Q350 606 341 619 L399 654 Q408 640 420 621 Q432 602 444 581 Q456 560 466.5 540 Q477 520 483 506 L424 463 ZM930 162 L644 162 L644 26 Q644 -4 638 -24.5 Q632 -45 616.5 -58 Q601 -71 574 -77.5 Q547 -84 506 -86 L452 -89 L427 -17 L492 -13 Q516 -12 531 -9 Q546 -6 554 0.5 Q562 7 565 17.5 Q568 28 568 45 L568 162 L285 162 L285 229 L568 229 L568 273 Q611 295 654 321.5 Q697 348 737 378 L351 378 L351 443 L858 443 L858 380 Q805 341 752 307 Q699 273 644 244 L644 229 L930 229 L930 162 Z" /><glyph glyph-name="uni4FDD" unicode="&#x4fdd;" d="M323 777 Q306 723 288 672 Q270 621 249 572 L249 -103 L178 -103 L178 429 Q136 355 82 288 L25 338 Q109 442 165 557.5 Q221 673 253 790 L323 777 ZM844 444 L381 444 L381 752 L844 752 L844 444 ZM769 682 L456 682 L456 514 L769 514 L769 682 ZM659 262 Q711 192 786.5 132 Q862 72 959 24 L913 -41 Q826 8 761 64 Q696 120 645 185 L645 -100 L574 -100 L574 182 Q551 150 525 121.5 Q499 93 467 65 Q435 37 396.5 9.5 Q358 -18 310 -46 L260 16 Q352 63 428 125.5 Q504 188 554 262 L303 262 L303 329 L574 329 L574 411 L645 407 L645 329 L918 329 L918 262 L659 262 Z" /><glyph glyph-name="uni4FE1" unicode="&#x4fe1;" d="M938 689 L938 620 L311 620 L311 689 L585 689 Q577 716 568 743.5 Q559 771 552 788 L626 802 Q634 783 644.5 750 Q655 717 664 689 L938 689 ZM319 782 Q306 740 287.5 686.5 Q269 633 241 571 L241 -98 L168 -98 L168 425 Q132 362 87 296 L26 344 Q66 399 101 458 Q136 517 165 575.5 Q194 634 215.5 690.5 Q237 747 251 797 L319 782 ZM365 530 L866 530 L866 466 L365 466 L365 530 ZM365 385 L866 385 L866 320 L365 320 L365 385 ZM366 233 L864 233 L864 -98 L787 -98 L787 -42 L439 -42 L439 -98 L366 -98 L366 233 ZM439 166 L439 25 L787 25 L787 166 L439 166 Z" /><glyph glyph-name="uni4FE9" unicode="&#x4fe9;" d="M299 788 Q269 668 226 565 L226 -90 L158 -90 L158 422 Q140 390 121 359 Q102 328 81 297 L24 344 Q96 449 144.5 566 Q193 683 221 799 L299 788 ZM733 679 L733 543 L893 543 L893 27 Q893 -6 888 -27 Q883 -48 869.5 -60.5 Q856 -73 832 -79 Q808 -85 771 -88 L723 -92 L700 -19 L757 -15 Q778 -14 791.5 -10.5 Q805 -7 812.5 0 Q820 7 823 18.5 Q826 30 826 49 L826 147 L785 110 Q773 140 751 180.5 Q729 221 706 256 Q692 198 668 143 Q644 88 606 25 L548 59 Q577 106 597.5 146 Q618 186 632 227 L586 186 Q578 206 564 232.5 Q550 259 534 285 Q523 225 502 169 Q481 113 446 53 L397 88 L397 -89 L329 -89 L329 543 L488 543 Q489 575 489 613 Q489 651 489 679 L312 679 L312 748 L932 748 L932 679 L733 679 ZM668 543 Q668 574 668.5 612 Q669 650 669 679 L556 679 Q555 650 555 612.5 Q555 575 554 543 L668 543 ZM397 109 Q423 155 439 196 Q455 237 464.5 279.5 Q474 322 478.5 369 Q483 416 486 474 L397 474 L397 109 ZM547 380 Q557 367 569 348.5 Q581 330 593.5 310.5 Q606 291 617 271.5 Q628 252 635 237 Q652 288 659.5 344.5 Q667 401 668 474 L552 474 Q551 449 550 425.5 Q549 402 547 380 ZM826 474 L732 474 Q730 438 728 406 Q726 374 722 345 Q734 330 748 309.5 Q762 289 776 266.5 Q790 244 803 221.5 Q816 199 826 180 L826 474 Z" /><glyph glyph-name="uni4FED" unicode="&#x4fed;" d="M326 791 Q287 665 236 557 L236 -94 L163 -94 L163 419 Q143 385 122 353 Q101 321 78 291 L24 342 Q55 382 88 436.5 Q121 491 151 553 Q181 615 206 680 Q231 745 248 806 L326 791 ZM390 484 Q368 466 345 448 Q322 430 297 413 L248 468 Q358 543 434.5 624.5 Q511 706 562 800 L632 800 Q683 703 764.5 621.5 Q846 540 957 468 L906 410 Q806 482 727 559 Q648 636 597 725 Q522 595 393 487 L804 487 L804 415 L390 415 L390 484 ZM598 97 Q594 124 585 160 Q576 196 565 233 Q554 270 542 304 Q530 338 520 362 L585 383 Q595 360 607 325.5 Q619 291 629.5 254.5 Q640 218 649 183 Q658 148 662 124 L598 97 ZM855 359 Q847 326 833 283 Q819 240 801.5 193.5 Q784 147 765.5 102 Q747 57 730 20 L909 20 L909 -52 L287 -52 L287 20 L653 20 Q670 56 689 103 Q708 150 726 199 Q744 248 759 294 Q774 340 782 375 L855 359 ZM427 65 Q422 94 412.5 132.5 Q403 171 390.5 210.5 Q378 250 364.5 287 Q351 324 340 349 L403 372 Q415 347 428.5 310.5 Q442 274 454.5 234.5 Q467 195 477 157 Q487 119 492 92 L427 65 Z" /><glyph glyph-name="uni4FEE" unicode="&#x4fee;" d="M720 497 Q815 447 953 413 L931 345 Q846 368 779.5 395.5 Q713 423 659 456 Q606 423 540 394 Q474 365 389 338 L362 401 Q437 424 495.5 447 Q554 470 601 496 Q543 542 501 597 Q457 544 405 498 L365 552 Q427 606 477.5 675.5 Q528 745 559 813 L620 787 Q613 771 605 756 Q597 741 589 726 L865 726 L865 666 Q838 618 803 576 Q768 534 720 497 ZM292 786 Q276 726 257 669 Q238 612 215 555 L215 -100 L151 -100 L151 419 Q134 387 116 356 Q98 325 78 294 L21 341 Q49 383 79 437.5 Q109 492 137.5 552.5 Q166 613 189.5 675.5 Q213 738 227 797 L292 786 ZM287 667 L352 664 L352 68 L287 68 L287 667 ZM540 648 Q586 583 660 533 Q700 561 730.5 593.5 Q761 626 784 664 L551 664 Q546 655 540 648 ZM760 349 Q690 301 608.5 260.5 Q527 220 445 191 L417 254 Q499 280 580.5 319 Q662 358 729 403 L760 349 ZM401 105 Q515 140 617 190.5 Q719 241 803 300 L838 249 Q754 186 650 134.5 Q546 83 431 47 L401 105 ZM357 -43 Q512 -4 645.5 56.5 Q779 117 883 195 L918 145 Q815 62 680.5 0 Q546 -62 384 -104 L357 -43 Z" /><glyph glyph-name="uni4FEF" unicode="&#x4fef;" d="M610 601 Q596 557 582 520 Q568 483 552 449 L552 -96 L485 -96 L485 329 Q474 312 462 295.5 Q450 279 437 262 L400 299 Q399 236 396 186 Q393 136 385 91.5 Q377 47 363.5 5 Q350 -37 329 -84 L257 -58 Q287 -3 302.5 45 Q318 93 324.5 144 Q331 195 331.5 255.5 Q332 316 332 396 L332 696 L600 696 Q592 722 584 747.5 Q576 773 569 790 L643 803 Q651 786 661 754.5 Q671 723 679 696 L920 696 L920 629 L401 629 L401 331 Q446 385 483.5 459 Q521 533 543 613 L610 601 ZM308 776 Q293 722 275.5 672 Q258 622 238 574 L238 -102 L168 -102 L168 431 Q149 398 129 365.5 Q109 333 87 301 L28 349 Q58 386 88.5 437.5 Q119 489 146.5 547.5 Q174 606 197 667.5 Q220 729 234 787 L308 776 ZM941 395 L846 395 L846 23 Q846 -10 840 -31.5 Q834 -53 819.5 -65.5 Q805 -78 780.5 -84 Q756 -90 720 -93 L674 -97 L651 -26 L709 -22 Q731 -21 744.5 -18.5 Q758 -16 765.5 -9 Q773 -2 775.5 10.5 Q778 23 778 45 L778 395 L584 395 L584 460 L778 460 L778 599 L846 596 L846 460 L941 460 L941 395 ZM684 120 Q677 141 665.5 169 Q654 197 641 225.5 Q628 254 615 280 Q602 306 592 324 L646 353 Q656 336 669.5 311 Q683 286 696 258 Q709 230 720.5 203.5 Q732 177 739 158 L684 120 Z" /><glyph glyph-name="uni4FF1" unicode="&#x4ff1;" d="M301 778 Q287 724 269.5 672.5 Q252 621 231 570 L231 -99 L162 -99 L162 427 Q122 353 77 291 L25 349 Q53 388 83 439 Q113 490 140 547.5 Q167 605 190 666.5 Q213 728 228 788 L301 778 ZM947 192 L947 124 L272 124 L272 192 L380 192 L380 749 L832 749 L832 192 L947 192 ZM448 682 L448 607 L764 607 L764 682 L448 682 ZM764 543 L448 543 L448 469 L764 469 L764 543 ZM448 406 L448 331 L764 331 L764 406 L448 406 ZM448 192 L764 192 L764 268 L448 268 L448 192 ZM275 -38 Q298 -27 330 -9 Q362 9 395 30 Q428 51 458.5 72.5 Q489 94 510 112 L552 58 Q531 40 499 17 Q467 -6 432.5 -29 Q398 -52 365 -71.5 Q332 -91 308 -103 L275 -38 ZM692 106 Q715 96 746.5 79 Q778 62 810.5 42.5 Q843 23 873.5 3 Q904 -17 924 -33 L888 -99 Q868 -80 838 -58 Q808 -36 775 -16 Q742 4 710.5 21 Q679 38 657 48 L692 106 Z" /><glyph glyph-name="uni4FFA" unicode="&#x4ffa;" d="M871 19 Q876 43 878.5 67 Q881 91 882 117 L948 92 Q944 63 941 34 Q938 5 931 -23 Q924 -52 900 -66 Q876 -80 817 -83 Q737 -88 658 -83 Q629 -82 608.5 -76 Q588 -70 575.5 -58.5 Q563 -47 557.5 -28.5 Q552 -10 552 18 L552 70 L340 70 L340 400 Q323 387 305 374.5 Q287 362 267 349 L230 397 L230 -102 L161 -102 L161 441 Q120 373 73 311 L18 360 Q51 399 83 451 Q115 503 143 561.5 Q171 620 194 681 Q217 742 232 799 L307 787 Q290 730 271 678 Q252 626 230 576 L230 412 Q312 461 370.5 513 Q429 565 469 625 L294 625 L294 688 L506 688 Q533 743 551 807 L628 797 Q620 768 609.5 741 Q599 714 587 688 L915 688 L915 625 L710 625 Q750 560 812 503 Q874 446 961 408 L920 348 Q900 358 879.5 370.5 Q859 383 838 399 L838 70 L620 70 L620 31 Q620 -3 633 -13 Q646 -23 682 -25 Q744 -28 806 -25 Q839 -23 852.5 -14 Q866 -5 871 19 ZM554 625 Q525 576 487 532.5 Q449 489 399 447 L552 447 L552 555 L620 551 L620 447 L779 447 Q734 487 696 533 Q658 579 632 625 L554 625 ZM552 387 L408 387 L408 288 L552 288 L552 387 ZM620 288 L770 288 L770 387 L620 387 L620 288 ZM552 131 L552 229 L408 229 L408 131 L552 131 ZM770 131 L770 229 L620 229 L620 131 L770 131 Z" /><glyph glyph-name="uni500D" unicode="&#x500d;" d="M940 436 L940 365 L303 365 L303 436 L480 436 Q476 458 471.5 483 Q467 508 462.5 532.5 Q458 557 453 579 Q448 601 444 617 L347 617 L347 685 L589 685 Q581 714 571 744.5 Q561 775 553 794 L627 808 Q631 798 636.5 782.5 Q642 767 647 750 Q652 733 657.5 716 Q663 699 667 685 L901 685 L901 617 L802 617 Q794 577 781.5 528.5 Q769 480 758 436 L940 436 ZM334 779 Q315 726 294.5 675.5 Q274 625 251 576 L251 -103 L178 -103 L178 434 Q157 397 136 363.5 Q115 330 92 299 L29 348 Q105 445 160.5 559 Q216 673 254 793 L334 779 ZM515 617 Q519 599 524 576 Q529 553 534 528.5 Q539 504 543.5 480 Q548 456 551 436 L684 436 Q695 476 707.5 525.5 Q720 575 729 617 L515 617 ZM386 262 L853 262 L853 -104 L778 -104 L778 -47 L462 -47 L462 -104 L386 -104 L386 262 ZM462 192 L462 18 L778 18 L778 192 L462 192 Z" /><glyph glyph-name="uni5012" unicode="&#x5012;" d="M268 782 Q252 724 235.5 674 Q219 624 201 578 L201 -108 L134 -108 L134 432 Q120 404 104 377 Q88 350 71 321 L14 367 Q75 461 120 568.5 Q165 676 193 793 L268 782 ZM885 776 L885 26 Q885 -8 879 -30 Q873 -52 858 -65.5 Q843 -79 817 -86 Q791 -93 751 -96 L695 -100 L672 -29 L737 -25 Q761 -24 777 -20 Q793 -16 802 -8 Q811 0 814.5 13 Q818 26 818 46 L818 779 L885 776 ZM644 36 L646 3 Q608 -3 555 -9.5 Q502 -16 445.5 -22 Q389 -28 335.5 -32.5 Q282 -37 245 -40 L231 33 Q266 34 312 37 Q358 40 408 45 L408 193 L269 193 L269 265 L408 265 L408 399 L318 392 Q299 392 271 385 L254 447 Q261 449 269.5 454 Q278 459 282 466 Q291 479 303.5 501 Q316 523 330 549 Q344 575 357.5 602 Q371 629 382 653 L270 653 L270 722 L623 722 L623 653 L452 653 Q441 629 427.5 601.5 Q414 574 400.5 547.5 Q387 521 374 498 Q361 475 351 459 Q364 460 386.5 461.5 Q409 463 434.5 464.5 Q460 466 486 467.5 Q512 469 533 470 Q518 503 502.5 532.5 Q487 562 475 581 L528 607 Q540 588 556 559 Q572 530 587.5 498.5 Q603 467 616 437 Q629 407 637 386 L583 353 Q579 365 573.5 379 Q568 393 561 409 Q546 407 523.5 406 Q501 405 475 403 L475 265 L607 265 L607 193 L475 193 L475 52 Q523 57 566.5 62.5 Q610 68 642 73 L644 36 ZM735 120 L672 120 L672 675 L735 672 L735 120 Z" /><glyph glyph-name="uni5014" unicode="&#x5014;" d="M301 785 Q286 731 268 681 Q250 631 230 583 L230 -96 L162 -96 L162 438 Q121 361 78 291 L20 341 Q80 429 136 545.5 Q192 662 226 797 L301 785 ZM416 509 L416 451 Q416 359 410.5 287 Q405 215 392.5 153.5 Q380 92 360 36 Q340 -20 312 -80 L244 -46 Q274 10 293.5 59.5 Q313 109 324.5 165 Q336 221 341 290 Q346 359 346 454 L346 750 L892 750 L892 509 L416 509 ZM416 684 L416 575 L821 575 L821 684 L416 684 ZM894 176 L894 -99 L830 -99 L830 -52 L458 -52 L458 179 L521 177 L521 16 L646 16 L646 236 L479 236 L479 440 L542 438 L542 303 L646 303 L646 490 L710 488 L710 303 L810 303 L810 439 L875 437 L875 236 L710 236 L710 16 L830 16 L830 178 L894 176 Z" /><glyph glyph-name="uni5018" unicode="&#x5018;" d="M647 521 L882 521 L882 31 Q882 -3 876 -24.5 Q870 -46 855.5 -59.5 Q841 -73 816 -79 Q791 -85 753 -87 L702 -90 L679 -19 L740 -15 Q764 -14 778 -10.5 Q792 -7 799.5 -0.5 Q807 6 809 18 Q811 30 811 49 L811 450 L409 450 L409 -86 L340 -86 L340 521 L574 521 L574 797 L647 794 L647 521 ZM300 781 Q283 721 264.5 667.5 Q246 614 226 565 L226 -95 L157 -95 L157 421 Q138 388 118.5 355 Q99 322 76 290 L20 343 Q49 384 78 435.5 Q107 487 133 544.5 Q159 602 181.5 665 Q204 728 221 792 L300 781 ZM889 714 Q878 697 861 674.5 Q844 652 825 629 Q806 606 787.5 585.5 Q769 565 756 552 L703 601 Q717 613 735.5 633 Q754 653 773 675.5 Q792 698 808.5 720 Q825 742 836 759 L889 714 ZM462 546 Q451 565 434.5 587 Q418 609 400 630.5 Q382 652 364.5 671.5 Q347 691 333 704 L383 750 Q398 736 416 716 Q434 696 452.5 674.5 Q471 653 487 631.5 Q503 610 514 594 L462 546 ZM727 61 L495 61 L495 354 L727 354 L727 61 ZM669 286 L552 286 L552 129 L669 129 L669 286 Z" /><glyph glyph-name="uni5019" unicode="&#x5019;" d="M292 788 Q276 734 258 680.5 Q240 627 219 574 L219 -96 L155 -96 L155 427 Q118 352 75 284 L21 335 Q51 377 80.5 433 Q110 489 136.5 551.5 Q163 614 185.5 678 Q208 742 223 801 L292 788 ZM927 508 L400 508 L400 573 L737 573 L747 685 L457 685 L457 750 L823 750 L808 573 L927 573 L927 508 ZM368 53 L301 53 L301 688 L368 686 L368 53 ZM696 169 Q726 101 787.5 49.5 Q849 -2 945 -33 L903 -99 Q828 -64 764.5 -15.5 Q701 33 661 99 Q630 37 565 -9.5 Q500 -56 391 -100 L353 -40 Q474 3 535.5 55 Q597 107 614 169 L395 169 L395 234 L622 234 Q622 243 622.5 256.5 Q623 270 623.5 285 Q624 300 624 315.5 Q624 331 624 344 L511 344 Q498 319 484 295 Q470 271 454 247 L398 282 Q431 326 457.5 380 Q484 434 504 493 L569 479 Q555 443 542 410 L876 410 L876 344 L697 344 Q696 315 695 282 Q694 249 693 234 L914 234 L914 169 L696 169 Z" /><glyph glyph-name="uni501A" unicode="&#x501a;" d="M941 364 L838 364 L838 31 Q838 -2 834 -22.5 Q830 -43 818 -54.5 Q806 -66 784 -71.5 Q762 -77 726 -81 L660 -88 L635 -21 L702 -15 Q725 -13 738 -9.5 Q751 -6 757 1 Q763 8 764.5 19.5 Q766 31 766 51 L766 364 L283 364 L283 431 L828 431 Q807 446 777.5 464.5 Q748 483 715.5 502 Q683 521 651.5 538 Q620 555 595 567 Q566 527 511 496.5 Q456 466 365 434 L335 494 Q386 510 422.5 525 Q459 540 484.5 556.5 Q510 573 525.5 592.5 Q541 612 550 638 L334 638 L334 704 L564 704 L565 714 Q565 718 565.5 730 Q566 742 566.5 756 Q567 770 567.5 782.5 Q568 795 568 801 L641 798 Q641 792 640.5 780.5 Q640 769 639.5 756 Q639 743 638.5 729.5 Q638 716 638 707 L638 704 L888 704 L888 638 L628 638 Q626 633 625 628.5 Q624 624 622 619 Q647 607 681 590 Q715 573 749.5 554.5 Q784 536 814 519 Q844 502 861 492 L832 431 L941 431 L941 364 ZM310 784 Q282 683 242 585 L242 -97 L172 -97 L172 437 Q151 399 129 363 Q107 327 84 295 L29 348 Q62 393 93 446.5 Q124 500 151.5 558 Q179 616 201 676.5 Q223 737 238 796 L310 784 ZM648 37 L351 37 L351 286 L648 286 L648 37 ZM586 227 L414 227 L414 95 L586 95 L586 227 Z" /><glyph glyph-name="uni501F" unicode="&#x501f;" d="M308 787 Q292 733 275 683.5 Q258 634 239 586 L239 -99 L168 -99 L168 434 Q129 360 81 293 L26 341 Q57 383 87.5 437.5 Q118 492 145.5 552.5 Q173 613 195.5 676 Q218 739 233 798 L308 787 ZM943 486 L943 419 L280 419 L280 486 L451 486 L451 611 L329 611 L329 678 L451 678 L451 795 L524 793 L524 678 L693 678 L693 795 L767 793 L767 678 L905 678 L905 611 L767 611 L767 486 L943 486 ZM524 486 L693 486 L693 611 L524 611 L524 486 ZM377 334 L843 334 L843 -95 L768 -95 L768 -46 L451 -46 L451 -97 L377 -97 L377 334 ZM451 269 L451 173 L768 173 L768 269 L451 269 ZM768 17 L768 110 L451 110 L451 17 L768 17 Z" /><glyph glyph-name="uni5021" unicode="&#x5021;" d="M339 782 Q319 725 298 674 Q277 623 254 574 L254 -100 L181 -100 L181 438 Q137 363 87 293 L29 349 Q61 391 94.5 444.5 Q128 498 159 557 Q190 616 216.5 677.5 Q243 739 260 796 L339 782 ZM830 406 L382 406 L382 751 L830 751 L830 406 ZM453 689 L453 613 L758 613 L758 689 L453 689 ZM758 466 L758 553 L453 553 L453 466 L758 466 ZM867 325 L867 -99 L794 -99 L794 -51 L417 -51 L417 -100 L345 -100 L345 325 L867 325 ZM417 260 L417 165 L794 165 L794 260 L417 260 ZM794 13 L794 104 L417 104 L417 13 L794 13 Z" /><glyph glyph-name="uni5026" unicode="&#x5026;" d="M632 143 Q653 144 665.5 147 Q678 150 685 156 Q692 162 695 170.5 Q698 179 700 193 Q701 201 702 213.5 Q703 226 703 235 L474 235 L474 58 Q474 20 487.5 7 Q501 -6 542 -8 Q628 -12 715 -8 Q757 -6 774 2 Q791 10 795 28 Q800 47 802 66.5 Q804 86 806 106 L875 82 Q871 54 867.5 28.5 Q864 3 857 -21 Q851 -46 823 -58 Q795 -70 732 -73 Q630 -78 528 -73 Q463 -70 435 -46.5 Q407 -23 407 37 L407 235 Q378 209 346.5 183.5 Q315 158 280 132 L238 188 Q310 237 365.5 287.5 Q421 338 461 397 L286 397 L286 462 L499 462 Q518 503 531 545 L316 545 L316 609 L440 609 Q431 625 419 642.5 Q407 660 394.5 677.5 Q382 695 369.5 709.5 Q357 724 348 734 L399 772 Q409 761 423.5 744 Q438 727 453 708.5 Q468 690 480.5 672.5 Q493 655 501 642 L465 609 L547 609 Q551 631 556 656.5 Q561 682 565.5 708.5 Q570 735 573.5 760.5 Q577 786 580 809 L648 799 Q643 756 634.5 704.5 Q626 653 617 609 L741 609 L705 630 Q737 673 760 712 Q783 751 799 782 L855 751 Q840 722 820.5 688.5 Q801 655 769 609 L897 609 L897 545 L603 545 Q597 523 590 502.5 Q583 482 575 462 L924 462 L924 397 L743 397 Q780 348 835.5 304 Q891 260 965 223 L923 160 Q884 186 844 215.5 Q804 245 769 277 Q768 264 767.5 248.5 Q767 233 766 218 Q765 203 764.5 191 Q764 179 763 174 Q761 149 755 132 Q749 115 736 104.5 Q723 94 700.5 88 Q678 82 643 80 L597 76 L576 141 L632 143 ZM304 790 Q288 735 270.5 684 Q253 633 233 584 L233 -99 L162 -99 L162 434 Q122 360 74 291 L20 349 Q49 388 80 441.5 Q111 495 140 556 Q169 617 193 680.5 Q217 744 231 801 L304 790 ZM744 300 Q719 324 698.5 348 Q678 372 663 397 L542 397 Q512 346 472 300 L744 300 Z" /><glyph glyph-name="uni503A" unicode="&#x503a;" d="M937 458 L937 399 L282 399 L282 458 L566 458 L566 526 L338 526 L338 582 L566 582 L566 648 L326 648 L326 705 L566 705 L566 805 L638 802 L638 705 L898 705 L898 648 L638 648 L638 582 L870 582 L870 526 L638 526 L638 458 L937 458 ZM307 780 Q292 726 274.5 674.5 Q257 623 237 573 L237 -101 L167 -101 L167 427 Q148 392 127 359.5 Q106 327 83 295 L31 349 Q100 441 153 556 Q206 671 237 790 L307 780 ZM765 68 L765 266 L442 266 L442 66 L372 66 L372 329 L837 329 L837 68 L765 68 ZM634 194 Q629 128 612.5 84.5 Q596 41 559 9 Q522 -23 461 -48.5 Q400 -74 307 -104 L274 -42 Q367 -17 423 7 Q479 31 510.5 59 Q542 87 554.5 120.5 Q567 154 571 198 Q571 199 571.5 205.5 Q572 212 573 219 Q574 227 574 237 L636 232 L634 194 ZM642 102 Q675 89 713 72 Q751 55 789.5 35.5 Q828 16 864 -4.5 Q900 -25 929 -44 L898 -109 Q864 -86 827 -64 Q790 -42 752.5 -22.5 Q715 -3 680 14 Q645 31 615 44 L642 102 Z" /><glyph glyph-name="uni503C" unicode="&#x503c;" d="M942 7 L942 -59 L273 -59 L273 7 L361 7 L361 562 L565 562 L565 654 L320 654 L320 718 L565 718 L565 805 L640 802 L640 718 L905 718 L905 654 L640 654 L640 562 L845 562 L845 7 L942 7 ZM293 790 Q279 736 263 686 Q247 636 228 588 L228 -93 L156 -93 L156 430 Q119 361 77 297 L28 361 Q91 448 139 562.5 Q187 677 218 802 L293 790 ZM435 498 L435 421 L770 421 L770 498 L435 498 ZM770 363 L435 363 L435 286 L770 286 L770 363 ZM435 228 L435 149 L770 149 L770 228 L435 228 ZM435 7 L770 7 L770 91 L435 91 L435 7 Z" /><glyph glyph-name="uni503E" unicode="&#x503e;" d="M278 791 Q251 689 217 600 L217 -87 L151 -87 L151 443 Q132 403 112 365.5 Q92 328 70 290 L17 335 Q44 380 73.5 438.5 Q103 497 129 560 Q155 623 175.5 686 Q196 749 207 802 L278 791 ZM501 138 Q493 132 476.5 119 Q460 106 440.5 91 Q421 76 403.5 61.5 Q386 47 377 40 Q366 32 355.5 23.5 Q345 15 332 3 L293 62 Q309 76 316.5 90.5 Q324 105 324 126 L324 783 L391 781 L391 547 L489 547 L489 477 L391 477 L391 135 Q400 142 413 153 Q426 164 439 175 Q452 186 463.5 196.5 Q475 207 481 213 L501 138 ZM648 567 Q655 593 661 626.5 Q667 660 672 686 L499 686 L499 749 L921 749 L921 686 L740 686 Q735 658 728.5 625.5 Q722 593 716 567 L879 567 L879 121 L814 121 L814 505 L584 505 L584 122 L521 122 L521 567 L648 567 ZM729 287 Q729 217 718.5 166 Q708 115 681 72.5 Q654 30 607 -9 Q560 -48 487 -93 L448 -35 Q521 2 564 36.5 Q607 71 630 109.5 Q653 148 660 194.5 Q667 241 667 302 L667 446 L729 444 L729 287 ZM742 140 Q765 123 792.5 100 Q820 77 848 52.5 Q876 28 901.5 3 Q927 -22 946 -42 L901 -96 Q886 -77 862.5 -53 Q839 -29 813 -3.5 Q787 22 759 46.5 Q731 71 707 91 L742 140 Z" /><glyph glyph-name="uni5047" unicode="&#x5047;" d="M294 787 Q277 729 260.5 678 Q244 627 224 580 L224 -100 L156 -100 L156 438 Q138 404 118 371 Q98 338 75 304 L26 357 Q56 398 84 448.5 Q112 499 137.5 556 Q163 613 184 674 Q205 735 220 796 L294 787 ZM390 105 L390 -93 L323 -93 L323 753 L576 753 L576 479 L390 479 L390 363 L568 363 L568 294 L390 294 L390 173 L585 173 L585 105 L390 105 ZM869 481 L615 481 L615 550 L801 550 L801 683 L616 683 L616 752 L869 752 L869 481 ZM390 684 L390 547 L510 547 L510 684 L390 684 ZM775 99 Q809 65 853 35 Q897 5 954 -24 L914 -90 Q854 -51 810 -17 Q766 17 731 52 Q692 14 641.5 -21.5 Q591 -57 525 -93 L487 -33 Q552 0 601.5 33 Q651 66 688 101 Q659 141 637 187.5 Q615 234 596 295 L653 315 L582 315 L582 382 L879 382 L879 313 Q862 250 837 197.5 Q812 145 775 99 ZM656 315 Q670 265 688.5 224.5 Q707 184 732 149 Q761 185 780.5 226 Q800 267 814 315 L656 315 Z" /><glyph glyph-name="uni504E" unicode="&#x504e;" d="M293 780 Q276 723 258.5 673 Q241 623 221 575 L221 -103 L153 -103 L153 439 Q134 406 112.5 371.5 Q91 337 65 301 L13 358 Q50 411 80.5 462.5 Q111 514 136.5 566.5 Q162 619 183 674.5 Q204 730 222 793 L293 780 ZM850 390 L344 390 L344 756 L850 756 L850 390 ZM415 697 L415 601 L563 601 L563 697 L415 697 ZM777 697 L627 697 L627 601 L777 601 L777 697 ZM415 448 L563 448 L563 543 L415 543 L415 448 ZM777 448 L777 543 L627 543 L627 448 L777 448 ZM711 83 Q753 51 808 26 Q863 1 935 -20 L898 -82 Q819 -55 759.5 -25 Q700 5 654.5 44 Q609 83 575 134 Q541 185 514 255 L433 255 L433 -1 Q444 2 468.5 11 Q493 20 520 30 Q547 40 570 49 Q593 58 601 61 L605 -9 Q595 -12 568.5 -21 Q542 -30 512 -41 Q482 -52 454.5 -62 Q427 -72 416 -76 Q405 -81 392.5 -87 Q380 -93 361 -104 L330 -40 Q349 -29 356 -18 Q363 -7 363 9 L363 255 L257 255 L257 319 L917 319 L917 255 L583 255 Q614 179 663 126 Q710 152 749 178 Q788 204 824 234 L863 182 Q834 159 795.5 134 Q757 109 711 83 Z" /><glyph glyph-name="uni504F" unicode="&#x504f;" d="M890 385 L890 8 Q890 -18 885.5 -34.5 Q881 -51 871 -61.5 Q861 -72 844.5 -77.5 Q828 -83 805 -86 L772 -90 L752 -25 L785 -21 Q811 -18 817 -10 Q823 -2 823 24 L823 130 L739 130 L739 -43 L679 -43 L679 130 L601 130 L601 -42 L539 -42 L539 130 L456 130 L456 -86 L394 -86 L394 315 Q383 218 357 132.5 Q331 47 281 -34 L222 9 Q253 56 274.5 104.5 Q296 153 309.5 211 Q323 269 329 339 Q335 409 335 498 L335 706 L568 706 Q560 732 551.5 758.5 Q543 785 536 802 L610 816 Q618 798 629 766 Q640 734 648 706 L875 706 L875 478 L402 478 Q402 454 401.5 431 Q401 408 400 385 L890 385 ZM295 781 Q276 715 259 661 Q242 607 222 558 L222 -93 L156 -93 L156 416 Q141 389 124 361 Q107 333 87 303 L33 352 Q104 450 149 564.5 Q194 679 223 794 L295 781 ZM402 644 L402 540 L804 540 L804 644 L402 644 ZM539 189 L539 324 L456 324 L456 189 L539 189 ZM679 189 L679 324 L601 324 L601 189 L679 189 ZM823 189 L823 324 L739 324 L739 189 L823 189 Z" /><glyph glyph-name="uni505A" unicode="&#x505a;" d="M772 173 Q808 116 854.5 63.5 Q901 11 961 -41 L908 -99 Q853 -48 809.5 1.5 Q766 51 732 104 Q698 53 652.5 2.5 Q607 -48 546 -102 L500 -43 Q511 -33 522 -24 Q533 -15 544 -5 L293 -5 L293 372 L386 372 L386 552 L261 552 L261 622 L386 622 L386 802 L454 799 L454 622 L577 622 L577 552 L454 552 L454 372 L545 372 L545 -4 Q593 39 629.5 81.5 Q666 124 695 169 Q637 282 615 424 Q598 392 579 364 L533 419 Q557 456 579 503 Q601 550 619.5 602 Q638 654 651.5 707 Q665 760 673 809 L739 797 Q732 758 723 718 Q714 678 702 637 L935 637 L935 566 L865 566 Q860 504 852.5 450.5 Q845 397 834 349 Q823 301 808 257.5 Q793 214 772 173 ZM265 784 Q253 733 239 684.5 Q225 636 208 588 L208 -98 L142 -98 L142 429 Q127 399 111 369 Q95 339 77 310 L24 368 Q53 412 79 463 Q105 514 127 569.5 Q149 625 166.5 683.5 Q184 742 197 799 L265 784 ZM659 517 Q676 362 733 244 Q762 310 778.5 388 Q795 466 803 566 L678 566 Q673 553 668.5 541 Q664 529 659 517 ZM480 302 L356 302 L356 64 L480 64 L480 302 Z" /><glyph glyph-name="uni505C" unicode="&#x505c;" d="M915 706 L915 641 L324 641 L324 706 L578 706 Q570 732 561.5 758 Q553 784 546 801 L620 815 Q628 797 638.5 765.5 Q649 734 658 706 L915 706 ZM311 792 Q293 729 273.5 674 Q254 619 233 568 L233 -92 L164 -92 L164 428 Q127 362 79 297 L24 349 Q92 437 145.5 556 Q199 675 234 802 L311 792 ZM840 581 L840 408 L378 408 L378 581 L840 581 ZM770 528 L449 528 L449 460 L770 460 L770 528 ZM303 347 L913 347 L913 179 L842 179 L842 283 L373 283 L373 179 L303 179 L303 347 ZM395 207 L819 207 L819 144 L655 144 L655 18 Q655 -10 650 -29 Q645 -48 631 -60 Q617 -72 591.5 -78 Q566 -84 525 -87 L466 -91 L443 -22 L510 -18 Q535 -17 549.5 -13.5 Q564 -10 571.5 -4 Q579 2 581 12 Q583 22 583 38 L583 144 L395 144 L395 207 Z" /><glyph glyph-name="uni5065" unicode="&#x5065;" d="M630 517 L474 517 L474 574 L630 574 L630 655 L503 655 L503 711 L630 711 L630 800 L696 798 L696 711 L864 711 L864 574 L932 574 L932 517 L864 517 L864 380 L696 380 L696 301 L887 301 L887 245 L696 245 L696 168 L915 168 L915 111 L696 111 L696 22 L630 22 L630 111 L462 111 L462 168 L630 168 L630 245 L498 245 L498 301 L630 301 L630 380 L503 380 L503 436 L630 436 L630 517 ZM260 783 Q249 732 235 683 Q221 634 204 586 L204 -93 L140 -93 L140 427 Q108 358 73 300 L18 346 Q45 387 71 440.5 Q97 494 119.5 553 Q142 612 160.5 673.5 Q179 735 191 793 L260 783 ZM633 0 Q789 -8 946 0 L934 -61 Q780 -68 626 -61 Q542 -56 477.5 -34 Q413 -12 364 42 Q345 10 321.5 -23.5 Q298 -57 268 -97 L214 -52 Q249 -10 275.5 27 Q302 64 322 99 Q299 139 279.5 190.5 Q260 242 244 310 L300 329 Q311 282 324.5 242 Q338 202 355 168 Q375 216 385 269 Q395 322 400 390 L265 390 L265 452 Q301 501 333.5 553.5 Q366 606 396 663 L266 663 L266 725 L467 725 L467 662 Q438 606 406 553.5 Q374 501 337 452 L462 452 L462 387 Q452 295 437.5 229 Q423 163 396 104 Q435 57 491.5 30.5 Q548 4 633 0 ZM696 574 L801 574 L801 655 L696 655 L696 574 ZM801 517 L696 517 L696 436 L801 436 L801 517 Z" /></font>
</defs>
</svg>
